<?xml version="1.0" standalone="no"?>
<!DOCTYPE svg PUBLIC "-//W3C//DTD SVG 1.1//EN" "http://www.w3.org/Graphics/SVG/1.1/DTD/svg11.dtd" >
<svg>
<metadata>
Created by FontForge 20090914 at Tue Oct 27 16:30:54 2015
 By www-data
Copyright (c) 2009 by Mister Chek. All rights reserved.
</metadata>
<defs>
<font id="MCF_bad_manners_ww" horiz-adv-x="554" >
  <font-face 
    font-family="MCF bad manners ww"
    font-weight="400"
    font-stretch="normal"
    units-per-em="2048"
    panose-1="2 0 5 6 0 0 0 2 0 3"
    ascent="1638"
    descent="-410"
    x-height="851"
    cap-height="1290"
    bbox="-1304 -288 2091 1694"
    underline-thickness="39"
    underline-position="-437"
    unicode-range="U+0020-U+25FC"
  />
<missing-glyph horiz-adv-x="748" 
d="M68 0v1365h544v-1365h-544zM136 68h408v1229h-408v-1229z" />
    <glyph glyph-name=".notdef" horiz-adv-x="748" 
d="M68 0v1365h544v-1365h-544zM136 68h408v1229h-408v-1229z" />
    <glyph glyph-name="space" unicode=" " horiz-adv-x="433" 
 />
    <glyph glyph-name="exclam" unicode="!" horiz-adv-x="1099" 
d="M46 535c14.667 0 28.833 3.66699 42.5 11s25.834 16.666 36.501 27.999s18.667 23.833 24 37.5s6.66602 27.834 3.99902 42.501c-1.33301 10.667 -3.66602 20 -6.99902 28s-7 15.333 -11 22h92h35l10 34c4 8 15.333 15.833 34 23.5s32 12.834 40 15.501
c32 10.667 65.5 18 100.5 22s69.167 6 102.5 6s67.5 -2 102.5 -6s68.5 -11.333 100.5 -22c8 -2.66699 21.167 -7.83398 39.5 -15.501s29.5 -15.5 33.5 -23.5l10 -34h36h93c-12 -16 -18.667 -32.667 -20 -50c-2.66699 -14.667 -1.33398 -28.834 3.99902 -42.501
s13.333 -26.167 24 -37.5s23 -20.666 37 -27.999s28.333 -11 43 -11c1.33301 -28 -2.66699 -58.833 -12 -92.5s-18 -60.5 -26 -80.5c-5.33301 -12 -12 -25.333 -20 -40s-17 -29 -27 -43s-21.167 -26.5 -33.5 -37.5s-25.166 -17.833 -38.499 -20.5l-38 -8v-38
c-1.33301 -9.33301 -1.33301 -18 0 -26h-4h-2h-2c-26.667 -2.66699 -51.167 -7.66699 -73.5 -15s-43.5 -21 -63.5 -41c-4 -2.66699 -7.66699 -5.83398 -11 -9.50098s-7 -7.5 -11 -11.5c-20 -21.333 -41.5 -36.666 -64.5 -45.999s-48.5 -16.666 -76.5 -21.999
c-28 5.33301 -53.333 12.666 -76 21.999s-44.334 24.666 -65.001 45.999c-4 4 -7.66699 7.83301 -11 11.5s-7 6.83398 -11 9.50098c-20 20 -41.333 33.667 -64 41s-47 12.333 -73 15h-2h-2h-4c1.33301 5.33301 2 14 2 26l-2 38l-38 8c-13.333 2.66699 -26.333 9.5 -39 20.5
s-24 23.5 -34 37.5s-19 28.333 -27 43s-14.333 28 -19 40c-8 20 -16.667 46.833 -26 80.5s-13.333 64.5 -12 92.5zM57.999 525c0 -10.667 0.672852 -21 2.00586 -31s3.33301 -20.333 6 -31c2.66699 -16 6.5 -32.167 11.5 -48.5s10.833 -31.833 17.5 -46.5
c9.33301 -22.667 24 -49.167 44 -79.5s42.667 -48.833 68 -55.5l46 -10l2 -48v-14c26.667 -2.66699 51.5 -8 74.5 -16s44.5 -22 64.5 -42l24 -23c18.667 -20 38.5 -34 59.5 -42s44.833 -14.667 71.5 -20c26.667 5.33301 50.5 12 71.5 20s40.833 22 59.5 42l24 23
c21.333 20 43.166 34 65.499 42s46.833 13.333 73.5 16v14l2 48l46 10c25.333 6.66699 47.833 25.167 67.5 55.5s34.167 56.833 43.5 79.5c6.66699 14.667 12.667 30.167 18 46.5s9.33301 32.5 12 48.5c2.66699 10.667 4.66699 21 6 31s2 20.333 2 31
c-13.333 1.33301 -25.666 5 -36.999 11s-22.333 13.667 -33 23c-13.333 12 -23.5 26.5 -30.5 43.5s-9.16699 34.833 -6.5 53.5c1.33301 6.66699 2.66602 12.667 3.99902 18s3 11.333 5 18h-71h-44l-14 42c-2.66699 2.66699 -7.33398 5.66699 -14.001 9
s-11.334 6.33301 -14.001 9c-9.33301 5.33301 -21.666 10 -36.999 14c-30.667 10.667 -63.334 17.5 -98.001 20.5s-68.334 4.5 -101.001 4.5c-33.333 0 -67.166 -1.66699 -101.499 -5s-66.833 -10 -97.5 -20c-6.66699 -2.66699 -13 -5 -19 -7s-12.333 -4.33301 -19 -7
c-2.66699 -2.66699 -7.33398 -5.66699 -14.001 -9s-11.334 -6.33301 -14.001 -9l-14 -42h-43h-72c2.66699 -6.66699 4.66699 -12.667 6 -18s2.66602 -11.333 3.99902 -18c1.33301 -8 1.33301 -16 0 -24c-2.66699 -26.667 -14.667 -50.5 -36 -71.5s-45 -32.833 -71 -35.5z
M157.005 505c14.667 -18.667 26.332 -30 34.999 -34s20.334 -8 35.001 -12c-16 1.33301 -32.667 4.33301 -50 9s-24 17 -20 37zM158.003 546c0.666992 12.667 8.99902 24.333 24.999 35c-13.333 -22.667 -13.666 -45.667 -0.999023 -69s30.334 -40.333 53.001 -51
c-10.667 4 -22.334 10.333 -35.001 19s-23 18.667 -31 30s-11.667 23.333 -11 36zM199.002 568.999c5.33301 13.333 13.9844 22.9941 25.9844 28.9941c21.333 14.667 44.5 19.667 69.5 15s42.833 -19.334 53.5 -44.001c-13.333 14.667 -30 23.834 -50 27.501
s-39 1.83398 -57 -5.49902c-26.667 -12 -40.334 -29.333 -41.001 -52s9 -40.667 29 -54c8 -6.66699 16.5 -11 25.5 -13s18.833 -2.33301 29.5 -1c26.667 2.66699 48.334 13 65.001 31s30.334 37.667 41.001 59c10.667 18.667 18.667 36.834 24 54.501s4 29.167 -4 34.5
c5.33301 0 10.833 -1.33301 16.5 -4s9.83398 -7.33398 12.501 -14.001c6.66699 10.667 14.667 18 24 22s17.333 4.66699 24 2c-8 1.33301 -15 -1.33398 -21 -8.00098s-11.667 -15 -17 -25s-9.66602 -20.833 -12.999 -32.5s-6.33301 -22.834 -9 -33.501
c-4 -18.667 -1 -26 9 -22s20.667 12.667 32 26s19.666 27.166 24.999 41.499s0.666016 22.166 -14.001 23.499c9.33301 6.66699 17 7.66699 23 3s7.66699 -11 5 -19c-1.33301 -1.33301 -2 -2.66602 -2 -3.99902s-0.666992 -3.33301 -2 -6l10 2
c8 2.66699 12 3.33398 12 2.00098s-2 -5 -6 -11l-14 -29l-14 -29c-5.33301 -10.667 -6 -16.667 -2 -18c8 -4 15 0.333008 21 13s5.66699 23 -1 31c14.667 -4 19 -12 13 -24s-15.667 -21.333 -29 -28c13.333 -9.33301 16.666 -24 9.99902 -44
c-1.33301 -2.66699 -2 -4.66699 -2 -6s-1.33301 -3.33301 -4 -6c-1.33301 -2.66699 -2.66602 -5.66699 -3.99902 -9s-2.66602 -6.33301 -3.99902 -9c10.667 8 22 13.333 34 16c8 2.66699 13.333 2 16 -2s0.666992 -10.667 -6 -20c0 -4 -2 -5.66699 -6 -5l-13 -23
c-3.33301 -6 -6.33301 -13 -9 -21c-2.66699 -6.66699 -2 -9.66699 2 -9s9.33301 3.66699 16 9c9.33301 10.667 18 23.334 26 38.001v2c5.33301 13.333 4 23 -4 29c6.66699 2.66699 11.334 1.33398 14.001 -3.99902c1.33301 -1.33301 2 -4.66602 2 -9.99902
c6.66699 8 14 15.333 22 22s15.667 8.66699 23 6c5.33301 -1.33301 8.66602 -4.66602 9.99902 -9.99902s1.66602 -11 0.999023 -17s-2.33398 -11.833 -5.00098 -17.5s-5.33398 -10.5 -8.00098 -14.5c-13.333 -13.333 -25 -18 -35 -14c8 1.33301 16.667 8.66602 26 21.999
c2.66699 2.66699 4.16699 5.33398 4.5 8.00098s1.83301 5 4.5 7c2.66699 8 4 15 4 21s-5 3 -15 -9c-6.66699 -6.66699 -13 -15.5 -19 -26.5s-9.66699 -21.833 -11 -32.5c-2.66699 -10.667 -0.333984 -15.334 6.99902 -14.001s13 3.33301 17 6
c5.33301 2.66699 9.83301 6.33398 13.5 11.001l11.5 15c1.33301 5.33301 4.66602 13.333 9.99902 24c4 14.667 3.33301 27.667 -2 39c8 -1.33301 12.667 -4 14 -8c0 -2.66699 0.666992 -4.66699 2 -6c2.66699 6.66699 5 13.334 7 20.001s4.33301 13.334 7 20.001
c0 9.33301 -2 15.333 -6 18c13.333 -2.66699 22 -8 26 -16c2.66699 -6.66699 1.33398 -16 -3.99902 -28c-6.66699 -10.667 -12 -21.334 -16 -32.001c5.33301 0 9.33301 0.666992 12 2c6.66699 5.33301 12.334 10.666 17.001 15.999s7 11.333 7 18c0 4 -2 7.33301 -6 10
c4 0 8.66699 -0.666992 14 -2s8 -5.33301 8 -12s-2.66699 -12.334 -8 -17.001s-10.666 -8.33398 -15.999 -11.001c9.33301 0 17.333 -0.666992 24 -2c8 -2.66699 15.667 -5.5 23 -8.5s14.333 -6.5 21 -10.5c16 -9.33301 31.833 -18 47.5 -26s36.167 -10.667 61.5 -8
c20 2.66699 36 9.33398 48 20.001s20 22.834 24 36.501s4 27.5 0 41.5s-12.667 25 -26 33l-11 -19c-3.33301 -6 -5.66602 -10.333 -6.99902 -13l-8 -21l-8 -21c2.66699 0 4.66699 -0.333008 6 -1s3.33301 -1 6 -1c6.66699 0 13.334 2 20.001 6c-8 0 -10.667 4 -8 12
c2.66699 9.33301 7.33398 14 14.001 14c8 -2.66699 10.667 -7.33398 8 -14.001v-2c-2.66699 -8 -8.33398 -14.167 -17.001 -18.5s-17 -6.5 -25 -6.5c-1.33301 0 -2.66602 0.333008 -3.99902 1s-2.66602 1 -3.99902 1v-2c-2.66699 -9.33301 -2.66699 -16 0 -20
c2.66699 -2.66699 6.66699 -5.33398 12 -8.00098c-20 2.66699 -30 13.667 -30 33c-12 4 -23.333 4.66699 -34 2c-6.66699 -1.33301 -11.667 -3.16602 -15 -5.49902s-6.33301 -4.83301 -9 -7.5c-2.66699 9.33301 -2 17 2 23c5.33301 14.667 15 26.334 29 35.001
s26.333 15.667 37 21c5.33301 2.66699 10 6 14 10l10 10c-1.33301 1.33301 -3.33301 2 -6 2c-20 5.33301 -41 3.66602 -63 -5.00098s-38 -22.334 -48 -41.001c2.66699 13.333 7.5 24.333 14.5 33s15.167 16.334 24.5 23.001c-2.66699 -1.33301 -6 -2 -10 -2
c-12 0 -19.667 4 -23 12c-4 -4 -8.66699 -2 -14 6c1.33301 -1.33301 3.66602 -2 6.99902 -2s6 3.33301 8 10c1.33301 1.33301 2 2.66602 2 3.99902h2c0 2.66699 0.666992 4.66699 2 6c2.66699 6.66699 6.33398 12.334 11.001 17.001l11 11
c-12 -5.33301 -20 -4.66602 -24 2.00098c-1.33301 -16 -9.16602 -32.333 -23.499 -49s-30.166 -25 -47.499 -25h-4c-9.33301 1.33301 -14 9.33301 -14 24c0 -1.33301 -1.33301 -3.33301 -4 -6l-8 -8c-2.66699 -2.66699 -6 -4.66699 -10 -6c25.333 -9.33301 44 -22 56 -38
s12 -32 0 -48c5.33301 9.33301 6 18.666 2 27.999s-11.333 17.666 -22 24.999s-23.334 13.333 -38.001 18s-30 8.33398 -46 11.001c-2.66699 -10.667 -5.33398 -18 -8.00098 -22c-6.66699 -10.667 -15.834 -18.667 -27.501 -24s-23.5 -6.66602 -35.5 -3.99902
c-16 2.66699 -25 8 -27 16s2.33301 16 13 24c-1.33301 0 -2.66602 0.666992 -3.99902 2c-5.33301 1.33301 -7.66602 4.33301 -6.99902 9s2.33398 9.66699 5.00098 15c4 6.66699 8 13 12 19s8 12.333 12 19c-1.33301 0 -4.66602 -1.33301 -9.99902 -4
c-8 -2.66699 -13 -2 -15 2s-1 9.33301 3 16c2.66699 5.33301 7.33398 9 14.001 11c-4 -9.33301 -4.66699 -14.333 -2 -15c2.66699 -4 7.66699 -5 15 -3s13 3.66699 17 5h7c2 0 1.66699 -2 -1 -6c-2.66699 -2.66699 -5.33398 -6 -8.00098 -10s-4.66699 -8 -6 -12
c-5.33301 -8 -9 -15.333 -11 -22s-1 -10 3 -10c8 0 16.333 8 25 24s12.334 28 11.001 36c0 2.66699 -2 5.33398 -6 8.00098c5.33301 0 9.33301 -1.33301 12 -4c6.66699 10.667 15.834 16.167 27.501 16.5s18.167 -7.16699 19.5 -22.5c-5.33301 6.66699 -12.666 8 -21.999 4
c-4 -2.66699 -6.66699 -7.33398 -8 -14.001s-1.33301 -12.667 0 -18c0 -4 0.333008 -7.66699 1 -11s1 -7 1 -11c2.66699 0 4.66699 -0.333008 6 -1s3.33301 -1 6 -1c0 4 1.33301 8.66699 4 14c-1.33301 1.33301 -2.66602 2.33301 -3.99902 3
s-2.66602 2.33398 -3.99902 5.00098c1.33301 0 3 -0.333008 5 -1s4.33301 0.333008 7 3c4 9.33301 8.66699 18.833 14 28.5l16 30.5c-16 -1.33301 -30.667 1 -44 7s-18 17.667 -14 35c0 -14.667 6.66699 -23.667 20 -27s27.333 -3.66602 42 -0.999023
c2.66699 8 4 13.333 4 16c2.66699 10.667 2 18.667 -2 24c12 -8 20 -15.333 24 -22c0 -2.66699 0.333008 -4.33398 1 -5.00098s1 -2.33398 1 -5.00098c22.667 9.33301 46.5 18 71.5 26s51.5 8 79.5 0c28 -9.33301 45.333 -23.333 52 -42c-13.333 22.667 -36 34 -68 34
c-26.667 1.33301 -51.167 -2.66699 -73.5 -12s-44.833 -17.333 -67.5 -24l-2 -2c-5.33301 -10.667 -10 -20.834 -14 -30.501s-8.66699 -19.834 -14 -30.501c-2.66699 -6.66699 -4.66699 -12.667 -6 -18s-0.666016 -8 2.00098 -8c5.33301 0 11 3.33301 17 10s11 14 15 22
c0 2.66699 0.666992 5.33398 2 8.00098l4 8v12c-1.33301 2.66699 -3.33301 5.33398 -6 8.00098c6.66699 0 11.334 -2 14.001 -6c6.66699 9.33301 14.334 18.166 23.001 26.499s17.667 11.166 27 8.49902s13 -11.5 11 -26.5s-6.33301 -25.833 -13 -32.5
c-10.667 -12 -22.667 -16 -36 -12c8 0 16.667 6.66699 26 20c4 4 7.33301 9.33301 10 16c2.66699 8 4.33398 14.833 5.00098 20.5s-4.33301 2.5 -15 -9.5c-6.66699 -6.66699 -13 -15.167 -19 -25.5s-10.333 -20.833 -13 -31.5c-1.33301 -10.667 1.33398 -15 8.00098 -13
s12 4.33301 16 7s9.33301 7.33398 16 14.001c8 9.33301 14.5 20.5 19.5 33.5s4.5 24.833 -1.5 35.5c5.33301 0 9 -1.33301 11 -4c10.667 10.667 23.334 14.667 38.001 12c-6.66699 -2.66699 -12.334 -7 -17.001 -13s-5.66699 -10.333 -3 -13s7.66699 -3.33398 15 -2.00098
s18.333 8.66602 33 21.999c4 0 5.33301 -1.33301 4 -4c-2.66699 -2.66699 -8.66699 -9.16699 -18 -19.5s-15.333 -17.5 -18 -21.5c-4 -6.66699 -8 -15 -12 -25s-2.66699 -15.667 4 -17c6.66699 -2.66699 13.667 -1.33398 21 3.99902l19 14c16 16 22.667 30 20 42
c-1.33301 5.33301 -6.66602 7.66602 -15.999 6.99902c10.667 6.66699 18.667 8.33398 24 5.00098s6.66602 -9.33301 3.99902 -18c-2.66699 -10.667 -8.66699 -20.334 -18 -29.001s-19.333 -16.334 -30 -23.001c20 4 40 2 60 -6c1.33301 1.33301 2 4 2 8
c1.33301 6.66699 0 11.334 -4 14.001c8 1.33301 14.667 -1 20 -7s6 -14.333 2 -25l18 -18c8 -13.333 12.333 -27 13 -41s-2 -27.167 -8 -39.5s-15.333 -23.166 -28 -32.499s-27.667 -16 -45 -20c-6.66699 -2.66699 -15.334 -3.66699 -26.001 -3s-21.334 1.66699 -32.001 3
c-17.333 2.66699 -33.5 8 -48.5 16s-30.5 15.333 -46.5 22c-9.33301 4 -19 7.66699 -29 11s-20.333 1.66602 -31 -5.00098c0 -1.33301 -0.333008 -2 -1 -2s-1 -0.666992 -1 -2c-2.66699 -10.667 -5.33398 -18.667 -8.00098 -24c-2.66699 -8 -2 -15.333 2 -22
c0 -1.33301 0.666992 -2.66602 2 -3.99902c46.667 5.33301 89.167 4.66602 127.5 -2.00098s64.166 -26 77.499 -58c-10.667 18.667 -27.834 31.667 -51.501 39s-50.5 10.333 -80.5 9s-61.167 -5 -93.5 -11s-63.833 -12.667 -94.5 -20s-58.5 -14.333 -83.5 -21
s-44.167 -10 -57.5 -10c-38.667 0 -71.5 7.66699 -98.5 23s-41.833 44.333 -44.5 87c5.33301 -36 21.166 -60 47.499 -72s57.5 -16.667 93.5 -14c21.333 1.33301 55.833 8 103.5 20s97.167 21.333 148.5 28c-5.33301 2.66699 -12 6.66699 -20 12
c-2.66699 2.66699 -4 6.66699 -4 12c-6.66699 -8 -14.5 -15 -23.5 -21s-18.167 -9 -27.5 -9h-6c-12 5.33301 -16 16.666 -12 33.999l-14 -14l-10 -10c-10.667 -8 -18.334 -12 -23.001 -12s-8.33398 1.33301 -11.001 4c-5.33301 6.66699 -4.66602 16 2.00098 28
c4 10.667 9.33301 20.667 16 30c-1.33301 0 -3.33301 1.33301 -6 4c0 2.66699 0.666992 5.66699 2 9c0 -2.66699 2 -3.66699 6 -3c2.66699 0 4.66699 1 6 3c1.33301 2.66699 2 5.33398 2 8.00098c-2.66699 2.66699 -6.33398 2.33398 -11.001 -0.999023
s-7.66699 -5.66602 -9 -6.99902c-1.33301 0 -2 -0.333008 -2 -1c-2.66699 -1.33301 -5.33398 -3.33301 -8.00098 -6l-10 -20c-4 -8 -6.66699 -14.667 -8 -20c-2.66699 -6.66699 -4.66699 -13.667 -6 -21s0.666992 -13 6 -17c-4 2.66699 -7 4 -9 4s-4.33301 0.666992 -7 2
s-6 4 -10 8c-2.66699 4 -2.66699 10.667 0 20c-6.66699 -9.33301 -14.334 -16.666 -23.001 -21.999c-5.33301 -4 -13.666 -8.66699 -24.999 -14s-23.333 -9.33301 -36 -12s-24 -2.66699 -34 0s-16.333 10 -19 22c-1.33301 1.33301 -2 3.33301 -2 6
c-5.33301 -2.66699 -10 0 -14 8c1.33301 -1.33301 4 -1.66602 8 -0.999023s8 5 12 13c2.66699 8 6.33398 15.333 11.001 22l13 18l4 4c-13.333 2.66699 -22 5.66699 -26 9c-10.667 12 -11 21.667 -1 29s19.667 7.66602 29 0.999023
c-6.66699 -1.33301 -12 -4.66602 -16 -9.99902s-4 -10.666 0 -15.999c2.66699 -4 9.33398 -6.33301 20.001 -7c13.333 14.667 28.666 28.167 45.999 40.5s36.333 19.833 57 22.5c6.66699 1.33301 12.667 0.666016 18 -2.00098s5.33301 -9.33398 0 -20.001
c-6.66699 -16 -21.834 -27.833 -45.501 -35.5s-42.834 -11.5 -57.501 -11.5l-11 -17c-4.66699 -7.33301 -8.66699 -14.666 -12 -21.999s-5.33301 -14.666 -6 -21.999s1.66602 -13 6.99902 -17c6.66699 -5.33301 14.334 -7 23.001 -5s17.667 5.66699 27 11
s17.333 11.666 24 18.999s11.334 13 14.001 17c2.66699 6.66699 4.33398 13.334 5.00098 20.001s-4.33301 11.334 -15 14.001c6.66699 5.33301 13.834 7 21.501 5s12.167 -6.33301 13.5 -13c0 -1.33301 0.666992 -2.66602 2 -3.99902
c2.66699 6.66699 5.33398 12.5 8.00098 17.5s5.33398 8.83301 8.00098 11.5s4.33398 5.66699 5.00098 9s2.33398 6.33301 5.00098 9c-2.66699 0 -6 2 -10 6h9c3.33301 0 7 4.66699 11 14c0 2.66699 0.666992 4 2 4c2.66699 5.33301 4 10 4 14
c2.66699 6.66699 2.66699 12 0 16c-13.333 -5.33301 -23.333 -8 -30 -8c-6.66699 2.66699 -9 7.66699 -7 15s4.33301 13 7 17c2.66699 2.66699 4.33398 5.66699 5.00098 9s2.33398 6.33301 5.00098 9c-10.667 -12 -20.667 -22 -30 -30c-16 -12 -24.5 -12.667 -25.5 -2
s-0.166992 24 2.5 40c-4 -10.667 -10 -20.667 -18 -30c-21.333 -32 -49.333 -52 -84 -60c-12 -4 -23.333 -6 -34 -6c-33.333 0 -57.833 11.333 -73.5 34s-18.167 47.334 -7.5 74.001zM275.986 238.993h12l4 -20l6 20h10l6 -20l6 20h8v-4l-8 -28h-10l-6 20l-6 -20h-10z
M327.986 234.993l2 4h8l4 -20l8 20h8l8 -20l4 20h8l2 -4l-10 -28h-10l-6 20l-6 -20h-10zM357.986 425.993c14.667 2.66699 29.333 6.16602 44 10.499s25.667 13.833 33 28.5c4 10.667 4.5 16.334 1.5 17.001s-7.83301 -0.333008 -14.5 -3
c-12 -6.66699 -23.333 -14.667 -34 -24s-20.667 -19 -30 -29zM379.985 234.992v4h8l6 -20l6 20h10l6 -20l4 20h11l-11 -32h-10l-6 20l-6 -20h-10zM425.985 206.992v12h11v-12h-11zM440.985 206.992v31.999h12v-4l4 4h6h4l4 -4c2.66699 2.66699 4.66699 4 6 4h4
c4 0 6.66699 -0.666992 8 -2s2 -4.66602 2 -9.99902v-20h-10v18c0 1.33301 -0.333008 2 -1 2s-1 0.666992 -1 2l-2 2c-1.33301 0 -2 -0.333008 -2 -1s-0.666992 -1 -2 -1v-6v-16h-12v18v2c0 1.33301 -0.666992 2 -2 2c0 1.33301 -0.666992 2 -2 2s-2 -0.666992 -2 -2
c-1.33301 -1.33301 -2 -3.33301 -2 -6v-16h-12zM492.985 126.991c0 17.333 8.66699 26.001 26 26.001c12 0 22 -7.33301 30 -22c0 14.667 -3.66699 26.667 -11 36s-19 13.333 -35 12v6h92v-6c-32 0 -46.667 -16 -44 -48c6.66699 14.667 16.667 22 30 22
c16 0 23.667 -8.66699 23 -26c0 -8 -2 -14.667 -6 -20l-1 2v24l-14 -20l-24 8l14 -20l-14 -19l22 7h2l-2 -2c-8 -6.66699 -14.667 -13.167 -20 -19.5s-9.33301 -14.833 -12 -25.5c-2.66699 10.667 -7 20 -13 28s-13 15 -21 21c-6.66699 5.33301 -12 10.666 -16 15.999
s-6 12 -6 20zM494.985 206.992v32h12v-32h-12zM494.985 242.992v8h12v-8h-12zM508.985 216.992l12 -0.00195312c0 -1.33301 0.666992 -2 2 -2c0 -1.33301 0.666992 -2 2 -2c2.66699 0 4 0.666992 4 2l2 2l-2 2h-6c-2.66699 1.33301 -5.33398 2 -8.00098 2l-4 4v4v6
c2.66699 2.66699 4.66699 4 6 4h8h8l4 -2c0 -1.33301 0.333008 -2.33301 1 -3s1 -1.66699 1 -3h-10l-2 2h-4h-2v-2v-2h6c2.66699 -1.33301 5.33398 -2 8.00098 -2l4 -4c0 -1.33301 0.333008 -2.33301 1 -3s1 -1.66699 1 -3s-0.666992 -2.66602 -2 -3.99902
c-2.66699 -2.66699 -4.66699 -4 -6 -4c-1.33301 -1.33301 -4 -2 -8 -2c-6.66699 0 -10.667 0.666992 -12 2c-2.66699 2.66699 -4 5.33398 -4 8.00098zM522.985 480.99c13.333 -8 27.3311 -7.66895 41.998 0.998047s23.334 18.334 26.001 29.001c1.33301 2.66699 2 6 2 10
c-25.333 -1.33301 -44.666 -7.66602 -57.999 -18.999s-17.333 -18.333 -12 -21zM540.983 230.988v8h4v6l12 6v-12h6v-8h-6v-12v-2c0 -1.33301 0.666992 -2 2 -2h2l2 -8h-8h-6l-4 4v8v12h-4zM548.983 594.988c2.66699 6.66699 4 13.501 4 20.501s0.666992 14.5 2 22.5
c1.33301 -5.33301 2.33301 -10 3 -14s1.66699 -8.66699 3 -14c6.66699 9.33301 12.667 18.666 18 27.999s10.666 19.333 15.999 30l-7 -29l-7 -29l8 4l8 4c-2.66699 -2.66699 -5 -6 -7 -10s-4.33301 -7.33301 -7 -10c-1.33301 -2.66699 -3.33301 -3.66699 -6 -3
c-4 0 -7.66699 -0.333008 -11 -1s-7.66602 -1 -12.999 -1c-2.66699 0 -4 0.666992 -4 2zM548.983 645.989c0 4 1.33301 6 4 6s4 -2 4 -6s-1.33301 -6 -4 -6s-4 2 -4 6zM562.983 222.989c0 5.33301 1.33203 9.33203 3.99902 11.999s6.66699 4 12 4
s8.66602 -0.666992 9.99902 -2c1.33301 0 3.33301 -2 6 -6c1.33301 -1.33301 2 -4.66602 2 -9.99902v-2h-22l2 -4l4 -2l2 2c1.33301 0 2 0.666992 2 2l12 -2l-6 -6c-1.33301 -1.33301 -4.66602 -2 -9.99902 -2s-8.66602 0.666992 -9.99902 2c-2.66699 0 -4.66699 2 -6 6
c-1.33301 1.33301 -2 4 -2 8zM570.982 528.988c2.66699 1.33301 6.00098 2 10.001 2s8 0.666992 12 2c0 2.66699 -0.333008 6 -1 10s-1 8 -1 12c-2.66699 -2.66699 -4.33398 -4.66699 -5.00098 -6s-2.33398 -3.33301 -5.00098 -6
c-1.33301 -4 -4.66602 -8.66699 -9.99902 -14zM574.983 226.988h10v4c-1.33301 0 -2 0.333008 -2 1s-0.666992 1 -2 1s-2.33301 -0.333008 -3 -1s-1.66699 -1 -3 -1v-4zM596.983 619.988c-4 0 -3.99902 2.00098 0.000976562 6.00098c2 2.66699 3.66699 4 5 4
c1.33301 -1.33301 1.33301 -4 0 -8c-2.66699 -2.66699 -4.33398 -3.33398 -5.00098 -2.00098zM596.984 671.989c-4 2.66699 -4 6 0 10c0 5.33301 1.66699 8 5 8c1.33301 -2.66699 1.33301 -6.66699 0 -12c0.666992 -4 -1 -6 -5 -6zM597.984 206.989l-0.000976562 32h12v-6
c0 2.66699 0.333008 4 1 4s1 0.666992 1 2h4h6l-4 -10l-2 2c-1.33301 0 -2.66602 -0.666992 -3.99902 -2s-2 -5.33301 -2 -12v-10h-12zM619.983 222.989c0 4 0.667969 6.66895 2.00098 8.00195c0 1.33301 0.666992 2.66602 2 3.99902l4 4h10
c5.33301 0 8.66602 -0.666992 9.99902 -2c2.66699 -2.66699 4.66699 -5.33398 6 -8.00098l-12 -2v4h-4c-2.66699 0 -4.66699 -0.666992 -6 -2v-6v-6c1.33301 -1.33301 3.33301 -2 6 -2h4c0 1.33301 0.666992 2.66602 2 3.99902h10
c0 -1.33301 -0.666992 -2.66602 -2 -3.99902v-2c-2.66699 -2.66699 -4.66699 -4 -6 -4c-1.33301 -1.33301 -4 -2 -8 -2h-8l-4 4l-4 4c-1.33301 1.33301 -2 4 -2 8zM655.984 206.991l-0.000976562 43.999h10v-16c2.66699 2.66699 4.66699 4 6 4h4c4 0 6.66699 -0.666992 8 -2
s2 -4.66602 2 -9.99902v-20h-12v18v4l-2 2c-1.33301 0 -2.66602 -0.666992 -3.99902 -2c0 -1.33301 -0.333008 -2.33301 -1 -3s-1 -1.66699 -1 -3v-16h-10zM687.983 222.99c0 5.33301 1.99805 9.33105 5.99805 11.998c1.33301 2.66699 5.33301 4 12 4
c4 0 7.33301 -0.666992 10 -2c2.66699 0 4 -2 4 -6c1.33301 -1.33301 2 -4.66602 2 -9.99902v-2h-22l2 -4l4 -2c1.33301 0 2 0.666992 2 2c1.33301 0 2 0.666992 2 2l12 -2l-6 -6c-1.33301 -1.33301 -4.66602 -2 -9.99902 -2s-8.66602 0.666992 -9.99902 2
c-2.66699 0 -4 2 -4 6c-2.66699 2.66699 -4 5.33398 -4 8.00098zM699.981 226.988h11.999c-1.33301 1.33301 -2 2.66602 -2 3.99902c-1.33301 0 -2 0.333008 -2 1s-0.666992 1 -2 1s-2.66602 -0.666992 -3.99902 -2s-2 -2.66602 -2 -3.99902zM723.98 206.988v44h12v-22l8 10
h14l-10 -12l12 -20h-14l-6 12l-4 -4v-8h-12zM759.98 206.988v12h11v-12h-11zM774.98 206.988v32h10v-6c1.33301 2.66699 2.66602 4.66699 3.99902 6h4h4l-2 -10c-1.33301 1.33301 -2.66602 2 -3.99902 2s-2 -0.333008 -2 -1s-0.666992 -1 -2 -1
c0 -1.33301 -0.333008 -3 -1 -5s-1 -4.33301 -1 -7v-10h-10zM798.98 218.988v20h10v-18c0 -1.33301 0.666992 -2.66602 2 -3.99902h2h4c0 1.33301 0.333008 2.33301 1 3s1 1.66699 1 3v16h10v-32h-10v6l-4 -4c-1.33301 -1.33301 -3.33301 -2 -6 -2
c-4 0 -6.66699 0.666992 -8 2s-2 4.66602 -2 9.99902zM816.98 440.988c5.33301 2.66699 10.668 4 16.001 4c2.66699 0 5 -0.333008 7 -1s4.33301 -1 7 -1c1.33301 2.66699 2.66602 6 3.99902 10s3.33301 8 6 12l10 20c4 8 8 16.667 12 26
c-10.667 -10.667 -23 -20.667 -37 -30s-22.333 -22 -25 -38v-2zM910.982 377.988c21.333 14.667 35.498 34.5 42.498 59.5s2.5 47.5 -13.5 67.5c17.333 -8 27.333 -18.333 30 -31s1.33398 -25.167 -3.99902 -37.5s-13.166 -23.833 -23.499 -34.5s-20.833 -18.667 -31.5 -24z
M918.98 375.988c14.667 6.66699 25.5 13.002 32.5 19.002s16.5 18.667 28.5 38c4 -9.33301 4.33301 -16.833 1 -22.5s-8.33301 -10.834 -15 -15.501s-14.167 -8.33398 -22.5 -11.001z" />
    <glyph glyph-name="quotedbl" unicode="&#x22;" horiz-adv-x="904" 
d="M-16 253c0 151.333 52.3389 287.004 157.006 407.004c110 130 242.667 199 398 207c107.333 3.33301 197.333 -27.334 270 -92.001c71.333 -63.333 107.333 -146 108 -248c0 -94 -26 -188.667 -78 -284c-26.667 -46.667 -57.834 -90.167 -93.501 -130.5
s-74.834 -72.5 -117.501 -96.5c-22.667 -12 -42.334 -18 -59.001 -18c-20 0 -37.333 9.33301 -52 28c-9.33301 13.333 -15.333 24 -18 32c-13.333 -13.333 -28.833 -25 -46.5 -35s-37.834 -17.667 -60.501 -23c-28 6.66699 -55 17.667 -81 33s-50 25 -72 29
c-18.667 -2.66699 -32.667 -5 -42 -7s-19.333 -7 -30 -15l46 53.5c14.667 17 33 34.167 55 51.5c-8 18.667 -9.33301 39.334 -4 62.001c0 2.66699 0.666992 4.66699 2 6c0 25.333 -1.83301 48.166 -5.5 68.499s-14.834 33.833 -33.501 40.5c29.333 12 50.333 10.667 63 -4
c2.66699 12 5.66699 24.333 9 37s6.33301 25 9 37c4 14.667 4.66699 24.667 2 30c-4 8 -14.667 13.667 -32 17c48 2.66699 92.5 15 133.5 37s84.833 53 131.5 93c8 -17.333 22.667 -32.666 44 -45.999l21 97c-18.667 -1.33301 -36.167 0.666992 -52.5 6
s-31.833 14.666 -46.5 27.999l-10 -6c-10.667 -44 -28.834 -72.833 -54.501 -86.5s-59.834 -20.5 -102.501 -20.5l14 50c2.66699 18.667 3.33398 29 2.00098 31c-4 8 -14.667 14 -32 18c48 2.66699 92.5 15 133.5 37s84.833 52.667 131.5 92
c18.667 -34.667 42.5 -65.167 71.5 -91.5s62.167 -50.166 99.5 -71.499c-16 1.33301 -30 -21 -42 -67l-8 -30c17.333 6.66699 31.333 16 42 28c-8 -22.667 -24.667 -43.334 -50 -62.001l-58 -248c-2.66699 -9.33301 -5.33398 -21.333 -8.00098 -36
s-3.66699 -29.334 -3 -44.001s3.66699 -27.334 9 -38.001s14.666 -16 27.999 -16c16 0 36 16 60 48c86 126 123 257.333 111 394c-5.33301 79.333 -37.666 149.666 -96.999 210.999c-58 59.333 -129 89 -213 89c-95.333 -4 -187 -43.667 -275 -119
c-131.333 -111.333 -196.666 -260 -195.999 -446c0 -95.333 27 -173.333 81 -234c56.667 -64.667 135 -97.334 235 -98.001c50.667 0 103.667 16 159 48l16 -20c-76.667 -41.333 -151 -61.666 -223 -60.999c-104.667 0 -188.667 34.333 -252 103
c-62 62 -93.333 143.667 -94 245zM387.006 168.004c-2 -14 -0.99707 -28.334 3.00293 -43.001l32.5 -20c11 -6.66699 23.833 -12 38.5 -16c10.667 0 20 2 28 6v2c0 10.667 1.33301 22 4 34s6 26 10 42l10 42c1.33301 25.333 0 47.833 -4 67.5s-16 32.834 -36 39.501
c29.333 12 50.666 10.667 63.999 -4l24 102c-18.667 -1.33301 -36.334 0.5 -53.001 5.5s-32.334 14.167 -47.001 27.5l-10 -6l-57 -238c-2.66699 -13.333 -5 -27 -7 -41z" />
    <glyph glyph-name="numbersign" unicode="#" horiz-adv-x="1101" 
d="M46 535c14.667 0 28.833 3.66699 42.5 11s25.834 16.666 36.501 27.999s18.667 23.833 24 37.5s6.66602 27.834 3.99902 42.501c-1.33301 10.667 -3.66602 20 -6.99902 28s-7 15.333 -11 22h92h35l10 34c4 8 15.333 15.833 34 23.5s32 12.834 40 15.501
c32 10.667 65.5 18 100.5 22s69.167 6 102.5 6s67.5 -2 102.5 -6s68.5 -11.333 100.5 -22c8 -2.66699 21.167 -7.83398 39.5 -15.501s29.5 -15.5 33.5 -23.5l10 -34h36h93c-12 -16 -18.667 -32.667 -20 -50c-2.66699 -14.667 -1.33398 -28.834 3.99902 -42.501
s13.333 -26.167 24 -37.5s23 -20.666 37 -27.999s28.333 -11 43 -11c1.33301 -28 -2.66699 -58.833 -12 -92.5s-18 -60.5 -26 -80.5c-5.33301 -12 -12 -25.333 -20 -40s-17 -29 -27 -43s-21.167 -26.5 -33.5 -37.5s-25.166 -17.833 -38.499 -20.5l-38 -8v-38
c-1.33301 -9.33301 -1.33301 -18 0 -26h-4h-2h-2c-26.667 -2.66699 -51.167 -7.66699 -73.5 -15s-43.5 -21 -63.5 -41c-4 -2.66699 -7.66699 -5.83398 -11 -9.50098s-7 -7.5 -11 -11.5c-20 -21.333 -41.5 -36.666 -64.5 -45.999s-48.5 -16.666 -76.5 -21.999
c-28 5.33301 -53.333 12.666 -76 21.999s-44.334 24.666 -65.001 45.999c-4 4 -7.66699 7.83301 -11 11.5s-7 6.83398 -11 9.50098c-20 20 -41.333 33.667 -64 41s-47 12.333 -73 15h-2h-2h-4c1.33301 5.33301 2 14 2 26l-2 38l-38 8c-13.333 2.66699 -26.333 9.5 -39 20.5
s-24 23.5 -34 37.5s-19 28.333 -27 43s-14.333 28 -19 40c-8 20 -16.667 46.833 -26 80.5s-13.333 64.5 -12 92.5zM57.999 525c0 -10.667 0.672852 -21 2.00586 -31s3.33301 -20.333 6 -31c2.66699 -16 6.5 -32.167 11.5 -48.5s10.833 -31.833 17.5 -46.5
c9.33301 -22.667 24 -49.167 44 -79.5s42.667 -48.833 68 -55.5l46 -10l2 -48v-14c26.667 -2.66699 51.5 -8 74.5 -16s44.5 -22 64.5 -42l24 -23c18.667 -20 38.5 -34 59.5 -42s44.833 -14.667 71.5 -20c26.667 5.33301 50.5 12 71.5 20s40.833 22 59.5 42l24 23
c21.333 20 43.166 34 65.499 42s46.833 13.333 73.5 16v14l2 48l46 10c25.333 6.66699 47.833 25.167 67.5 55.5s34.167 56.833 43.5 79.5c6.66699 14.667 12.667 30.167 18 46.5s9.33301 32.5 12 48.5c2.66699 10.667 4.66699 21 6 31s2 20.333 2 31
c-13.333 1.33301 -25.666 5 -36.999 11s-22.333 13.667 -33 23c-13.333 12 -23.5 26.5 -30.5 43.5s-9.16699 34.833 -6.5 53.5c1.33301 6.66699 2.66602 12.667 3.99902 18s3 11.333 5 18h-71h-44l-14 42c-2.66699 2.66699 -7.33398 5.66699 -14.001 9
s-11.334 6.33301 -14.001 9c-9.33301 5.33301 -21.666 10 -36.999 14c-30.667 10.667 -63.334 17.5 -98.001 20.5s-68.334 4.5 -101.001 4.5c-33.333 0 -67.166 -1.66699 -101.499 -5s-66.833 -10 -97.5 -20c-6.66699 -2.66699 -13 -5 -19 -7s-12.333 -4.33301 -19 -7
c-2.66699 -2.66699 -7.33398 -5.66699 -14.001 -9s-11.334 -6.33301 -14.001 -9l-14 -42h-43h-72c2.66699 -6.66699 4.66699 -12.667 6 -18s2.66602 -11.333 3.99902 -18c1.33301 -8 1.33301 -16 0 -24c-2.66699 -26.667 -14.667 -50.5 -36 -71.5s-45 -32.833 -71 -35.5z
M157.005 505c14.667 -18.667 26.332 -30 34.999 -34s20.334 -8 35.001 -12c-16 1.33301 -32.667 4.33301 -50 9s-24 17 -20 37zM158.003 546c0.666992 12.667 8.99902 24.333 24.999 35c-13.333 -22.667 -13.666 -45.667 -0.999023 -69s30.334 -40.333 53.001 -51
c-10.667 4 -22.334 10.333 -35.001 19s-23 18.667 -31 30s-11.667 23.333 -11 36zM199.002 568.999c5.33301 13.333 13.9844 22.9941 25.9844 28.9941c21.333 14.667 44.5 19.667 69.5 15s42.833 -19.334 53.5 -44.001c-13.333 14.667 -30 23.834 -50 27.501
s-39 1.83398 -57 -5.49902c-26.667 -12 -40.334 -29.333 -41.001 -52s9 -40.667 29 -54c8 -6.66699 16.5 -11 25.5 -13s18.833 -2.33301 29.5 -1c26.667 2.66699 48.334 13 65.001 31s30.334 37.667 41.001 59c10.667 18.667 18.667 36.834 24 54.501s4 29.167 -4 34.5
c5.33301 0 10.833 -1.33301 16.5 -4s9.83398 -7.33398 12.501 -14.001c6.66699 10.667 14.667 18 24 22s17.333 4.66699 24 2c-8 1.33301 -15 -1.33398 -21 -8.00098s-11.667 -15 -17 -25s-9.66602 -20.833 -12.999 -32.5s-6.33301 -22.834 -9 -33.501
c-4 -18.667 -1 -26 9 -22s20.667 12.667 32 26s19.666 27.166 24.999 41.499s0.666016 22.166 -14.001 23.499c9.33301 6.66699 17 7.66699 23 3s7.66699 -11 5 -19c-1.33301 -1.33301 -2 -2.66602 -2 -3.99902s-0.666992 -3.33301 -2 -6l10 2
c8 2.66699 12 3.33398 12 2.00098s-2 -5 -6 -11l-14 -29l-14 -29c-5.33301 -10.667 -6 -16.667 -2 -18c8 -4 15 0.333008 21 13s5.66699 23 -1 31c14.667 -4 19 -12 13 -24s-15.667 -21.333 -29 -28c13.333 -9.33301 16.666 -24 9.99902 -44
c-1.33301 -2.66699 -2 -4.66699 -2 -6s-1.33301 -3.33301 -4 -6c-1.33301 -2.66699 -2.66602 -5.66699 -3.99902 -9s-2.66602 -6.33301 -3.99902 -9c10.667 8 22 13.333 34 16c8 2.66699 13.333 2 16 -2s0.666992 -10.667 -6 -20c0 -4 -2 -5.66699 -6 -5l-13 -23
c-3.33301 -6 -6.33301 -13 -9 -21c-2.66699 -6.66699 -2 -9.66699 2 -9s9.33301 3.66699 16 9c9.33301 10.667 18 23.334 26 38.001v2c5.33301 13.333 4 23 -4 29c6.66699 2.66699 11.334 1.33398 14.001 -3.99902c1.33301 -1.33301 2 -4.66602 2 -9.99902
c6.66699 8 14 15.333 22 22s15.667 8.66699 23 6c5.33301 -1.33301 8.66602 -4.66602 9.99902 -9.99902s1.66602 -11 0.999023 -17s-2.33398 -11.833 -5.00098 -17.5s-5.33398 -10.5 -8.00098 -14.5c-13.333 -13.333 -25 -18 -35 -14c8 1.33301 16.667 8.66602 26 21.999
c2.66699 2.66699 4.16699 5.33398 4.5 8.00098s1.83301 5 4.5 7c2.66699 8 4 15 4 21s-5 3 -15 -9c-6.66699 -6.66699 -13 -15.5 -19 -26.5s-9.66699 -21.833 -11 -32.5c-2.66699 -10.667 -0.333984 -15.334 6.99902 -14.001s13 3.33301 17 6
c5.33301 2.66699 9.83301 6.33398 13.5 11.001l11.5 15c1.33301 5.33301 4.66602 13.333 9.99902 24c4 14.667 3.33301 27.667 -2 39c8 -1.33301 12.667 -4 14 -8c0 -2.66699 0.666992 -4.66699 2 -6c2.66699 6.66699 5 13.334 7 20.001s4.33301 13.334 7 20.001
c0 9.33301 -2 15.333 -6 18c13.333 -2.66699 22 -8 26 -16c2.66699 -6.66699 1.33398 -16 -3.99902 -28c-6.66699 -10.667 -12 -21.334 -16 -32.001c5.33301 0 9.33301 0.666992 12 2c6.66699 5.33301 12.334 10.666 17.001 15.999s7 11.333 7 18c0 4 -2 7.33301 -6 10
c4 0 8.66699 -0.666992 14 -2s8 -5.33301 8 -12s-2.66699 -12.334 -8 -17.001s-10.666 -8.33398 -15.999 -11.001c9.33301 0 17.333 -0.666992 24 -2c8 -2.66699 15.667 -5.5 23 -8.5s14.333 -6.5 21 -10.5c16 -9.33301 31.833 -18 47.5 -26s36.167 -10.667 61.5 -8
c20 2.66699 36 9.33398 48 20.001s20 22.834 24 36.501s4 27.5 0 41.5s-12.667 25 -26 33l-11 -19c-3.33301 -6 -5.66602 -10.333 -6.99902 -13l-8 -21l-8 -21c2.66699 0 4.66699 -0.333008 6 -1s3.33301 -1 6 -1c6.66699 0 13.334 2 20.001 6c-8 0 -10.667 4 -8 12
c2.66699 9.33301 7.33398 14 14.001 14c8 -2.66699 10.667 -7.33398 8 -14.001v-2c-2.66699 -8 -8.33398 -14.167 -17.001 -18.5s-17 -6.5 -25 -6.5c-1.33301 0 -2.66602 0.333008 -3.99902 1s-2.66602 1 -3.99902 1v-2c-2.66699 -9.33301 -2.66699 -16 0 -20
c2.66699 -2.66699 6.66699 -5.33398 12 -8.00098c-20 2.66699 -30 13.667 -30 33c-12 4 -23.333 4.66699 -34 2c-6.66699 -1.33301 -11.667 -3.16602 -15 -5.49902s-6.33301 -4.83301 -9 -7.5c-2.66699 9.33301 -2 17 2 23c5.33301 14.667 15 26.334 29 35.001
s26.333 15.667 37 21c5.33301 2.66699 10 6 14 10l10 10c-1.33301 1.33301 -3.33301 2 -6 2c-20 5.33301 -41 3.66602 -63 -5.00098s-38 -22.334 -48 -41.001c2.66699 13.333 7.5 24.333 14.5 33s15.167 16.334 24.5 23.001c-2.66699 -1.33301 -6 -2 -10 -2
c-12 0 -19.667 4 -23 12c-4 -4 -8.66699 -2 -14 6c1.33301 -1.33301 3.66602 -2 6.99902 -2s6 3.33301 8 10c1.33301 1.33301 2 2.66602 2 3.99902h2c0 2.66699 0.666992 4.66699 2 6c2.66699 6.66699 6.33398 12.334 11.001 17.001l11 11
c-12 -5.33301 -20 -4.66602 -24 2.00098c-1.33301 -16 -9.16602 -32.333 -23.499 -49s-30.166 -25 -47.499 -25h-4c-9.33301 1.33301 -14 9.33301 -14 24c0 -1.33301 -1.33301 -3.33301 -4 -6l-8 -8c-2.66699 -2.66699 -6 -4.66699 -10 -6c25.333 -9.33301 44 -22 56 -38
s12 -32 0 -48c5.33301 9.33301 6 18.666 2 27.999s-11.333 17.666 -22 24.999s-23.334 13.333 -38.001 18s-30 8.33398 -46 11.001c-2.66699 -10.667 -5.33398 -18 -8.00098 -22c-6.66699 -10.667 -15.834 -18.667 -27.501 -24s-23.5 -6.66602 -35.5 -3.99902
c-16 2.66699 -25 8 -27 16s2.33301 16 13 24c-1.33301 0 -2.66602 0.666992 -3.99902 2c-5.33301 1.33301 -7.66602 4.33301 -6.99902 9s2.33398 9.66699 5.00098 15c4 6.66699 8 13 12 19s8 12.333 12 19c-1.33301 0 -4.66602 -1.33301 -9.99902 -4
c-8 -2.66699 -13 -2 -15 2s-1 9.33301 3 16c2.66699 5.33301 7.33398 9 14.001 11c-4 -9.33301 -4.66699 -14.333 -2 -15c2.66699 -4 7.66699 -5 15 -3s13 3.66699 17 5h7c2 0 1.66699 -2 -1 -6c-2.66699 -2.66699 -5.33398 -6 -8.00098 -10s-4.66699 -8 -6 -12
c-5.33301 -8 -9 -15.333 -11 -22s-1 -10 3 -10c8 0 16.333 8 25 24s12.334 28 11.001 36c0 2.66699 -2 5.33398 -6 8.00098c5.33301 0 9.33301 -1.33301 12 -4c6.66699 10.667 15.834 16.167 27.501 16.5s18.167 -7.16699 19.5 -22.5c-5.33301 6.66699 -12.666 8 -21.999 4
c-4 -2.66699 -6.66699 -7.33398 -8 -14.001s-1.33301 -12.667 0 -18c0 -4 0.333008 -7.66699 1 -11s1 -7 1 -11c2.66699 0 4.66699 -0.333008 6 -1s3.33301 -1 6 -1c0 4 1.33301 8.66699 4 14c-1.33301 1.33301 -2.66602 2.33301 -3.99902 3
s-2.66602 2.33398 -3.99902 5.00098c1.33301 0 3 -0.333008 5 -1s4.33301 0.333008 7 3c4 9.33301 8.66699 18.833 14 28.5l16 30.5c-16 -1.33301 -30.667 1 -44 7s-18 17.667 -14 35c0 -14.667 6.66699 -23.667 20 -27s27.333 -3.66602 42 -0.999023
c2.66699 8 4 13.333 4 16c2.66699 10.667 2 18.667 -2 24c12 -8 20 -15.333 24 -22c0 -2.66699 0.333008 -4.33398 1 -5.00098s1 -2.33398 1 -5.00098c22.667 9.33301 46.5 18 71.5 26s51.5 8 79.5 0c28 -9.33301 45.333 -23.333 52 -42c-13.333 22.667 -36 34 -68 34
c-26.667 1.33301 -51.167 -2.66699 -73.5 -12s-44.833 -17.333 -67.5 -24l-2 -2c-5.33301 -10.667 -10 -20.834 -14 -30.501s-8.66699 -19.834 -14 -30.501c-2.66699 -6.66699 -4.66699 -12.667 -6 -18s-0.666016 -8 2.00098 -8c5.33301 0 11 3.33301 17 10s11 14 15 22
c0 2.66699 0.666992 5.33398 2 8.00098l4 8v12c-1.33301 2.66699 -3.33301 5.33398 -6 8.00098c6.66699 0 11.334 -2 14.001 -6c6.66699 9.33301 14.334 18.166 23.001 26.499s17.667 11.166 27 8.49902s13 -11.5 11 -26.5s-6.33301 -25.833 -13 -32.5
c-10.667 -12 -22.667 -16 -36 -12c8 0 16.667 6.66699 26 20c4 4 7.33301 9.33301 10 16c2.66699 8 4.33398 14.833 5.00098 20.5s-4.33301 2.5 -15 -9.5c-6.66699 -6.66699 -13 -15.167 -19 -25.5s-10.333 -20.833 -13 -31.5c-1.33301 -10.667 1.33398 -15 8.00098 -13
s12 4.33301 16 7s9.33301 7.33398 16 14.001c8 9.33301 14.5 20.5 19.5 33.5s4.5 24.833 -1.5 35.5c5.33301 0 9 -1.33301 11 -4c10.667 10.667 23.334 14.667 38.001 12c-6.66699 -2.66699 -12.334 -7 -17.001 -13s-5.66699 -10.333 -3 -13s7.66699 -3.33398 15 -2.00098
s18.333 8.66602 33 21.999c4 0 5.33301 -1.33301 4 -4c-2.66699 -2.66699 -8.66699 -9.16699 -18 -19.5s-15.333 -17.5 -18 -21.5c-4 -6.66699 -8 -15 -12 -25s-2.66699 -15.667 4 -17c6.66699 -2.66699 13.667 -1.33398 21 3.99902l19 14c16 16 22.667 30 20 42
c-1.33301 5.33301 -6.66602 7.66602 -15.999 6.99902c10.667 6.66699 18.667 8.33398 24 5.00098s6.66602 -9.33301 3.99902 -18c-2.66699 -10.667 -8.66699 -20.334 -18 -29.001s-19.333 -16.334 -30 -23.001c20 4 40 2 60 -6c1.33301 1.33301 2 4 2 8
c1.33301 6.66699 0 11.334 -4 14.001c8 1.33301 14.667 -1 20 -7s6 -14.333 2 -25l18 -18c8 -13.333 12.333 -27 13 -41s-2 -27.167 -8 -39.5s-15.333 -23.166 -28 -32.499s-27.667 -16 -45 -20c-6.66699 -2.66699 -15.334 -3.66699 -26.001 -3s-21.334 1.66699 -32.001 3
c-17.333 2.66699 -33.5 8 -48.5 16s-30.5 15.333 -46.5 22c-9.33301 4 -19 7.66699 -29 11s-20.333 1.66602 -31 -5.00098c0 -1.33301 -0.333008 -2 -1 -2s-1 -0.666992 -1 -2c-2.66699 -10.667 -5.33398 -18.667 -8.00098 -24c-2.66699 -8 -2 -15.333 2 -22
c0 -1.33301 0.666992 -2.66602 2 -3.99902c46.667 5.33301 89.167 4.66602 127.5 -2.00098s64.166 -26 77.499 -58c-10.667 18.667 -27.834 31.667 -51.501 39s-50.5 10.333 -80.5 9s-61.167 -5 -93.5 -11s-63.833 -12.667 -94.5 -20s-58.5 -14.333 -83.5 -21
s-44.167 -10 -57.5 -10c-38.667 0 -71.5 7.66699 -98.5 23s-41.833 44.333 -44.5 87c5.33301 -36 21.166 -60 47.499 -72s57.5 -16.667 93.5 -14c21.333 1.33301 55.833 8 103.5 20s97.167 21.333 148.5 28c-5.33301 2.66699 -12 6.66699 -20 12
c-2.66699 2.66699 -4 6.66699 -4 12c-6.66699 -8 -14.5 -15 -23.5 -21s-18.167 -9 -27.5 -9h-6c-12 5.33301 -16 16.666 -12 33.999l-14 -14l-10 -10c-10.667 -8 -18.334 -12 -23.001 -12s-8.33398 1.33301 -11.001 4c-5.33301 6.66699 -4.66602 16 2.00098 28
c4 10.667 9.33301 20.667 16 30c-1.33301 0 -3.33301 1.33301 -6 4c0 2.66699 0.666992 5.66699 2 9c0 -2.66699 2 -3.66699 6 -3c2.66699 0 4.66699 1 6 3c1.33301 2.66699 2 5.33398 2 8.00098c-2.66699 2.66699 -6.33398 2.33398 -11.001 -0.999023
s-7.66699 -5.66602 -9 -6.99902c-1.33301 0 -2 -0.333008 -2 -1c-2.66699 -1.33301 -5.33398 -3.33301 -8.00098 -6l-10 -20c-4 -8 -6.66699 -14.667 -8 -20c-2.66699 -6.66699 -4.66699 -13.667 -6 -21s0.666992 -13 6 -17c-4 2.66699 -7 4 -9 4s-4.33301 0.666992 -7 2
s-6 4 -10 8c-2.66699 4 -2.66699 10.667 0 20c-6.66699 -9.33301 -14.334 -16.666 -23.001 -21.999c-5.33301 -4 -13.666 -8.66699 -24.999 -14s-23.333 -9.33301 -36 -12s-24 -2.66699 -34 0s-16.333 10 -19 22c-1.33301 1.33301 -2 3.33301 -2 6
c-5.33301 -2.66699 -10 0 -14 8c1.33301 -1.33301 4 -1.66602 8 -0.999023s8 5 12 13c2.66699 8 6.33398 15.333 11.001 22l13 18l4 4c-13.333 2.66699 -22 5.66699 -26 9c-10.667 12 -11 21.667 -1 29s19.667 7.66602 29 0.999023
c-6.66699 -1.33301 -12 -4.66602 -16 -9.99902s-4 -10.666 0 -15.999c2.66699 -4 9.33398 -6.33301 20.001 -7c13.333 14.667 28.666 28.167 45.999 40.5s36.333 19.833 57 22.5c6.66699 1.33301 12.667 0.666016 18 -2.00098s5.33301 -9.33398 0 -20.001
c-6.66699 -16 -21.834 -27.833 -45.501 -35.5s-42.834 -11.5 -57.501 -11.5l-11 -17c-4.66699 -7.33301 -8.66699 -14.666 -12 -21.999s-5.33301 -14.666 -6 -21.999s1.66602 -13 6.99902 -17c6.66699 -5.33301 14.334 -7 23.001 -5s17.667 5.66699 27 11
s17.333 11.666 24 18.999s11.334 13 14.001 17c2.66699 6.66699 4.33398 13.334 5.00098 20.001s-4.33301 11.334 -15 14.001c6.66699 5.33301 13.834 7 21.501 5s12.167 -6.33301 13.5 -13c0 -1.33301 0.666992 -2.66602 2 -3.99902
c2.66699 6.66699 5.33398 12.5 8.00098 17.5s5.33398 8.83301 8.00098 11.5s4.33398 5.66699 5.00098 9s2.33398 6.33301 5.00098 9c-2.66699 0 -6 2 -10 6h9c3.33301 0 7 4.66699 11 14c0 2.66699 0.666992 4 2 4c2.66699 5.33301 4 10 4 14
c2.66699 6.66699 2.66699 12 0 16c-13.333 -5.33301 -23.333 -8 -30 -8c-6.66699 2.66699 -9 7.66699 -7 15s4.33301 13 7 17c2.66699 2.66699 4.33398 5.66699 5.00098 9s2.33398 6.33301 5.00098 9c-10.667 -12 -20.667 -22 -30 -30c-16 -12 -24.5 -12.667 -25.5 -2
s-0.166992 24 2.5 40c-4 -10.667 -10 -20.667 -18 -30c-21.333 -32 -49.333 -52 -84 -60c-12 -4 -23.333 -6 -34 -6c-33.333 0 -57.833 11.333 -73.5 34s-18.167 47.334 -7.5 74.001zM275.986 238.993h12l4 -20l6 20h10l6 -20l6 20h8v-4l-8 -28h-10l-6 20l-6 -20h-10z
M327.986 234.993l2 4h8l4 -20l8 20h8l8 -20l4 20h8l2 -4l-10 -28h-10l-6 20l-6 -20h-10zM357.986 425.993c14.667 2.66699 29.333 6.16602 44 10.499s25.667 13.833 33 28.5c4 10.667 4.5 16.334 1.5 17.001s-7.83301 -0.333008 -14.5 -3
c-12 -6.66699 -23.333 -14.667 -34 -24s-20.667 -19 -30 -29zM379.985 234.992v4h8l6 -20l6 20h10l6 -20l4 20h11l-11 -32h-10l-6 20l-6 -20h-10zM425.985 206.992v12h11v-12h-11zM440.985 206.992v31.999h12v-4l4 4h6h4l4 -4c2.66699 2.66699 4.66699 4 6 4h4
c4 0 6.66699 -0.666992 8 -2s2 -4.66602 2 -9.99902v-20h-10v18c0 1.33301 -0.333008 2 -1 2s-1 0.666992 -1 2l-2 2c-1.33301 0 -2 -0.333008 -2 -1s-0.666992 -1 -2 -1v-6v-16h-12v18v2c0 1.33301 -0.666992 2 -2 2c0 1.33301 -0.666992 2 -2 2s-2 -0.666992 -2 -2
c-1.33301 -1.33301 -2 -3.33301 -2 -6v-16h-12zM492.985 126.991c0 17.333 8.66699 26.001 26 26.001c12 0 22 -7.33301 30 -22c0 14.667 -3.66699 26.667 -11 36s-19 13.333 -35 12v6h92v-6c-32 0 -46.667 -16 -44 -48c6.66699 14.667 16.667 22 30 22
c16 0 23.667 -8.66699 23 -26c0 -8 -2 -14.667 -6 -20l-1 2v24l-14 -20l-24 8l14 -20l-14 -19l22 7h2l-2 -2c-8 -6.66699 -14.667 -13.167 -20 -19.5s-9.33301 -14.833 -12 -25.5c-2.66699 10.667 -7 20 -13 28s-13 15 -21 21c-6.66699 5.33301 -12 10.666 -16 15.999
s-6 12 -6 20zM494.985 206.992v32h12v-32h-12zM494.985 242.992v8h12v-8h-12zM508.985 216.992l12 -0.00195312c0 -1.33301 0.666992 -2 2 -2c0 -1.33301 0.666992 -2 2 -2c2.66699 0 4 0.666992 4 2l2 2l-2 2h-6c-2.66699 1.33301 -5.33398 2 -8.00098 2l-4 4v4v6
c2.66699 2.66699 4.66699 4 6 4h8h8l4 -2c0 -1.33301 0.333008 -2.33301 1 -3s1 -1.66699 1 -3h-10l-2 2h-4h-2v-2v-2h6c2.66699 -1.33301 5.33398 -2 8.00098 -2l4 -4c0 -1.33301 0.333008 -2.33301 1 -3s1 -1.66699 1 -3s-0.666992 -2.66602 -2 -3.99902
c-2.66699 -2.66699 -4.66699 -4 -6 -4c-1.33301 -1.33301 -4 -2 -8 -2c-6.66699 0 -10.667 0.666992 -12 2c-2.66699 2.66699 -4 5.33398 -4 8.00098zM522.985 480.99c13.333 -8 27.3311 -7.66895 41.998 0.998047s23.334 18.334 26.001 29.001c1.33301 2.66699 2 6 2 10
c-25.333 -1.33301 -44.666 -7.66602 -57.999 -18.999s-17.333 -18.333 -12 -21zM540.983 230.988v8h4v6l12 6v-12h6v-8h-6v-12v-2c0 -1.33301 0.666992 -2 2 -2h2l2 -8h-8h-6l-4 4v8v12h-4zM548.983 594.988c2.66699 6.66699 4 13.501 4 20.501s0.666992 14.5 2 22.5
c1.33301 -5.33301 2.33301 -10 3 -14s1.66699 -8.66699 3 -14c6.66699 9.33301 12.667 18.666 18 27.999s10.666 19.333 15.999 30l-7 -29l-7 -29l8 4l8 4c-2.66699 -2.66699 -5 -6 -7 -10s-4.33301 -7.33301 -7 -10c-1.33301 -2.66699 -3.33301 -3.66699 -6 -3
c-4 0 -7.66699 -0.333008 -11 -1s-7.66602 -1 -12.999 -1c-2.66699 0 -4 0.666992 -4 2zM548.983 645.989c0 4 1.33301 6 4 6s4 -2 4 -6s-1.33301 -6 -4 -6s-4 2 -4 6zM562.983 222.989c0 5.33301 1.33203 9.33203 3.99902 11.999s6.66699 4 12 4
s8.66602 -0.666992 9.99902 -2c1.33301 0 3.33301 -2 6 -6c1.33301 -1.33301 2 -4.66602 2 -9.99902v-2h-22l2 -4l4 -2l2 2c1.33301 0 2 0.666992 2 2l12 -2l-6 -6c-1.33301 -1.33301 -4.66602 -2 -9.99902 -2s-8.66602 0.666992 -9.99902 2c-2.66699 0 -4.66699 2 -6 6
c-1.33301 1.33301 -2 4 -2 8zM570.982 528.988c2.66699 1.33301 6.00098 2 10.001 2s8 0.666992 12 2c0 2.66699 -0.333008 6 -1 10s-1 8 -1 12c-2.66699 -2.66699 -4.33398 -4.66699 -5.00098 -6s-2.33398 -3.33301 -5.00098 -6
c-1.33301 -4 -4.66602 -8.66699 -9.99902 -14zM574.983 226.988h10v4c-1.33301 0 -2 0.333008 -2 1s-0.666992 1 -2 1s-2.33301 -0.333008 -3 -1s-1.66699 -1 -3 -1v-4zM596.983 619.988c-4 0 -3.99902 2.00098 0.000976562 6.00098c2 2.66699 3.66699 4 5 4
c1.33301 -1.33301 1.33301 -4 0 -8c-2.66699 -2.66699 -4.33398 -3.33398 -5.00098 -2.00098zM596.984 671.989c-4 2.66699 -4 6 0 10c0 5.33301 1.66699 8 5 8c1.33301 -2.66699 1.33301 -6.66699 0 -12c0.666992 -4 -1 -6 -5 -6zM597.984 206.989l-0.000976562 32h12v-6
c0 2.66699 0.333008 4 1 4s1 0.666992 1 2h4h6l-4 -10l-2 2c-1.33301 0 -2.66602 -0.666992 -3.99902 -2s-2 -5.33301 -2 -12v-10h-12zM619.983 222.989c0 4 0.667969 6.66895 2.00098 8.00195c0 1.33301 0.666992 2.66602 2 3.99902l4 4h10
c5.33301 0 8.66602 -0.666992 9.99902 -2c2.66699 -2.66699 4.66699 -5.33398 6 -8.00098l-12 -2v4h-4c-2.66699 0 -4.66699 -0.666992 -6 -2v-6v-6c1.33301 -1.33301 3.33301 -2 6 -2h4c0 1.33301 0.666992 2.66602 2 3.99902h10
c0 -1.33301 -0.666992 -2.66602 -2 -3.99902v-2c-2.66699 -2.66699 -4.66699 -4 -6 -4c-1.33301 -1.33301 -4 -2 -8 -2h-8l-4 4l-4 4c-1.33301 1.33301 -2 4 -2 8zM655.984 206.991l-0.000976562 43.999h10v-16c2.66699 2.66699 4.66699 4 6 4h4c4 0 6.66699 -0.666992 8 -2
s2 -4.66602 2 -9.99902v-20h-12v18v4l-2 2c-1.33301 0 -2.66602 -0.666992 -3.99902 -2c0 -1.33301 -0.333008 -2.33301 -1 -3s-1 -1.66699 -1 -3v-16h-10zM687.983 222.99c0 5.33301 1.99805 9.33105 5.99805 11.998c1.33301 2.66699 5.33301 4 12 4
c4 0 7.33301 -0.666992 10 -2c2.66699 0 4 -2 4 -6c1.33301 -1.33301 2 -4.66602 2 -9.99902v-2h-22l2 -4l4 -2c1.33301 0 2 0.666992 2 2c1.33301 0 2 0.666992 2 2l12 -2l-6 -6c-1.33301 -1.33301 -4.66602 -2 -9.99902 -2s-8.66602 0.666992 -9.99902 2
c-2.66699 0 -4 2 -4 6c-2.66699 2.66699 -4 5.33398 -4 8.00098zM699.981 226.988h11.999c-1.33301 1.33301 -2 2.66602 -2 3.99902c-1.33301 0 -2 0.333008 -2 1s-0.666992 1 -2 1s-2.66602 -0.666992 -3.99902 -2s-2 -2.66602 -2 -3.99902zM723.98 206.988v44h12v-22l8 10
h14l-10 -12l12 -20h-14l-6 12l-4 -4v-8h-12zM759.98 206.988v12h11v-12h-11zM774.98 206.988v32h10v-6c1.33301 2.66699 2.66602 4.66699 3.99902 6h4h4l-2 -10c-1.33301 1.33301 -2.66602 2 -3.99902 2s-2 -0.333008 -2 -1s-0.666992 -1 -2 -1
c0 -1.33301 -0.333008 -3 -1 -5s-1 -4.33301 -1 -7v-10h-10zM798.98 218.988v20h10v-18c0 -1.33301 0.666992 -2.66602 2 -3.99902h2h4c0 1.33301 0.333008 2.33301 1 3s1 1.66699 1 3v16h10v-32h-10v6l-4 -4c-1.33301 -1.33301 -3.33301 -2 -6 -2
c-4 0 -6.66699 0.666992 -8 2s-2 4.66602 -2 9.99902zM816.98 440.988c5.33301 2.66699 10.668 4 16.001 4c2.66699 0 5 -0.333008 7 -1s4.33301 -1 7 -1c1.33301 2.66699 2.66602 6 3.99902 10s3.33301 8 6 12l10 20c4 8 8 16.667 12 26
c-10.667 -10.667 -23 -20.667 -37 -30s-22.333 -22 -25 -38v-2zM910.982 377.988c21.333 14.667 35.498 34.5 42.498 59.5s2.5 47.5 -13.5 67.5c17.333 -8 27.333 -18.333 30 -31s1.33398 -25.167 -3.99902 -37.5s-13.166 -23.833 -23.499 -34.5s-20.833 -18.667 -31.5 -24z
M918.98 375.988c14.667 6.66699 25.5 13.002 32.5 19.002s16.5 18.667 28.5 38c4 -9.33301 4.33301 -16.833 1 -22.5s-8.33301 -10.834 -15 -15.501s-14.167 -8.33398 -22.5 -11.001z" />
    <glyph glyph-name="dollar" unicode="$" horiz-adv-x="580" 
d="M-20 -44c12 16 27.667 33.665 47 52.998s37.833 39.833 55.5 61.5s32.167 43.5 43.5 65.5s15 44.333 11 67c-2.66699 16 -9.33398 30.5 -20.001 43.5s-23.5 23.5 -38.5 31.5s-31.167 13.333 -48.5 16s-32.666 0.666992 -45.999 -6c18.667 24 41.5 39.667 68.5 47
s54.5 8.33301 82.5 3s54.333 -15.333 79 -30s42.667 -31.334 54 -50.001c20 -29.333 31 -60.166 33 -92.499s-5.66699 -61.5 -23 -87.5c25.333 -10.667 48.666 -21.334 69.999 -32.001s47.333 -19.334 78 -26.001c20 2.66699 36.5 6 49.5 10s24.833 8.66699 35.5 14
c-6.66699 28 -22.334 57.5 -47.001 88.5s-54.5 63.667 -89.5 98l-111 105.5c-39 36 -75.5 73.167 -109.5 111.5s-62.5 77.666 -85.5 117.999s-36.5 81.166 -40.5 122.499c0 6.66699 -0.333008 12.334 -1 17.001s-1 10.334 -1 17.001
c-5.33301 9.33301 -20.666 17.333 -45.999 24c42.667 2.66699 79.834 10.834 111.501 24.501s62.834 33.167 93.501 58.5v215h46v-173c6.66699 6.66699 13.5 14 20.5 22s14.5 16 22.5 24c12 -16 26.667 -32 44 -48s35.333 -31.333 54 -46v221h46v-251
c29.333 -17.333 57.166 -28.166 83.499 -32.499s46.833 1.83398 61.5 18.501c-9.33301 -16 -24 -31.667 -44 -47c-26.667 -32 -47.667 -69.167 -63 -111.5s-15.666 -88.833 -0.999023 -139.5c-62 33.333 -107.333 69.5 -136 108.5s-35.667 81.167 -21 126.5
c-26.667 12 -53.667 28.667 -81 50l-12 -10v-37c0 -11.333 2 -23.666 6 -36.999c13.333 -40 35.166 -76.5 65.499 -109.5s63 -64.833 98 -95.5l104.5 -88.5c34.667 -28.333 63.5 -58 86.5 -89s37.833 -63.5 44.5 -97.5s-1 -71.667 -23 -113
c-18.667 -34.667 -42.667 -66.5 -72 -95.5s-61.666 -52.167 -96.999 -69.5v-212h-46v197c-2.66699 -1.33301 -6 -2.33301 -10 -3s-7.33301 -1.66699 -10 -3c-20 2.66699 -40.333 7.16699 -61 13.5s-40.667 13.5 -60 21.5v-226h-46v244
c-18.667 6.66699 -36.334 12.334 -53.001 17.001s-32.667 7.66699 -48 9c-28 -1.33301 -48.667 -3.33301 -62 -6s-27.333 -9.33398 -42 -20.001z" />
    <glyph glyph-name="percent" unicode="%" horiz-adv-x="709" 
d="M34 93c5.33301 -12 16.6699 -19 34.0029 -21c10.667 -1.33301 21.167 -1.33301 31.5 0s20.833 3.33301 31.5 6c4 2.66699 8 4.5 12 5.5s6.66699 2.83301 8 5.5c20 36 41.667 77.833 65 125.5s46.5 98 69.5 151l68.5 164l64.5 164l56.5 148.5l44 118
c-16 -2.66699 -31.667 -4 -47 -4s-29.666 3.33301 -42.999 10c-14.667 8 -24.334 29.333 -29.001 64c9.33301 -8 22.166 -10.667 38.499 -8s34.166 7.66699 53.499 15l56 22c18 7.33301 33 11 45 11c18.667 -6.66699 35.5 -19.667 50.5 -39s16.5 -45.666 4.5 -78.999l-2 2v2
h-2c-6.66699 9.33301 -15.334 13.666 -26.001 12.999s-19.667 -5 -27 -13l-54 -125l-68 -156.5l-72.5 -172l-69.5 -168l-58.5 -145.5c-17 -44 -29.5 -78.667 -37.5 -104c2.66699 0 6 -0.5 10 -1.5s7.33301 -2.16699 10 -3.5c8 -5.33301 14.167 -12.666 18.5 -21.999
s7.83301 -23.333 10.5 -42c-8 8 -20.5 10.667 -37.5 8s-34.833 -7.66699 -53.5 -15l-55 -22c-18 -7.33301 -33 -11 -45 -11c-18.667 5.33301 -35.5 17.666 -50.5 36.999s-16.5 46 -4.5 80zM70.0039 730c0 103.333 56.333 195.333 169 276c98 -63.333 147 -145.333 147 -246
c0 -110 -54.333 -203.667 -163 -281c-102 62 -153 145.667 -153 251zM133.004 807c0 -79.333 45.667 -162.667 137 -250c16 14.667 31.333 43 46 85c2.66699 6.66699 4.66699 13.667 6 21s2 14.333 2 21c0 79.333 -43.667 160.333 -131 243c-20 -20 -37.333 -48.667 -52 -86
c-5.33301 -10.667 -8 -22 -8 -34zM360.004 238.999c0 102 57 193.999 171 275.999c96.667 -61.333 145 -143 145 -245c0 -111.333 -53.667 -204.666 -161 -279.999c-103.333 60.667 -155 143.667 -155 249zM426.004 315.998c0 -79.333 45.667 -162.666 137 -249.999
c12 14.667 26.333 43.667 43 87c5.33301 12 8 26 8 42c0 80.667 -43.667 160.667 -131 240c-20 -18.667 -37.333 -46.334 -52 -83.001c-4 -8 -5.66699 -20 -5 -36z" />
    <glyph glyph-name="ampersand" unicode="&#x26;" horiz-adv-x="797" 
d="M2 119c0 147.333 70.9932 290.671 212.993 430.004l-44 84.5l-44 86.5c-8 17.333 -12.667 34.5 -14 51.5s-2.66602 33.167 -3.99902 48.5s-5.66602 28.666 -12.999 39.999s-20.666 20.333 -39.999 27c62 5.33301 115.167 25.5 159.5 60.5s91.166 85.833 140.499 152.5
c20 -30.667 43.833 -60.334 71.5 -89.001s55.834 -52.5 84.501 -71.5s55.5 -30.5 80.5 -34.5s44.833 4 59.5 24c-14.667 -30.667 -34.5 -55.667 -59.5 -75s-53.167 -30.666 -84.5 -33.999s-65.166 2 -101.499 16s-73.166 38.333 -110.499 73l-12 -10
c0 -26.667 1.66699 -50.334 5 -71.001s8 -40.5 14 -59.5s13.667 -38.167 23 -57.5l30 -65l30 -57c80.667 112.667 151.334 169 212.001 169c45.333 0 80.666 -26.667 105.999 -80c18.667 -44 28 -93.667 28 -149c0 -92.667 -21.333 -185.334 -64 -278.001
c-6.66699 -17.333 -14 -34.333 -22 -51s-17.333 -33.667 -28 -51l24 -44c9.33301 -18.667 22.333 -40.5 39 -65.5s35.834 -48.5 57.501 -70.5s46.167 -38.833 73.5 -50.5s57 -12.5 89 -2.5c-67.333 -56 -131 -81.833 -191 -77.5s-111.667 29.833 -155 76.5
c-8 -14.667 -18 -29.334 -30 -44.001s-26.667 -28 -44 -40c14.667 22.667 23 46.834 25 72.501s-0.333008 49.834 -7 72.501c-16 -18.667 -32.167 -35.834 -48.5 -51.501s-33.166 -30.167 -50.499 -43.5c-52 -37.333 -104.333 -56 -157 -56c-70 0 -127.667 28.667 -173 86
c-45.333 59.333 -68 128.666 -68 207.999zM158.993 262.005c0 -71.333 17.333 -138 52 -200c37.333 -67.333 86.333 -101.333 147 -102c43.333 0 85 20.667 125 62l-147 292v-36c0 -36 2.66699 -69.833 8 -101.5s13.333 -61.5 24 -89.5
c-10.667 -2.66699 -18 -3.66699 -22 -3c-54.667 0 -82 41 -82 123c0 48 9.33301 110.333 28 187l-59 117c-24 -38.667 -42.333 -78.167 -55 -118.5s-19 -83.833 -19 -130.5zM401.993 555.005l200 -370c34.667 66.667 52 139 52 217c0 56 -9.33301 107.667 -28 155
c-24 58 -57.667 87 -101 87c-38.667 0 -79.667 -29.667 -123 -89z" />
    <glyph glyph-name="quotesingle" unicode="'" horiz-adv-x="178" 
d="M8 1161c0 13.333 11.999 39.9961 35.999 79.9961c26.667 26.667 50.334 33.334 71.001 20.001c41.333 -25.333 62 -54.666 62 -87.999c0 -9.33301 -1.33301 -20.666 -4 -33.999c-8 -22.667 -24.667 -55 -50 -97c-30.667 -48 -51.667 -70 -63 -66
c18.667 38.667 22.667 70.667 12 96c-20 10.667 -36.667 24.334 -50 41.001c-9.33301 13.333 -14 29.333 -14 48z" />
    <glyph glyph-name="parenleft" unicode="(" horiz-adv-x="284" 
d="M12 626c0 181.333 27.668 399.335 83.001 654.002c5.33301 22.667 26.666 49.667 63.999 81s78.333 55.666 123 72.999c-56.667 -52 -88.334 -104.333 -95.001 -157c-24 -213.333 -36 -432.333 -36 -657c0 -225.333 12 -440 36 -644
c6.66699 -52.667 38.334 -105 95.001 -157c-45.333 17.333 -86.5 41.166 -123.5 71.499s-58.167 57.5 -63.5 81.5c-56 253.333 -83.667 471.333 -83 654z" />
    <glyph glyph-name="parenright" unicode=")" horiz-adv-x="284" 
d="M12 -181c56 49.333 87 101.667 93 157c24 201.333 36 414 36 638c0 225.333 -12 446.333 -36 663c-6.66699 54.667 -37.667 106.334 -93 155.001c44 -16 84.5 -39.667 121.5 -71s58.167 -58.333 63.5 -81c56.667 -254.667 85 -472.667 85 -654
c0 -182.667 -28.333 -401.334 -85 -656.001c-5.33301 -22.667 -26.5 -49.5 -63.5 -80.5s-77.5 -54.5 -121.5 -70.5z" />
    <glyph glyph-name="asterisk" unicode="*" horiz-adv-x="427" 
d="M24 1155c14.667 33.333 32.168 55.3291 52.501 65.9961s43.166 15.334 68.499 14.001c-12 16 -25.167 29.5 -39.5 40.5s-31.5 16.5 -51.5 16.5c33.333 12 59.833 17.333 79.5 16s36.834 -7.33301 51.501 -18c4 -2.66699 7.66699 -5.5 11 -8.5s6.33301 -5.83301 9 -8.5
c2.66699 20 3 38.833 1 56.5s-10.333 33.834 -25 48.501c32 -14.667 54.5 -29.667 67.5 -45s20.833 -31.666 23.5 -48.999c1.33301 -4 2 -8.16699 2 -12.5v-12.5c16 12 29.667 25.167 41 39.5s17 30.833 17 49.5c12 -33.333 17.333 -59.833 16 -79.5
s-7.33301 -36.167 -18 -49.5c-4 -5.33301 -10 -12 -18 -20c20 -4 39 -4.66699 57 -2s34.333 11.334 49 26.001c-14.667 -32 -29.667 -55 -45 -69s-31.666 -22.333 -48.999 -25c-16 -1.33301 -33.333 0 -52 4c9.33301 -18.667 22 -34.167 38 -46.5s39.333 -20.5 70 -24.5
c-38.667 -16 -69.834 -18 -93.501 -6s-44.834 29.667 -63.501 53c-6.66699 -18.667 -8.66699 -38.167 -6 -58.5s13.334 -42.5 32.001 -66.5c-38.667 16 -62.334 36.667 -71.001 62s-11 53 -7 83c-17.333 -9.33301 -32.333 -21.5 -45 -36.5s-21 -37.833 -25 -68.5
c-16 38.667 -18 69.5 -6 92.5s30 43.833 54 62.5c-18.667 6.66699 -38.167 9 -58.5 7s-42.5 -12.333 -66.5 -31z" />
    <glyph glyph-name="plus" unicode="+" horiz-adv-x="524" 
d="M20 523l69 123h114v120l127 65c-10.667 -24 -16 -51 -16 -81v-104h104c30 0 57 5.33301 81 16l-66 -129h-119v-111l-123 -70c8 32 12 63 12 93v88h-90c-29.333 0 -60.333 -3.33301 -93 -10z" />
    <glyph glyph-name="comma" unicode="," horiz-adv-x="178" 
d="M8 38c0 14.667 12 55.002 36 121.002c26.667 0 50.334 -6.66699 71.001 -20c41.333 -25.333 62 -54.333 62 -87c0 -10.667 -1.33301 -22 -4 -34c-8 -22.667 -24.667 -55.334 -50 -98.001c-30.667 -48 -51.667 -69.667 -63 -65c18.667 37.333 22.667 69 12 95
c-18.667 9.33301 -35.334 23.333 -50.001 42c-9.33301 13.333 -14 28.666 -14 45.999z" />
    <glyph glyph-name="hyphen" unicode="-" 
d="M44 595c-1.33301 52 9.5 93.5 32.5 124.5s49.833 44.5 80.5 40.5c20 1.33301 67.167 -6.66699 141.5 -24s123.166 -27.333 146.499 -30c46.667 -1.33301 74.667 19.334 84 62.001c-1.33301 -50.667 -12.333 -91.834 -33 -123.501s-46.667 -47.5 -78 -47.5
c-20 2.66699 -68.167 13.167 -144.5 31.5s-126.5 27.5 -150.5 27.5c-41.333 1.33301 -67.666 -19 -78.999 -61z" />
    <glyph glyph-name="period" unicode="." horiz-adv-x="180" 
d="M8 44c0 14.667 12.001 34.332 36.001 58.999c21.333 17.333 45 24 71 20c42.667 -13.333 64 -35.666 64 -66.999c0 -16 -2 -36 -6 -60c-8 -22.667 -16.667 -38.667 -26 -48c-56.667 -2.66699 -98.334 13.333 -125.001 48c-9.33301 13.333 -14 29.333 -14 48z" />
    <glyph glyph-name="colon" unicode=":" horiz-adv-x="180" 
d="M8 58c0 14.667 12.001 41.0029 36.001 79.0029c28 26.667 51.667 34 71 22c42.667 -26.667 64 -56.334 64 -89.001c0 -14.667 -5.33301 -33.334 -16 -56.001c-14.667 -24 -22 -36.667 -22 -38c-54.667 -10.667 -94.334 0.666016 -119.001 33.999
c-9.33301 13.333 -14 29.333 -14 48zM8.00098 302.003c0 14.667 12.001 42.001 36.001 82.001c28 26.667 51.667 33.334 71 20.001c42.667 -26.667 64 -56.667 64 -90c0 -14.667 -5.33301 -33.334 -16 -56.001c-14.667 -22 -22 -34.333 -22 -37
c-54.667 -10.667 -94.334 1 -119.001 35c-9.33301 13.333 -14 28.666 -14 45.999z" />
    <glyph glyph-name="semicolon" unicode=";" horiz-adv-x="182" 
d="M8 290c0 14.667 12 41.3311 36 79.998c28 26.667 51.667 33.334 71 20.001c41.333 -25.333 62 -54.666 62 -87.999c0 -14.667 -4.66699 -33 -14 -55c-14.667 -9.33301 -22 -15.333 -22 -18c-53.333 -24 -93 -18.667 -119 16c-9.33301 13.333 -14 28.333 -14 45z
M10 49.9971c0 13.333 12 39.667 36 79c28 26.667 51.667 34 71 22c41.333 -26.667 62 -56.334 62 -89.001c0 -9.33301 -1.33301 -20.666 -4 -33.999c-8 -22.667 -24.667 -55.334 -50 -98.001c-30.667 -48 -51.667 -69.667 -63 -65c18.667 38.667 22.667 70.334 12 95.001
c-20 10.667 -36.667 24.667 -50 42c-9.33301 13.333 -14 29.333 -14 48z" />
    <glyph glyph-name="less" unicode="&#x3c;" horiz-adv-x="670" 
d="M24 636c60.667 42.667 150 109.668 268 201.001c192 159.333 306.667 261.333 344 306v-93c0 -66 -15.667 -111 -47 -135c-126 -99.333 -262.667 -193 -410 -281c107.333 -62 246 -156.667 416 -284c28 -18.667 41.667 -62.334 41 -131.001v-94
c-34.667 46.667 -148.667 150 -342 310c-122 95.333 -212 162.333 -270 201z" />
    <glyph glyph-name="equal" unicode="=" horiz-adv-x="534" 
d="M-696 1010c42.667 59.333 89.1709 102.001 139.504 128.001s97.166 42.333 140.499 49c29.333 -2.66699 62.666 -9 99.999 -19s76.166 -22.5 116.499 -37.5l127 -48.5c44.333 -17.333 89.166 -34 134.499 -50c14.667 46.667 42.5 85.167 83.5 115.5
s97.167 44.833 168.5 43.5c-24 -8 -43.167 -20 -57.5 -36s-25.833 -33.833 -34.5 -53.5s-14.667 -39.834 -18 -60.501s-5 -39.667 -5 -57c40 -12 81 -22 123 -30c-4 18.667 -11.333 36 -22 52s-26.334 28 -47.001 36c32 0 60.333 -5.33301 85 -16
c14.667 49.333 42.834 89.5 84.501 120.5s98.5 45.833 170.5 44.5c-28 -9.33301 -49.667 -24 -65 -44s-27 -41.833 -35 -65.5s-12.667 -46.834 -14 -69.501s-2 -42 -2 -58v-10c37.333 4 71.166 13 101.499 27s56.833 35.667 79.5 65
c-18.667 -46.667 -43.167 -81.5 -73.5 -104.5s-66.166 -38.5 -107.499 -46.5v-706v-52c16 1.33301 28.667 -3 38 -13s16.666 -28 21.999 -54c-9.33301 8 -22.333 10.667 -39 8s-34.5 -7.66699 -53.5 -15l-55.5 -22c-18 -7.33301 -33 -11 -45 -11
c-18.667 5.33301 -35.667 17.5 -51 36.5s-17 45.833 -5 80.5c6.66699 -13.333 17 -20.666 31 -21.999s34.333 0 61 4c-14.667 2.66699 -26.667 8 -36 16s-14 20.667 -14 38v147c-2.66699 20 -7 37.333 -13 52s-17.667 24.667 -35 30c14.667 6.66699 30.667 10 48 10v471
c-42.667 5.33301 -86.334 13.333 -131.001 24v-728v-52c16 1.33301 28.667 -3 38 -13s16.333 -28 21 -54c-9.33301 8 -22.166 10.667 -38.499 8s-34.166 -7.66699 -53.499 -15l-55.5 -22c-17.667 -7.33301 -32.5 -11 -44.5 -11c-18.667 5.33301 -35.667 17.5 -51 36.5
s-17 45.833 -5 80.5c6.66699 -13.333 17 -20.666 31 -21.999s34 0 60 4c-14.667 2.66699 -26.5 8 -35.5 16s-13.5 20.667 -13.5 38v143c-2.66699 20 -7 38 -13 54s-18.333 26.667 -37 32c9.33301 4 18.333 6.66699 27 8s16.334 2 23.001 2v429
c0 18.667 -0.333008 36.667 -1 54s-0.333984 34.333 0.999023 51l-210.5 62c-70.333 21.333 -138.333 37.666 -204 48.999s-127 14.333 -184 9s-106.833 -24 -149.5 -56z" />
    <glyph glyph-name="greater" unicode="&#x3e;" horiz-adv-x="670" 
d="M32 125v93.999c0 68.667 14 112.334 42 131.001c170 127.333 308.333 222 415 284c-92.667 54.667 -155.667 92.667 -189 114c-134 98 -212.167 158.5 -234.5 181.5s-33.5 63.167 -33.5 120.5v93c37.333 -45.333 152 -147.333 344 -306
c118 -91.333 207.333 -158.333 268 -201c-56.667 -38.667 -146.667 -105.667 -270 -201c-193.333 -160.667 -307.333 -264 -342 -310z" />
    <glyph glyph-name="question" unicode="?" horiz-adv-x="1101" 
d="M46 535c14.667 0 28.833 3.66699 42.5 11s25.834 16.666 36.501 27.999s18.667 23.833 24 37.5s6.66602 27.834 3.99902 42.501c-1.33301 10.667 -3.66602 20 -6.99902 28s-7 15.333 -11 22h92h35l10 34c4 8 15.333 15.833 34 23.5s32 12.834 40 15.501
c32 10.667 65.5 18 100.5 22s69.167 6 102.5 6s67.5 -2 102.5 -6s68.5 -11.333 100.5 -22c8 -2.66699 21.167 -7.83398 39.5 -15.501s29.5 -15.5 33.5 -23.5l10 -34h36h93c-12 -16 -18.667 -32.667 -20 -50c-2.66699 -14.667 -1.33398 -28.834 3.99902 -42.501
s13.333 -26.167 24 -37.5s23 -20.666 37 -27.999s28.333 -11 43 -11c1.33301 -28 -2.66699 -58.833 -12 -92.5s-18 -60.5 -26 -80.5c-5.33301 -12 -12 -25.333 -20 -40s-17 -29 -27 -43s-21.167 -26.5 -33.5 -37.5s-25.166 -17.833 -38.499 -20.5l-38 -8v-38
c-1.33301 -9.33301 -1.33301 -18 0 -26h-4h-2h-2c-26.667 -2.66699 -51.167 -7.66699 -73.5 -15s-43.5 -21 -63.5 -41c-4 -2.66699 -7.66699 -5.83398 -11 -9.50098s-7 -7.5 -11 -11.5c-20 -21.333 -41.5 -36.666 -64.5 -45.999s-48.5 -16.666 -76.5 -21.999
c-28 5.33301 -53.333 12.666 -76 21.999s-44.334 24.666 -65.001 45.999c-4 4 -7.66699 7.83301 -11 11.5s-7 6.83398 -11 9.50098c-20 20 -41.333 33.667 -64 41s-47 12.333 -73 15h-2h-2h-4c1.33301 5.33301 2 14 2 26l-2 38l-38 8c-13.333 2.66699 -26.333 9.5 -39 20.5
s-24 23.5 -34 37.5s-19 28.333 -27 43s-14.333 28 -19 40c-8 20 -16.667 46.833 -26 80.5s-13.333 64.5 -12 92.5zM57.999 525c0 -10.667 0.672852 -21 2.00586 -31s3.33301 -20.333 6 -31c2.66699 -16 6.5 -32.167 11.5 -48.5s10.833 -31.833 17.5 -46.5
c9.33301 -22.667 24 -49.167 44 -79.5s42.667 -48.833 68 -55.5l46 -10l2 -48v-14c26.667 -2.66699 51.5 -8 74.5 -16s44.5 -22 64.5 -42l24 -23c18.667 -20 38.5 -34 59.5 -42s44.833 -14.667 71.5 -20c26.667 5.33301 50.5 12 71.5 20s40.833 22 59.5 42l24 23
c21.333 20 43.166 34 65.499 42s46.833 13.333 73.5 16v14l2 48l46 10c25.333 6.66699 47.833 25.167 67.5 55.5s34.167 56.833 43.5 79.5c6.66699 14.667 12.667 30.167 18 46.5s9.33301 32.5 12 48.5c2.66699 10.667 4.66699 21 6 31s2 20.333 2 31
c-13.333 1.33301 -25.666 5 -36.999 11s-22.333 13.667 -33 23c-13.333 12 -23.5 26.5 -30.5 43.5s-9.16699 34.833 -6.5 53.5c1.33301 6.66699 2.66602 12.667 3.99902 18s3 11.333 5 18h-71h-44l-14 42c-2.66699 2.66699 -7.33398 5.66699 -14.001 9
s-11.334 6.33301 -14.001 9c-9.33301 5.33301 -21.666 10 -36.999 14c-30.667 10.667 -63.334 17.5 -98.001 20.5s-68.334 4.5 -101.001 4.5c-33.333 0 -67.166 -1.66699 -101.499 -5s-66.833 -10 -97.5 -20c-6.66699 -2.66699 -13 -5 -19 -7s-12.333 -4.33301 -19 -7
c-2.66699 -2.66699 -7.33398 -5.66699 -14.001 -9s-11.334 -6.33301 -14.001 -9l-14 -42h-43h-72c2.66699 -6.66699 4.66699 -12.667 6 -18s2.66602 -11.333 3.99902 -18c1.33301 -8 1.33301 -16 0 -24c-2.66699 -26.667 -14.667 -50.5 -36 -71.5s-45 -32.833 -71 -35.5z
M157.005 505c14.667 -18.667 26.332 -30 34.999 -34s20.334 -8 35.001 -12c-16 1.33301 -32.667 4.33301 -50 9s-24 17 -20 37zM158.003 546c0.666992 12.667 8.99902 24.333 24.999 35c-13.333 -22.667 -13.666 -45.667 -0.999023 -69s30.334 -40.333 53.001 -51
c-10.667 4 -22.334 10.333 -35.001 19s-23 18.667 -31 30s-11.667 23.333 -11 36zM199.002 568.999c5.33301 13.333 13.9844 22.9941 25.9844 28.9941c21.333 14.667 44.5 19.667 69.5 15s42.833 -19.334 53.5 -44.001c-13.333 14.667 -30 23.834 -50 27.501
s-39 1.83398 -57 -5.49902c-26.667 -12 -40.334 -29.333 -41.001 -52s9 -40.667 29 -54c8 -6.66699 16.5 -11 25.5 -13s18.833 -2.33301 29.5 -1c26.667 2.66699 48.334 13 65.001 31s30.334 37.667 41.001 59c10.667 18.667 18.667 36.834 24 54.501s4 29.167 -4 34.5
c5.33301 0 10.833 -1.33301 16.5 -4s9.83398 -7.33398 12.501 -14.001c6.66699 10.667 14.667 18 24 22s17.333 4.66699 24 2c-8 1.33301 -15 -1.33398 -21 -8.00098s-11.667 -15 -17 -25s-9.66602 -20.833 -12.999 -32.5s-6.33301 -22.834 -9 -33.501
c-4 -18.667 -1 -26 9 -22s20.667 12.667 32 26s19.666 27.166 24.999 41.499s0.666016 22.166 -14.001 23.499c9.33301 6.66699 17 7.66699 23 3s7.66699 -11 5 -19c-1.33301 -1.33301 -2 -2.66602 -2 -3.99902s-0.666992 -3.33301 -2 -6l10 2
c8 2.66699 12 3.33398 12 2.00098s-2 -5 -6 -11l-14 -29l-14 -29c-5.33301 -10.667 -6 -16.667 -2 -18c8 -4 15 0.333008 21 13s5.66699 23 -1 31c14.667 -4 19 -12 13 -24s-15.667 -21.333 -29 -28c13.333 -9.33301 16.666 -24 9.99902 -44
c-1.33301 -2.66699 -2 -4.66699 -2 -6s-1.33301 -3.33301 -4 -6c-1.33301 -2.66699 -2.66602 -5.66699 -3.99902 -9s-2.66602 -6.33301 -3.99902 -9c10.667 8 22 13.333 34 16c8 2.66699 13.333 2 16 -2s0.666992 -10.667 -6 -20c0 -4 -2 -5.66699 -6 -5l-13 -23
c-3.33301 -6 -6.33301 -13 -9 -21c-2.66699 -6.66699 -2 -9.66699 2 -9s9.33301 3.66699 16 9c9.33301 10.667 18 23.334 26 38.001v2c5.33301 13.333 4 23 -4 29c6.66699 2.66699 11.334 1.33398 14.001 -3.99902c1.33301 -1.33301 2 -4.66602 2 -9.99902
c6.66699 8 14 15.333 22 22s15.667 8.66699 23 6c5.33301 -1.33301 8.66602 -4.66602 9.99902 -9.99902s1.66602 -11 0.999023 -17s-2.33398 -11.833 -5.00098 -17.5s-5.33398 -10.5 -8.00098 -14.5c-13.333 -13.333 -25 -18 -35 -14c8 1.33301 16.667 8.66602 26 21.999
c2.66699 2.66699 4.16699 5.33398 4.5 8.00098s1.83301 5 4.5 7c2.66699 8 4 15 4 21s-5 3 -15 -9c-6.66699 -6.66699 -13 -15.5 -19 -26.5s-9.66699 -21.833 -11 -32.5c-2.66699 -10.667 -0.333984 -15.334 6.99902 -14.001s13 3.33301 17 6
c5.33301 2.66699 9.83301 6.33398 13.5 11.001l11.5 15c1.33301 5.33301 4.66602 13.333 9.99902 24c4 14.667 3.33301 27.667 -2 39c8 -1.33301 12.667 -4 14 -8c0 -2.66699 0.666992 -4.66699 2 -6c2.66699 6.66699 5 13.334 7 20.001s4.33301 13.334 7 20.001
c0 9.33301 -2 15.333 -6 18c13.333 -2.66699 22 -8 26 -16c2.66699 -6.66699 1.33398 -16 -3.99902 -28c-6.66699 -10.667 -12 -21.334 -16 -32.001c5.33301 0 9.33301 0.666992 12 2c6.66699 5.33301 12.334 10.666 17.001 15.999s7 11.333 7 18c0 4 -2 7.33301 -6 10
c4 0 8.66699 -0.666992 14 -2s8 -5.33301 8 -12s-2.66699 -12.334 -8 -17.001s-10.666 -8.33398 -15.999 -11.001c9.33301 0 17.333 -0.666992 24 -2c8 -2.66699 15.667 -5.5 23 -8.5s14.333 -6.5 21 -10.5c16 -9.33301 31.833 -18 47.5 -26s36.167 -10.667 61.5 -8
c20 2.66699 36 9.33398 48 20.001s20 22.834 24 36.501s4 27.5 0 41.5s-12.667 25 -26 33l-11 -19c-3.33301 -6 -5.66602 -10.333 -6.99902 -13l-8 -21l-8 -21c2.66699 0 4.66699 -0.333008 6 -1s3.33301 -1 6 -1c6.66699 0 13.334 2 20.001 6c-8 0 -10.667 4 -8 12
c2.66699 9.33301 7.33398 14 14.001 14c8 -2.66699 10.667 -7.33398 8 -14.001v-2c-2.66699 -8 -8.33398 -14.167 -17.001 -18.5s-17 -6.5 -25 -6.5c-1.33301 0 -2.66602 0.333008 -3.99902 1s-2.66602 1 -3.99902 1v-2c-2.66699 -9.33301 -2.66699 -16 0 -20
c2.66699 -2.66699 6.66699 -5.33398 12 -8.00098c-20 2.66699 -30 13.667 -30 33c-12 4 -23.333 4.66699 -34 2c-6.66699 -1.33301 -11.667 -3.16602 -15 -5.49902s-6.33301 -4.83301 -9 -7.5c-2.66699 9.33301 -2 17 2 23c5.33301 14.667 15 26.334 29 35.001
s26.333 15.667 37 21c5.33301 2.66699 10 6 14 10l10 10c-1.33301 1.33301 -3.33301 2 -6 2c-20 5.33301 -41 3.66602 -63 -5.00098s-38 -22.334 -48 -41.001c2.66699 13.333 7.5 24.333 14.5 33s15.167 16.334 24.5 23.001c-2.66699 -1.33301 -6 -2 -10 -2
c-12 0 -19.667 4 -23 12c-4 -4 -8.66699 -2 -14 6c1.33301 -1.33301 3.66602 -2 6.99902 -2s6 3.33301 8 10c1.33301 1.33301 2 2.66602 2 3.99902h2c0 2.66699 0.666992 4.66699 2 6c2.66699 6.66699 6.33398 12.334 11.001 17.001l11 11
c-12 -5.33301 -20 -4.66602 -24 2.00098c-1.33301 -16 -9.16602 -32.333 -23.499 -49s-30.166 -25 -47.499 -25h-4c-9.33301 1.33301 -14 9.33301 -14 24c0 -1.33301 -1.33301 -3.33301 -4 -6l-8 -8c-2.66699 -2.66699 -6 -4.66699 -10 -6c25.333 -9.33301 44 -22 56 -38
s12 -32 0 -48c5.33301 9.33301 6 18.666 2 27.999s-11.333 17.666 -22 24.999s-23.334 13.333 -38.001 18s-30 8.33398 -46 11.001c-2.66699 -10.667 -5.33398 -18 -8.00098 -22c-6.66699 -10.667 -15.834 -18.667 -27.501 -24s-23.5 -6.66602 -35.5 -3.99902
c-16 2.66699 -25 8 -27 16s2.33301 16 13 24c-1.33301 0 -2.66602 0.666992 -3.99902 2c-5.33301 1.33301 -7.66602 4.33301 -6.99902 9s2.33398 9.66699 5.00098 15c4 6.66699 8 13 12 19s8 12.333 12 19c-1.33301 0 -4.66602 -1.33301 -9.99902 -4
c-8 -2.66699 -13 -2 -15 2s-1 9.33301 3 16c2.66699 5.33301 7.33398 9 14.001 11c-4 -9.33301 -4.66699 -14.333 -2 -15c2.66699 -4 7.66699 -5 15 -3s13 3.66699 17 5h7c2 0 1.66699 -2 -1 -6c-2.66699 -2.66699 -5.33398 -6 -8.00098 -10s-4.66699 -8 -6 -12
c-5.33301 -8 -9 -15.333 -11 -22s-1 -10 3 -10c8 0 16.333 8 25 24s12.334 28 11.001 36c0 2.66699 -2 5.33398 -6 8.00098c5.33301 0 9.33301 -1.33301 12 -4c6.66699 10.667 15.834 16.167 27.501 16.5s18.167 -7.16699 19.5 -22.5c-5.33301 6.66699 -12.666 8 -21.999 4
c-4 -2.66699 -6.66699 -7.33398 -8 -14.001s-1.33301 -12.667 0 -18c0 -4 0.333008 -7.66699 1 -11s1 -7 1 -11c2.66699 0 4.66699 -0.333008 6 -1s3.33301 -1 6 -1c0 4 1.33301 8.66699 4 14c-1.33301 1.33301 -2.66602 2.33301 -3.99902 3
s-2.66602 2.33398 -3.99902 5.00098c1.33301 0 3 -0.333008 5 -1s4.33301 0.333008 7 3c4 9.33301 8.66699 18.833 14 28.5l16 30.5c-16 -1.33301 -30.667 1 -44 7s-18 17.667 -14 35c0 -14.667 6.66699 -23.667 20 -27s27.333 -3.66602 42 -0.999023
c2.66699 8 4 13.333 4 16c2.66699 10.667 2 18.667 -2 24c12 -8 20 -15.333 24 -22c0 -2.66699 0.333008 -4.33398 1 -5.00098s1 -2.33398 1 -5.00098c22.667 9.33301 46.5 18 71.5 26s51.5 8 79.5 0c28 -9.33301 45.333 -23.333 52 -42c-13.333 22.667 -36 34 -68 34
c-26.667 1.33301 -51.167 -2.66699 -73.5 -12s-44.833 -17.333 -67.5 -24l-2 -2c-5.33301 -10.667 -10 -20.834 -14 -30.501s-8.66699 -19.834 -14 -30.501c-2.66699 -6.66699 -4.66699 -12.667 -6 -18s-0.666016 -8 2.00098 -8c5.33301 0 11 3.33301 17 10s11 14 15 22
c0 2.66699 0.666992 5.33398 2 8.00098l4 8v12c-1.33301 2.66699 -3.33301 5.33398 -6 8.00098c6.66699 0 11.334 -2 14.001 -6c6.66699 9.33301 14.334 18.166 23.001 26.499s17.667 11.166 27 8.49902s13 -11.5 11 -26.5s-6.33301 -25.833 -13 -32.5
c-10.667 -12 -22.667 -16 -36 -12c8 0 16.667 6.66699 26 20c4 4 7.33301 9.33301 10 16c2.66699 8 4.33398 14.833 5.00098 20.5s-4.33301 2.5 -15 -9.5c-6.66699 -6.66699 -13 -15.167 -19 -25.5s-10.333 -20.833 -13 -31.5c-1.33301 -10.667 1.33398 -15 8.00098 -13
s12 4.33301 16 7s9.33301 7.33398 16 14.001c8 9.33301 14.5 20.5 19.5 33.5s4.5 24.833 -1.5 35.5c5.33301 0 9 -1.33301 11 -4c10.667 10.667 23.334 14.667 38.001 12c-6.66699 -2.66699 -12.334 -7 -17.001 -13s-5.66699 -10.333 -3 -13s7.66699 -3.33398 15 -2.00098
s18.333 8.66602 33 21.999c4 0 5.33301 -1.33301 4 -4c-2.66699 -2.66699 -8.66699 -9.16699 -18 -19.5s-15.333 -17.5 -18 -21.5c-4 -6.66699 -8 -15 -12 -25s-2.66699 -15.667 4 -17c6.66699 -2.66699 13.667 -1.33398 21 3.99902l19 14c16 16 22.667 30 20 42
c-1.33301 5.33301 -6.66602 7.66602 -15.999 6.99902c10.667 6.66699 18.667 8.33398 24 5.00098s6.66602 -9.33301 3.99902 -18c-2.66699 -10.667 -8.66699 -20.334 -18 -29.001s-19.333 -16.334 -30 -23.001c20 4 40 2 60 -6c1.33301 1.33301 2 4 2 8
c1.33301 6.66699 0 11.334 -4 14.001c8 1.33301 14.667 -1 20 -7s6 -14.333 2 -25l18 -18c8 -13.333 12.333 -27 13 -41s-2 -27.167 -8 -39.5s-15.333 -23.166 -28 -32.499s-27.667 -16 -45 -20c-6.66699 -2.66699 -15.334 -3.66699 -26.001 -3s-21.334 1.66699 -32.001 3
c-17.333 2.66699 -33.5 8 -48.5 16s-30.5 15.333 -46.5 22c-9.33301 4 -19 7.66699 -29 11s-20.333 1.66602 -31 -5.00098c0 -1.33301 -0.333008 -2 -1 -2s-1 -0.666992 -1 -2c-2.66699 -10.667 -5.33398 -18.667 -8.00098 -24c-2.66699 -8 -2 -15.333 2 -22
c0 -1.33301 0.666992 -2.66602 2 -3.99902c46.667 5.33301 89.167 4.66602 127.5 -2.00098s64.166 -26 77.499 -58c-10.667 18.667 -27.834 31.667 -51.501 39s-50.5 10.333 -80.5 9s-61.167 -5 -93.5 -11s-63.833 -12.667 -94.5 -20s-58.5 -14.333 -83.5 -21
s-44.167 -10 -57.5 -10c-38.667 0 -71.5 7.66699 -98.5 23s-41.833 44.333 -44.5 87c5.33301 -36 21.166 -60 47.499 -72s57.5 -16.667 93.5 -14c21.333 1.33301 55.833 8 103.5 20s97.167 21.333 148.5 28c-5.33301 2.66699 -12 6.66699 -20 12
c-2.66699 2.66699 -4 6.66699 -4 12c-6.66699 -8 -14.5 -15 -23.5 -21s-18.167 -9 -27.5 -9h-6c-12 5.33301 -16 16.666 -12 33.999l-14 -14l-10 -10c-10.667 -8 -18.334 -12 -23.001 -12s-8.33398 1.33301 -11.001 4c-5.33301 6.66699 -4.66602 16 2.00098 28
c4 10.667 9.33301 20.667 16 30c-1.33301 0 -3.33301 1.33301 -6 4c0 2.66699 0.666992 5.66699 2 9c0 -2.66699 2 -3.66699 6 -3c2.66699 0 4.66699 1 6 3c1.33301 2.66699 2 5.33398 2 8.00098c-2.66699 2.66699 -6.33398 2.33398 -11.001 -0.999023
s-7.66699 -5.66602 -9 -6.99902c-1.33301 0 -2 -0.333008 -2 -1c-2.66699 -1.33301 -5.33398 -3.33301 -8.00098 -6l-10 -20c-4 -8 -6.66699 -14.667 -8 -20c-2.66699 -6.66699 -4.66699 -13.667 -6 -21s0.666992 -13 6 -17c-4 2.66699 -7 4 -9 4s-4.33301 0.666992 -7 2
s-6 4 -10 8c-2.66699 4 -2.66699 10.667 0 20c-6.66699 -9.33301 -14.334 -16.666 -23.001 -21.999c-5.33301 -4 -13.666 -8.66699 -24.999 -14s-23.333 -9.33301 -36 -12s-24 -2.66699 -34 0s-16.333 10 -19 22c-1.33301 1.33301 -2 3.33301 -2 6
c-5.33301 -2.66699 -10 0 -14 8c1.33301 -1.33301 4 -1.66602 8 -0.999023s8 5 12 13c2.66699 8 6.33398 15.333 11.001 22l13 18l4 4c-13.333 2.66699 -22 5.66699 -26 9c-10.667 12 -11 21.667 -1 29s19.667 7.66602 29 0.999023
c-6.66699 -1.33301 -12 -4.66602 -16 -9.99902s-4 -10.666 0 -15.999c2.66699 -4 9.33398 -6.33301 20.001 -7c13.333 14.667 28.666 28.167 45.999 40.5s36.333 19.833 57 22.5c6.66699 1.33301 12.667 0.666016 18 -2.00098s5.33301 -9.33398 0 -20.001
c-6.66699 -16 -21.834 -27.833 -45.501 -35.5s-42.834 -11.5 -57.501 -11.5l-11 -17c-4.66699 -7.33301 -8.66699 -14.666 -12 -21.999s-5.33301 -14.666 -6 -21.999s1.66602 -13 6.99902 -17c6.66699 -5.33301 14.334 -7 23.001 -5s17.667 5.66699 27 11
s17.333 11.666 24 18.999s11.334 13 14.001 17c2.66699 6.66699 4.33398 13.334 5.00098 20.001s-4.33301 11.334 -15 14.001c6.66699 5.33301 13.834 7 21.501 5s12.167 -6.33301 13.5 -13c0 -1.33301 0.666992 -2.66602 2 -3.99902
c2.66699 6.66699 5.33398 12.5 8.00098 17.5s5.33398 8.83301 8.00098 11.5s4.33398 5.66699 5.00098 9s2.33398 6.33301 5.00098 9c-2.66699 0 -6 2 -10 6h9c3.33301 0 7 4.66699 11 14c0 2.66699 0.666992 4 2 4c2.66699 5.33301 4 10 4 14
c2.66699 6.66699 2.66699 12 0 16c-13.333 -5.33301 -23.333 -8 -30 -8c-6.66699 2.66699 -9 7.66699 -7 15s4.33301 13 7 17c2.66699 2.66699 4.33398 5.66699 5.00098 9s2.33398 6.33301 5.00098 9c-10.667 -12 -20.667 -22 -30 -30c-16 -12 -24.5 -12.667 -25.5 -2
s-0.166992 24 2.5 40c-4 -10.667 -10 -20.667 -18 -30c-21.333 -32 -49.333 -52 -84 -60c-12 -4 -23.333 -6 -34 -6c-33.333 0 -57.833 11.333 -73.5 34s-18.167 47.334 -7.5 74.001zM275.986 238.993h12l4 -20l6 20h10l6 -20l6 20h8v-4l-8 -28h-10l-6 20l-6 -20h-10z
M327.986 234.993l2 4h8l4 -20l8 20h8l8 -20l4 20h8l2 -4l-10 -28h-10l-6 20l-6 -20h-10zM357.986 425.993c14.667 2.66699 29.333 6.16602 44 10.499s25.667 13.833 33 28.5c4 10.667 4.5 16.334 1.5 17.001s-7.83301 -0.333008 -14.5 -3
c-12 -6.66699 -23.333 -14.667 -34 -24s-20.667 -19 -30 -29zM379.985 234.992v4h8l6 -20l6 20h10l6 -20l4 20h11l-11 -32h-10l-6 20l-6 -20h-10zM425.985 206.992v12h11v-12h-11zM440.985 206.992v31.999h12v-4l4 4h6h4l4 -4c2.66699 2.66699 4.66699 4 6 4h4
c4 0 6.66699 -0.666992 8 -2s2 -4.66602 2 -9.99902v-20h-10v18c0 1.33301 -0.333008 2 -1 2s-1 0.666992 -1 2l-2 2c-1.33301 0 -2 -0.333008 -2 -1s-0.666992 -1 -2 -1v-6v-16h-12v18v2c0 1.33301 -0.666992 2 -2 2c0 1.33301 -0.666992 2 -2 2s-2 -0.666992 -2 -2
c-1.33301 -1.33301 -2 -3.33301 -2 -6v-16h-12zM492.985 126.991c0 17.333 8.66699 26.001 26 26.001c12 0 22 -7.33301 30 -22c0 14.667 -3.66699 26.667 -11 36s-19 13.333 -35 12v6h92v-6c-32 0 -46.667 -16 -44 -48c6.66699 14.667 16.667 22 30 22
c16 0 23.667 -8.66699 23 -26c0 -8 -2 -14.667 -6 -20l-1 2v24l-14 -20l-24 8l14 -20l-14 -19l22 7h2l-2 -2c-8 -6.66699 -14.667 -13.167 -20 -19.5s-9.33301 -14.833 -12 -25.5c-2.66699 10.667 -7 20 -13 28s-13 15 -21 21c-6.66699 5.33301 -12 10.666 -16 15.999
s-6 12 -6 20zM494.985 206.992v32h12v-32h-12zM494.985 242.992v8h12v-8h-12zM508.985 216.992l12 -0.00195312c0 -1.33301 0.666992 -2 2 -2c0 -1.33301 0.666992 -2 2 -2c2.66699 0 4 0.666992 4 2l2 2l-2 2h-6c-2.66699 1.33301 -5.33398 2 -8.00098 2l-4 4v4v6
c2.66699 2.66699 4.66699 4 6 4h8h8l4 -2c0 -1.33301 0.333008 -2.33301 1 -3s1 -1.66699 1 -3h-10l-2 2h-4h-2v-2v-2h6c2.66699 -1.33301 5.33398 -2 8.00098 -2l4 -4c0 -1.33301 0.333008 -2.33301 1 -3s1 -1.66699 1 -3s-0.666992 -2.66602 -2 -3.99902
c-2.66699 -2.66699 -4.66699 -4 -6 -4c-1.33301 -1.33301 -4 -2 -8 -2c-6.66699 0 -10.667 0.666992 -12 2c-2.66699 2.66699 -4 5.33398 -4 8.00098zM522.985 480.99c13.333 -8 27.3311 -7.66895 41.998 0.998047s23.334 18.334 26.001 29.001c1.33301 2.66699 2 6 2 10
c-25.333 -1.33301 -44.666 -7.66602 -57.999 -18.999s-17.333 -18.333 -12 -21zM540.983 230.988v8h4v6l12 6v-12h6v-8h-6v-12v-2c0 -1.33301 0.666992 -2 2 -2h2l2 -8h-8h-6l-4 4v8v12h-4zM548.983 594.988c2.66699 6.66699 4 13.501 4 20.501s0.666992 14.5 2 22.5
c1.33301 -5.33301 2.33301 -10 3 -14s1.66699 -8.66699 3 -14c6.66699 9.33301 12.667 18.666 18 27.999s10.666 19.333 15.999 30l-7 -29l-7 -29l8 4l8 4c-2.66699 -2.66699 -5 -6 -7 -10s-4.33301 -7.33301 -7 -10c-1.33301 -2.66699 -3.33301 -3.66699 -6 -3
c-4 0 -7.66699 -0.333008 -11 -1s-7.66602 -1 -12.999 -1c-2.66699 0 -4 0.666992 -4 2zM548.983 645.989c0 4 1.33301 6 4 6s4 -2 4 -6s-1.33301 -6 -4 -6s-4 2 -4 6zM562.983 222.989c0 5.33301 1.33203 9.33203 3.99902 11.999s6.66699 4 12 4
s8.66602 -0.666992 9.99902 -2c1.33301 0 3.33301 -2 6 -6c1.33301 -1.33301 2 -4.66602 2 -9.99902v-2h-22l2 -4l4 -2l2 2c1.33301 0 2 0.666992 2 2l12 -2l-6 -6c-1.33301 -1.33301 -4.66602 -2 -9.99902 -2s-8.66602 0.666992 -9.99902 2c-2.66699 0 -4.66699 2 -6 6
c-1.33301 1.33301 -2 4 -2 8zM570.982 528.988c2.66699 1.33301 6.00098 2 10.001 2s8 0.666992 12 2c0 2.66699 -0.333008 6 -1 10s-1 8 -1 12c-2.66699 -2.66699 -4.33398 -4.66699 -5.00098 -6s-2.33398 -3.33301 -5.00098 -6
c-1.33301 -4 -4.66602 -8.66699 -9.99902 -14zM574.983 226.988h10v4c-1.33301 0 -2 0.333008 -2 1s-0.666992 1 -2 1s-2.33301 -0.333008 -3 -1s-1.66699 -1 -3 -1v-4zM596.983 619.988c-4 0 -3.99902 2.00098 0.000976562 6.00098c2 2.66699 3.66699 4 5 4
c1.33301 -1.33301 1.33301 -4 0 -8c-2.66699 -2.66699 -4.33398 -3.33398 -5.00098 -2.00098zM596.984 671.989c-4 2.66699 -4 6 0 10c0 5.33301 1.66699 8 5 8c1.33301 -2.66699 1.33301 -6.66699 0 -12c0.666992 -4 -1 -6 -5 -6zM597.984 206.989l-0.000976562 32h12v-6
c0 2.66699 0.333008 4 1 4s1 0.666992 1 2h4h6l-4 -10l-2 2c-1.33301 0 -2.66602 -0.666992 -3.99902 -2s-2 -5.33301 -2 -12v-10h-12zM619.983 222.989c0 4 0.667969 6.66895 2.00098 8.00195c0 1.33301 0.666992 2.66602 2 3.99902l4 4h10
c5.33301 0 8.66602 -0.666992 9.99902 -2c2.66699 -2.66699 4.66699 -5.33398 6 -8.00098l-12 -2v4h-4c-2.66699 0 -4.66699 -0.666992 -6 -2v-6v-6c1.33301 -1.33301 3.33301 -2 6 -2h4c0 1.33301 0.666992 2.66602 2 3.99902h10
c0 -1.33301 -0.666992 -2.66602 -2 -3.99902v-2c-2.66699 -2.66699 -4.66699 -4 -6 -4c-1.33301 -1.33301 -4 -2 -8 -2h-8l-4 4l-4 4c-1.33301 1.33301 -2 4 -2 8zM655.984 206.991l-0.000976562 43.999h10v-16c2.66699 2.66699 4.66699 4 6 4h4c4 0 6.66699 -0.666992 8 -2
s2 -4.66602 2 -9.99902v-20h-12v18v4l-2 2c-1.33301 0 -2.66602 -0.666992 -3.99902 -2c0 -1.33301 -0.333008 -2.33301 -1 -3s-1 -1.66699 -1 -3v-16h-10zM687.983 222.99c0 5.33301 1.99805 9.33105 5.99805 11.998c1.33301 2.66699 5.33301 4 12 4
c4 0 7.33301 -0.666992 10 -2c2.66699 0 4 -2 4 -6c1.33301 -1.33301 2 -4.66602 2 -9.99902v-2h-22l2 -4l4 -2c1.33301 0 2 0.666992 2 2c1.33301 0 2 0.666992 2 2l12 -2l-6 -6c-1.33301 -1.33301 -4.66602 -2 -9.99902 -2s-8.66602 0.666992 -9.99902 2
c-2.66699 0 -4 2 -4 6c-2.66699 2.66699 -4 5.33398 -4 8.00098zM699.981 226.988h11.999c-1.33301 1.33301 -2 2.66602 -2 3.99902c-1.33301 0 -2 0.333008 -2 1s-0.666992 1 -2 1s-2.66602 -0.666992 -3.99902 -2s-2 -2.66602 -2 -3.99902zM723.98 206.988v44h12v-22l8 10
h14l-10 -12l12 -20h-14l-6 12l-4 -4v-8h-12zM759.98 206.988v12h11v-12h-11zM774.98 206.988v32h10v-6c1.33301 2.66699 2.66602 4.66699 3.99902 6h4h4l-2 -10c-1.33301 1.33301 -2.66602 2 -3.99902 2s-2 -0.333008 -2 -1s-0.666992 -1 -2 -1
c0 -1.33301 -0.333008 -3 -1 -5s-1 -4.33301 -1 -7v-10h-10zM798.98 218.988v20h10v-18c0 -1.33301 0.666992 -2.66602 2 -3.99902h2h4c0 1.33301 0.333008 2.33301 1 3s1 1.66699 1 3v16h10v-32h-10v6l-4 -4c-1.33301 -1.33301 -3.33301 -2 -6 -2
c-4 0 -6.66699 0.666992 -8 2s-2 4.66602 -2 9.99902zM816.98 440.988c5.33301 2.66699 10.668 4 16.001 4c2.66699 0 5 -0.333008 7 -1s4.33301 -1 7 -1c1.33301 2.66699 2.66602 6 3.99902 10s3.33301 8 6 12l10 20c4 8 8 16.667 12 26
c-10.667 -10.667 -23 -20.667 -37 -30s-22.333 -22 -25 -38v-2zM910.982 377.988c21.333 14.667 35.498 34.5 42.498 59.5s2.5 47.5 -13.5 67.5c17.333 -8 27.333 -18.333 30 -31s1.33398 -25.167 -3.99902 -37.5s-13.166 -23.833 -23.499 -34.5s-20.833 -18.667 -31.5 -24z
M918.98 375.988c14.667 6.66699 25.5 13.002 32.5 19.002s16.5 18.667 28.5 38c4 -9.33301 4.33301 -16.833 1 -22.5s-8.33301 -10.834 -15 -15.501s-14.167 -8.33398 -22.5 -11.001z" />
    <glyph glyph-name="at" unicode="@" horiz-adv-x="906" 
d="M-16 253c0 151.333 52.3389 287.004 157.006 407.004c110 130 242.667 199 398 207c107.333 3.33301 197.333 -27.334 270 -92.001c71.333 -63.333 107.333 -146 108 -248c0 -94 -26 -188.667 -78 -284c-26.667 -46.667 -57.834 -90.167 -93.501 -130.5
s-74.834 -72.5 -117.501 -96.5c-22.667 -12 -42.334 -18 -59.001 -18c-20 0 -37.333 9.33301 -52 28c-9.33301 13.333 -15.333 24 -18 32c-13.333 -13.333 -28.833 -25 -46.5 -35s-37.834 -17.667 -60.501 -23c-28 6.66699 -55 17.667 -81 33s-50 25 -72 29
c-18.667 -2.66699 -32.667 -5 -42 -7s-19.333 -7 -30 -15l46 53.5c14.667 17 33 34.167 55 51.5c-8 18.667 -9.33301 39.334 -4 62.001c0 2.66699 0.666992 4.66699 2 6c0 25.333 -1.83301 48.166 -5.5 68.499s-14.834 33.833 -33.501 40.5c29.333 12 50.333 10.667 63 -4
c2.66699 12 5.66699 24.333 9 37s6.33301 25 9 37c4 14.667 4.66699 24.667 2 30c-4 8 -14.667 13.667 -32 17c48 2.66699 92.5 15 133.5 37s84.833 53 131.5 93c8 -17.333 22.667 -32.666 44 -45.999l21 97c-18.667 -1.33301 -36.167 0.666992 -52.5 6
s-31.833 14.666 -46.5 27.999l-10 -6c-10.667 -44 -28.834 -72.833 -54.501 -86.5s-59.834 -20.5 -102.501 -20.5l14 50c2.66699 18.667 3.33398 29 2.00098 31c-4 8 -14.667 14 -32 18c48 2.66699 92.5 15 133.5 37s84.833 52.667 131.5 92
c18.667 -34.667 42.5 -65.167 71.5 -91.5s62.167 -50.166 99.5 -71.499c-16 1.33301 -30 -21 -42 -67l-8 -30c17.333 6.66699 31.333 16 42 28c-8 -22.667 -24.667 -43.334 -50 -62.001l-58 -248c-2.66699 -9.33301 -5.33398 -21.333 -8.00098 -36
s-3.66699 -29.334 -3 -44.001s3.66699 -27.334 9 -38.001s14.666 -16 27.999 -16c16 0 36 16 60 48c86 126 123 257.333 111 394c-5.33301 79.333 -37.666 149.666 -96.999 210.999c-58 59.333 -129 89 -213 89c-95.333 -4 -187 -43.667 -275 -119
c-131.333 -111.333 -196.666 -260 -195.999 -446c0 -95.333 27 -173.333 81 -234c56.667 -64.667 135 -97.334 235 -98.001c50.667 0 103.667 16 159 48l16 -20c-76.667 -41.333 -151 -61.666 -223 -60.999c-104.667 0 -188.667 34.333 -252 103
c-62 62 -93.333 143.667 -94 245zM387.006 168.004c-2 -14 -0.99707 -28.334 3.00293 -43.001l32.5 -20c11 -6.66699 23.833 -12 38.5 -16c10.667 0 20 2 28 6v2c0 10.667 1.33301 22 4 34s6 26 10 42l10 42c1.33301 25.333 0 47.833 -4 67.5s-16 32.834 -36 39.501
c29.333 12 50.666 10.667 63.999 -4l24 102c-18.667 -1.33301 -36.334 0.5 -53.001 5.5s-32.334 14.167 -47.001 27.5l-10 -6l-57 -238c-2.66699 -13.333 -5 -27 -7 -41z" />
    <glyph glyph-name="A" unicode="A" 
d="M0 46c13.333 20 25.6699 40.1689 37.0029 60.502s28 39.833 50 58.5c-14.667 21.333 -21.667 45.333 -21 72v81c-2.66699 20 -7.33398 37 -14.001 51s-18.667 23.667 -36 29c21.333 8 38 11.333 50 10v254c0 18.667 -2 32.667 -6 42s-17.333 16.666 -40 21.999
c52 2.66699 94.5 12.5 127.5 29.5s62.833 46.167 89.5 87.5c15.333 24.667 25 53.667 29 87c0.666992 4.66699 1 8.66699 1 12c0 28.667 -10.667 55.334 -32 80.001c58 -33.333 97.333 -68.666 118 -105.999c13.333 -24.667 20 -49.334 20 -74.001
c0 -12.667 -1.66699 -25.667 -5 -39c25.333 -13.333 49.166 -30.833 71.499 -52.5s48.833 -42.5 79.5 -62.5h-1c-15.333 0 -24.333 -26 -27 -78v-375c0 -12 0.666992 -23.333 2 -34s4.33301 -20 9 -28s12 -14.333 22 -19s23 -6.33398 39 -5.00098
c-8 -12 -15.333 -24.667 -22 -38s-14.667 -26.166 -24 -38.499s-22.333 -24.833 -39 -37.5s-38.667 -24.334 -66 -35.001c-21.333 21.333 -36.666 41.333 -45.999 60c-10.667 -13.333 -24.334 -25 -41.001 -35s-36.334 -18.333 -59.001 -25
c-34.667 6.66699 -68.5 18.667 -101.5 36s-62.5 28.666 -88.5 33.999c-20 -2.66699 -35 -5 -45 -7s-20.333 -7.66699 -31 -17zM213.004 239.002c0 -16 0.668945 -32.3311 2.00195 -48.998s6 -32.334 14 -47.001c14.667 -9.33301 28.834 -17.333 42.501 -24
s29.834 -12.667 48.501 -18c12 1.33301 22 3.33301 30 6c-2.66699 14.667 -4.33398 29.667 -5.00098 45s-1 31.666 -1 48.999v133c-2.66699 16 -7.33398 29.667 -14.001 41s-17.334 19 -32.001 23c13.333 6.66699 28.666 10 45.999 10v346
c-4 -6.66699 -8.33301 -12.667 -13 -18l-15 -18c-12 -12 -27.5 -21.333 -46.5 -28s-37.833 -10 -56.5 -10v-441z" />
    <glyph glyph-name="B" unicode="B" horiz-adv-x="514" 
d="M-34 1036c30.667 0 60.001 -5.32812 88.001 -15.9951c13.333 49.333 40.666 89.333 81.999 120c40 30 93.667 45 161 45h9c-28 -9.33301 -49.5 -24 -64.5 -44s-26.5 -41.833 -34.5 -65.5s-12.667 -46.834 -14 -69.501s-2 -42 -2 -58v-139c20 17.333 40 37.333 60 60
c16 -20 35.5 -36.667 58.5 -50s46.167 -22 69.5 -26c9.33301 -1.33301 18.666 -2 27.999 -2c12.667 0 25.667 1.66699 39 5c21.333 6 39.666 18.333 54.999 37c-4 -21.333 -14 -40.666 -30 -57.999v-540c0 -46.667 -11.333 -83.334 -34 -110.001
c14.667 1.33301 26.334 3.66602 35.001 6.99902s18.334 8.33301 29.001 15l-27 -39c-8.66699 -12.667 -18.667 -25.5 -30 -38.5s-24.5 -25.5 -39.5 -37.5s-33.833 -23.333 -56.5 -34c-28 9.33301 -51.833 18.666 -71.5 27.999l-54.5 26c-16.667 8 -33.334 15.5 -50.001 22.5
s-35.667 12.5 -57 16.5c-29.333 -2.66699 -50.833 -8.16699 -64.5 -16.5l-48.5 -30.5c9.33301 24 23.333 47.667 42 71v201c-2.66699 18.667 -7 35.334 -13 50.001s-17.667 24.667 -35 30c18.667 8 34.667 11.333 48 10v258c0 21.333 -2 34 -6 38
c-5.33301 9.33301 -18.666 16.666 -39.999 21.999c16 0 31.333 2 46 6v133v32c0 12 -1.33301 24.833 -4 38.5s-6.66699 27.167 -12 40.5s-13 25.666 -23 36.999s-23 19.666 -39 24.999zM191.001 191.005c20 -4 40.1699 -9.66797 60.5029 -17.001s40.5 -15 60.5 -23
c5.33301 14.667 8.66602 29 9.99902 43s2 28.333 2 43v79c-2.66699 18.667 -7 35.334 -13 50.001s-17.667 24.667 -35 30c18.667 8 34.667 11.333 48 10v294h-12c-18.667 0 -37.334 2.33301 -56.001 7c-22.667 6 -44.334 17 -65.001 33v-549z" />
    <glyph glyph-name="C" unicode="C" horiz-adv-x="453" 
d="M-14 46c6.66699 16 14.0049 31.8291 22.0049 47.4961s18.667 30.834 32 45.501v187c-2.66699 18.667 -7.66699 34.334 -15 47.001s-18.333 21 -33 25c18.667 8 34.667 11.333 48 10v202c-2.66699 52 -12.334 78 -29.001 78h-1c29.333 18.667 54.833 38.167 76.5 58.5
s43.834 37.166 66.501 50.499c-4.66699 14.667 -7 29 -7 43c0 24 6.33301 48 19 72c20 38.667 59 75.334 117 110.001c-19.333 -22 -29 -44.667 -29 -68c-0.666992 -21.333 3.66602 -42 12.999 -62c9.33301 -20.667 21 -39.667 35 -57s26.333 -31.333 37 -42
c32 -32 53.333 -58.167 64 -78.5s12 -39.166 4 -56.499s-24.667 -36.166 -50 -56.499l-98 -78.5c12 17.333 18.333 34.5 19 51.5s-2.33301 33.833 -9 50.5s-15.834 33 -27.501 49s-24.167 30.667 -37.5 44c-2.66699 4 -5.33398 7.66699 -8.00098 11
s-5.33398 6.33301 -8.00098 9v-557l96.5 -34c33.667 -12 61.167 -19.333 82.5 -22c21.333 2.66699 36.666 5 45.999 7s19 7.66699 29 17l-47.5 -77.5c-15.667 -25 -42.167 -48.833 -79.5 -71.5c-46.667 18.667 -88.5 36.667 -125.5 54s-73.167 30.333 -108.5 39
c-24 -2.66699 -42 -8.16699 -54 -16.5s-25.333 -18.5 -40 -30.5z" />
    <glyph glyph-name="D" unicode="D" horiz-adv-x="509" 
d="M-4 396c14.667 6.66699 30.0029 9.99707 46.0029 9.99707v304c-6.66699 5.33301 -17.334 10 -32.001 14c53.333 2.66699 97.833 16.167 133.5 40.5s73.834 59.166 114.501 104.499c17.333 -20 38 -37.333 62 -52v131c0 16 -0.666992 35.333 -2 58
s-5.66602 45.834 -12.999 69.501s-18.5 45.5 -33.5 65.5s-36.5 34.667 -64.5 44h9c66.667 -0.666992 120 -15.667 160 -45c41.333 -30.667 69 -70.667 83 -120c25.333 10.667 54.666 16 87.999 16c-16 -5.33301 -29.333 -13.666 -40 -24.999s-18.667 -23.666 -24 -36.999
s-9 -26.833 -11 -40.5s-3 -26.5 -3 -38.5c-1.33301 -6.66699 -2 -12.334 -2 -17.001v-15v-62c17.333 9.33301 30.666 20 39.999 32c-4 -24 -17.333 -47 -40 -69v-633c10.667 4 21.334 9.33301 32.001 16l-27 -39c-8.66699 -12.667 -18.5 -25.5 -29.5 -38.5
s-24.167 -25.5 -39.5 -37.5s-34.333 -23.333 -57 -34c-28 9.33301 -51.833 18.666 -71.5 27.999l-54.5 26c-16.667 8 -33.334 15.5 -50.001 22.5s-35.667 12.5 -57 16.5c-29.333 -2.66699 -50.833 -8.16699 -64.5 -16.5l-48.5 -30.5c9.33301 18.667 20 37.834 32 57.501
s29.333 36.834 52 51.501c-28 25.333 -42 64.333 -42 117v66c-2.66699 14.667 -7.33398 27.334 -14.001 38.001s-17.334 18 -32.001 22zM189.003 271.997c0 -14.667 0.334961 -28.832 1.00195 -42.499s4.33398 -27.834 11.001 -42.501c20 -4 40.167 -9.66699 60.5 -17
s39.833 -15 58.5 -23v183c-2.66699 16 -7.33398 30 -14.001 42s-17.334 20 -32.001 24c9.33301 4 17.666 6.66699 24.999 8s14.333 2 21 2v294c-20 0 -40.5 3 -61.5 9s-40.833 16.333 -59.5 31l-10 -8v-460z" />
    <glyph glyph-name="E" unicode="E" horiz-adv-x="457" 
d="M-2 44c6.66699 16 14.001 31.8291 22.001 47.4961s18.667 30.834 32 45.501v183c-2.66699 18.667 -7.33398 34.667 -14.001 48s-18.667 22.666 -36 27.999c20 8 36.667 11.333 50 10v202c-2.66699 52 -12.334 78 -29.001 78h-1c30.667 20 57.5 40.833 80.5 62.5
s47.167 39.167 72.5 52.5c0 1.33301 -4 7 -12 17s-16.667 23.667 -26 41c-9.33301 16.667 -17 36.334 -23 59.001c-4 14.667 -6 29.667 -6 45c0 8.66699 0.666992 17.667 2 27c3.33301 25.333 13.333 51.5 30 78.5s43.667 54.5 81 82.5c-23.333 -24.667 -35 -51.667 -35 -81
c0 -25.333 5.66699 -48.666 17 -69.999c4 -9.33301 13.833 -24.166 29.5 -44.499l49.5 -65.5c17.333 -23.333 34 -44.333 50 -63s26 -30.667 30 -36c20 -20 36 -37.667 48 -53s18 -31.666 18 -48.999c0 -8 -1.33301 -16 -4 -24c-8 -26 -23.333 -50.5 -46 -73.5
s-50.167 -43.5 -82.5 -61.5s-65.166 -30.333 -98.499 -37v-314l98.5 -34c33.667 -12 61.167 -19.333 82.5 -22c20 2.66699 34.833 5 44.5 7s19.834 7.66699 30.501 17l-47.5 -77.5c-15.667 -25 -42.167 -48.833 -79.5 -71.5c-46.667 18.667 -88.5 36.667 -125.5 54
s-72.833 30.333 -107.5 39c-25.333 -2.66699 -43.833 -8.16699 -55.5 -16.5s-24.834 -18.5 -39.501 -30.5zM199.001 524.996c16 5.33301 30.833 11.332 44.5 17.999s25.167 14.334 34.5 23.001s15.333 18.5 18 29.5s0.666992 23.833 -6 38.5c-8 14.667 -17.167 29 -27.5 43
s-21.5 27 -33.5 39s-22 24 -30 36v-227z" />
    <glyph glyph-name="F" unicode="F" horiz-adv-x="602" 
d="M-84 1052c36 -33.333 82.6719 -58.6602 140.005 -75.9932v4c0 18.667 -2.33301 32 -7 40s-16.334 14.667 -35.001 20c94 5.33301 178 53.666 252 144.999c29.333 -41.333 59 -62.333 89 -63h3c28.667 0 51.667 9 69 27c-1.33301 -17.333 -7.83301 -36.5 -19.5 -57.5
s-27.167 -38.167 -46.5 -51.5s-41.833 -20 -67.5 -20s-53.167 12 -82.5 36l-8 -8v-64v-24c59.333 0 123 6 191 18c0 13.333 2 27.333 6 42c13.333 49.333 40.666 89.333 81.999 120c40 30 93.667 45 161 45h9c-41.333 -14.667 -69.5 -39.167 -84.5 -73.5
s-23.833 -68.833 -26.5 -103.5c68.667 17.333 138.167 36.666 208.5 57.999l204 60.5c65.667 19 127.667 35.833 186 50.5s110.5 23.334 156.5 26.001c28 -2.66699 57.667 -8 89 -16s62.5 -19 93.5 -33s61.833 -31.5 92.5 -52.5s59 -46.167 85 -75.5
c-42.667 25.333 -90.334 42 -143.001 50c-39.333 6 -81.333 9 -126 9c-15.333 0 -30.333 -0.333008 -45 -1c-61.333 -2.66699 -125.333 -10 -192 -22s-134.5 -25.667 -203.5 -41l-207 -48c-69 -16.667 -136.5 -31.334 -202.5 -44.001v-754v-54
c17.333 1.33301 30.666 -3 39.999 -13s16 -28 20 -54c-9.33301 8 -22.333 10.667 -39 8s-34.667 -7.66699 -54 -15l-55.5 -22c-17.667 -7.33301 -32.5 -11 -44.5 -11c-18.667 5.33301 -35.667 17.666 -51 36.999c-8.66699 10.667 -13 23.667 -13 39
c0 12 2.66699 25.667 8 41c6.66699 -13.333 17.334 -20.333 32.001 -21s34.334 0.333008 59.001 3c-14.667 2.66699 -26.5 8 -35.5 16s-13.5 21.333 -13.5 40v147c-2.66699 18.667 -7 35.334 -13 50.001s-17.667 24.667 -35 30c14.667 6.66699 30.667 10 48 10v429v70
c-34.667 -4 -67.334 -7 -98.001 -9c-13.333 -0.666992 -26 -1 -38 -1c-17.333 0 -34.333 0.666992 -51 2v-804c0 -66 -22.167 -121.833 -66.5 -167.5s-109.833 -68.5 -196.5 -68.5c28 9.33301 49.667 24.166 65 44.499s27 42.166 35 65.499s12.667 46.666 14 69.999
s2 42.666 2 57.999v225c-2.66699 18.667 -7.33398 34.667 -14.001 48s-18 22.666 -34 27.999c14.667 6.66699 30.667 10 48 10v521c-60.667 25.333 -107.334 67 -140.001 125z" />
    <glyph glyph-name="G" unicode="G" horiz-adv-x="524" 
d="M-8 400c20 6.66699 35.998 10.002 47.998 10.002v258c0 10.667 -0.666992 19 -2 25s-2.66602 10.333 -3.99902 13c-6.66699 9.33301 -20 16 -40 20c53.333 4 100.166 18.167 140.499 42.5s80.833 59.166 121.5 104.499c16 -20 35.333 -36.667 58 -50s46 -22 70 -26
c9.33301 -1.33301 18.666 -2 27.999 -2c14 0 27.333 1.66699 40 5c20.667 6 38.334 18.333 53.001 37c-2.66699 -18.667 -10.667 -36.5 -24 -53.5s-30.666 -31.5 -51.999 -43.5c17.333 -16 39.333 -32.667 66 -50c-18.667 0 -28.667 -26 -30 -78v-483
c5.33301 2.66699 10.333 5.66699 15 9s10.334 7 17.001 11c-4 -9.33301 -8.66699 -18.666 -14 -27.999s-11.333 -18.666 -18 -27.999v-139c0 -20.667 2 -33.667 6 -39c8 -9.33301 21.333 -16 40 -20c-53.333 -4 -100.166 -18 -140.499 -42s-80.833 -59.333 -121.5 -106
c-16 21.333 -35.667 38.666 -59 51.999s-46.666 22 -69.999 26c-8.66699 1.33301 -17.334 2 -26.001 2c-14 0 -28 -2 -42 -6c-21.333 -6.66699 -39.333 -18.667 -54 -36c4 22.667 16.667 45 38 67s46.666 38.667 75.999 50c26 10.667 54 16 84 16h12
c34.667 -2 68 -15 100 -39l10 6v65v52h-2c-40 6.66699 -79.833 18.667 -119.5 36s-76.167 28.666 -109.5 33.999c-24 -2.66699 -41.833 -5.33398 -53.5 -8.00098s-23.5 -8.66699 -35.5 -18l38 53.5c12 17 27.333 33.5 46 49.5c-28 25.333 -42 64.333 -42 117v66
c-2.66699 16 -7.66699 30 -15 42s-18.333 20.667 -33 26zM184.998 268.002c0 -14.667 1 -29.834 3 -45.501s6.33301 -30.834 13 -45.501c25.333 -10.667 46.5 -20.667 63.5 -30s34.833 -17.333 53.5 -24v199c-2.66699 18.667 -7 35 -13 49s-17.667 23.667 -35 29
c20 6.66699 36 10 48 10v294c-20 -1.33301 -40.5 1.33398 -61.5 8.00098s-40.833 17.334 -59.5 32.001l-12 -8v-468z" />
    <glyph glyph-name="H" unicode="H" horiz-adv-x="507" 
d="M-1304 1052c40 -29.333 86.3379 -48.3359 139.005 -57.0029c34 -5.33301 70 -8 108 -8c20.667 0 41.667 0.666992 63 2c61.333 4.66699 125.666 14 192.999 28l201.5 43c67 14.667 133 27.834 198 39.501s126.167 18.167 183.5 19.5h15
c51.333 -0.666992 98.333 -7 141 -19c46.667 -13.333 85.334 -38.666 116.001 -75.999c1.33301 -1.33301 2.66602 -2 3.99902 -2c13.333 49.333 40.666 89.333 81.999 120c40 30 93.667 45 161 45h9c-28 -9.33301 -49.5 -24 -64.5 -44s-26.167 -41.833 -33.5 -65.5
s-11.666 -46.834 -12.999 -69.501s-2 -42 -2 -58v-147c10.667 10.667 22 21.334 34 32.001s23.667 22.667 35 36c16 -20 35.667 -36.667 59 -50s46.333 -22 69 -26c9.33301 -1.33301 18.666 -2 27.999 -2c13.333 0 26.333 1.66699 39 5c21.333 6 39.333 18.333 54 37
c-2.66699 -20 -12.334 -39.5 -29.001 -58.5s-36.667 -35.167 -60 -48.5l24.5 -20c8.33301 -6.66699 17.833 -13.334 28.5 -20.001h-1c-16.667 0 -26.334 -26 -29.001 -78v-515c0.666992 -66 -21 -121.667 -65 -167c-42.667 -44.667 -106 -67 -190 -67h-7
c28 9.33301 49.5 23.833 64.5 43.5s26.5 41.5 34.5 65.5s12.667 47.333 14 70s2 41.667 2 57v221c-2.66699 18.667 -7 35.334 -13 50.001s-17.333 24.667 -34 30c18.667 8 34.334 11.333 47.001 10v296c-34.667 2.66699 -66.334 15.334 -95.001 38.001l-10 -8v-64v-127v-420
c16 1.33301 28.667 -3 38 -13s16 -28 20 -54c-8 8 -20.667 10.667 -38 8s-35.333 -7.66699 -54 -15l-54.5 -22c-17.667 -7.33301 -32.5 -11 -44.5 -11c-18.667 5.33301 -35.667 17.666 -51 36.999c-8.66699 10.667 -13 23.667 -13 39c0 12 2.66699 25.667 8 41
c6.66699 -13.333 17 -20.666 31 -21.999s34 0 60 4c-16 2.66699 -28.167 8 -36.5 16s-12.5 20.667 -12.5 38v151c-2.66699 18.667 -7.33398 35 -14.001 49s-18.667 23.667 -36 29c21.333 8 38 11.333 50 10v135v123c0 21.333 -2 34 -6 38
c-5.33301 8 -18.666 15.333 -39.999 22c14.667 0 30 2 46 6v147v12c-1.33301 20 -5 43.167 -11 69.5s-19.667 47.5 -41 63.5c-45.333 18.667 -96 28.667 -152 30h-21c-50.667 0 -103.334 -4.33301 -158.001 -13c-62.667 -10 -126.5 -23.667 -191.5 -41l-188 -51.5
l-171 -47.5c-53.667 -14.667 -100.5 -23.334 -140.5 -26.001c-44 6.66699 -91.167 22.834 -141.5 48.501s-96.5 68.5 -138.5 128.5z" />
    <glyph glyph-name="I" unicode="I" horiz-adv-x="302" 
d="M22 758c8 14.667 15.333 26.832 22 36.499l19 26.5l17.5 23l18.5 25c14.667 -28 42 -52.5 82 -73.5s79.667 -36.167 119 -45.5l-37.5 -18c-11.667 -5.33301 -24.167 -10 -37.5 -14v-597c17.333 1.33301 30.5 -3 39.5 -13s15.5 -28 19.5 -54c-8 8 -20.5 10.667 -37.5 8
s-34.833 -7.66699 -53.5 -15l-56 -22c-18.667 -7.33301 -34 -11 -46 -11c-18 5.33301 -34.333 17.666 -49 36.999c-8.66699 11.333 -13 25 -13 41c0 11.333 2.33301 24.333 7 39c8 -13.333 18.833 -20.666 32.5 -21.999s33.167 0 58.5 4c-14.667 2.66699 -26.5 8 -35.5 16
s-13.5 20.667 -13.5 38v149c-1.33301 18.667 -5.33301 35.334 -12 50.001s-18.667 24.667 -36 30c18.667 8 34.667 11.333 48 10v316c-16 6.66699 -34.667 18.667 -56 36zM48 991.998c1.33301 16 5.66797 33.668 13.001 53.001s15.5 39.5 24.5 60.5s17.5 44.833 25.5 71.5
c6 22 9 42.333 9 61v6c-0.666992 20.667 -8.33398 36 -23.001 46c18.667 -8 36 -16.833 52 -26.5s28 -21.167 36 -34.5c13.333 -24 20 -49 20 -75c0 -6.66699 -0.333008 -13.334 -1 -20.001c-4.66699 -33.333 -10 -66 -16 -98c-3.33301 -16.667 -5 -32.667 -5 -48
c0.666992 -14.667 2.33398 -28.667 5.00098 -42c5.33301 -28 28 -51 68 -69c-34.667 2.66699 -63.834 6.66699 -87.501 12s-43.167 11.333 -58.5 18s-26.833 13.667 -34.5 21s-13.5 14 -17.5 20c-8 13.333 -11.333 28 -10 44z" />
    <glyph glyph-name="J" unicode="J" horiz-adv-x="320" 
d="M-109 -274c41.333 9.33301 74.502 28.8311 99.502 58.498s44.5 62 58.5 97s23 68.833 27 101.5s6 57 6 73v264c-2.66699 18.667 -7.33398 34.667 -14.001 48s-18 22.666 -34 27.999c18.667 8 34.667 11.333 48 10v316c-21.333 9.33301 -40 21.333 -56 36
c8 14.667 15 26.834 21 36.501s12 18.5 18 26.5l17.5 23l18.5 25c16 -28 43.667 -52.5 83 -73.5s78.666 -36.167 117.999 -45.5c-12 -6.66699 -24.167 -12.667 -36.5 -18s-24.5 -10 -36.5 -14v-664c0 -33.333 -6.33301 -69.166 -19 -107.499s-32.667 -74.166 -60 -107.499
s-62.5 -60.5 -105.5 -81.5s-94.167 -31.5 -153.5 -31.5zM61.002 1042c2 22.667 6.33301 47.167 13 73.5s14.5 54.833 23.5 85.5s17.5 63.667 25.5 99c6.66699 34.667 10 66 10 94s-7.33301 49.667 -22 65c18.667 -12 36 -24.833 52 -38.5s27.333 -29.834 34 -48.501
c14.667 -32 22 -66 22 -102c0 -10 -0.666992 -20 -2 -30l-16 -138c-2.66699 -21.333 -4 -42 -4 -62c0 -21.333 1.66699 -42 5 -62c5.33301 -39.333 28 -72.333 68 -99c-34.667 4 -63.834 9.33301 -87.501 16s-43.167 14.667 -58.5 24s-27.166 18.833 -35.499 28.5
s-14.5 19.834 -18.5 30.501c-6.66699 16 -10 33 -10 51c0 4 0.333008 8.33301 1 13z" />
    <glyph glyph-name="K" unicode="K" horiz-adv-x="505" 
d="M-32 1038c33.333 0 62.6689 -5.33105 88.002 -15.998c13.333 49.333 41.333 89.333 84 120c40.667 30 94.334 45 161.001 45h9c-28 -9.33301 -49.5 -24 -64.5 -44s-26.5 -41.833 -34.5 -65.5s-12.667 -46.834 -14 -69.501s-2 -42 -2 -58v-276l33 30
c11.333 10.667 22.666 22.667 33.999 36c34.667 41.333 57.667 80.666 69 117.999c4 13.333 6 25 6 35c0 18 -6.33301 31.333 -19 40c28 -8 45.667 -22.333 53 -43c4.66699 -13.333 7 -27.333 7 -42c0 -8 -0.666992 -16.333 -2 -25c-4 -24 -11.667 -47.5 -23 -70.5
s-23 -41.833 -35 -56.5c34.667 -21.333 70.5 -32 107.5 -32s66.167 14 87.5 42c-2.66699 -21.333 -12.667 -41.666 -30 -60.999s-38.333 -35.333 -63 -48l26.5 -22c9.66699 -8 19.834 -15.333 30.501 -22h-1c-16.667 0 -26.334 -26 -29.001 -78v-380
c0.666992 -66 -21 -121.667 -65 -167c-42.667 -44.667 -106 -67 -190 -67h-7c28 9.33301 49.5 23.833 64.5 43.5s26.5 41.5 34.5 65.5s12.667 47.333 14 70s2 41.667 2 57v225c-2.66699 18.667 -7.33398 34.667 -14.001 48s-17.667 22.666 -33 27.999
c20 6.66699 35.667 10 47 10v167c-16 2.66699 -32.167 7 -48.5 13s-31.833 14 -46.5 24l-10 -8v-63v-125v-293c16 1.33301 28.667 -3 38 -13s16 -28 20 -54c-8 8 -20.667 10.667 -38 8s-35.333 -7.66699 -54 -15l-54.5 -22c-17.667 -7.33301 -32.5 -11 -44.5 -11
c-18.667 5.33301 -35.667 17.666 -51 36.999c-8.66699 10.667 -13 23.667 -13 39c0 12 2.66699 25.667 8 41c6.66699 -13.333 17 -20.666 31 -21.999s34 0 60 4c-16 2.66699 -28.167 8 -36.5 16s-12.5 20.667 -12.5 38v157c-2.66699 18.667 -7.33398 34 -14.001 46
s-18 20.667 -34 26c20 6.66699 36 10 48 10v8v121c0 20 -2 33.333 -6 40c-6.66699 9.33301 -20 16 -40 20c14.667 0 30 1.66699 46 5v277v12c0 12 -1 25.167 -3 39.5s-6 28.5 -12 42.5s-14 26.667 -24 38s-23.667 20.333 -41 27z" />
    <glyph glyph-name="L" unicode="L" horiz-adv-x="248" 
d="M-28 1038c33.333 0 62.667 -5.33203 88 -15.999c13.333 49.333 41.333 89.333 84 120c40.667 30 94.334 45 161.001 45h9c-28 -9.33301 -49.5 -24 -64.5 -44s-26.5 -41.833 -34.5 -65.5s-12.667 -46.834 -14 -69.501s-2 -42 -2 -58v-853c0 -16 0.666992 -35.167 2 -57.5
s6 -45.5 14 -69.5s19.5 -45.833 34.5 -65.5s36.5 -34.167 64.5 -43.5h-7c-83.333 0.666992 -146.333 23 -189 67c-44 45.333 -66 101 -66 167v227c-2.66699 18.667 -7.33398 34.667 -14.001 48s-18 22.666 -34 27.999c20 6.66699 36 10 48 10v471v4
c0 10.667 -0.666992 23.5 -2 38.5s-4.66602 30.167 -9.99902 45.5s-13.333 29.333 -24 42s-25.334 22.334 -44.001 29.001z" />
    <glyph glyph-name="M" unicode="M" horiz-adv-x="717" 
d="M-20 712c8 12 14.998 24.502 20.998 37.502s14 26.167 24 39.5s23.167 26 39.5 38s38.5 23.333 66.5 34c12 -10.667 22 -22 30 -34s14.667 -23.333 20 -34c14.667 10.667 28.667 22.667 42 36s26.333 27.333 39 42c18.667 -26.667 42.334 -47 71.001 -61
c22 -10.667 43.667 -16 65 -16c6 0 12 0.333008 18 1c26 18.667 51.667 44 77 76c14.667 -20 32.334 -36.667 53.001 -50s41.167 -22 61.5 -26s40.5 -3 60.5 3s36 18.333 48 37c-4 -28 -19.333 -55 -46 -81v-659c0 -66 -22 -121.667 -66 -167
c-43.333 -44.667 -106.333 -67 -189 -67h-7c28 9.33301 49.5 23.833 64.5 43.5s26.5 41.5 34.5 65.5s12.667 47.333 14 70s2 41.667 2 57v225c-2.66699 18.667 -7.33398 34.667 -14.001 48s-18 22.666 -34 27.999c20 6.66699 36 10 48 10v296c-14.667 2.66699 -29 7 -43 13
s-27.667 14.333 -41 25l-10 -8v-64v-505c25.333 -8 49.333 -22 72 -42l-21 -37.5c-6 -10.333 -12 -19.5 -18 -27.5s-12 -15.333 -18 -22s-12 -14.667 -18 -24c-16 28 -43.667 52.5 -83 73.5s-78.666 36.167 -117.999 45.5c10.667 5.33301 20.5 10 29.5 14l27.5 12v163
c-2.66699 18.667 -7.33398 35 -14.001 49s-17.667 23.667 -33 29c20 6.66699 35.667 10 47 10v258c0 20 -1.33301 32.667 -4 38l-2 2c-22.667 5.33301 -45 17.333 -67 36l-10 -8v-64v-547c16 1.33301 28.667 -3 38 -13s16.333 -28 21 -54
c-9.33301 8 -22.166 10.667 -38.499 8s-34.166 -7.66699 -53.499 -15l-55.5 -22c-17.667 -7.33301 -32.5 -11 -44.5 -11c-18.667 5.33301 -35.667 17.666 -51 36.999c-8.66699 10.667 -13 23.667 -13 39c0 12 2.66699 25.667 8 41c6.66699 -13.333 17 -20.666 31 -21.999
s34 0 60 4c-14.667 2.66699 -26.5 8 -35.5 16s-13.5 20.667 -13.5 38v153c-2.66699 18.667 -7.33398 34.667 -14.001 48s-18 22.666 -34 27.999c20 6.66699 36 10 48 10v250c-2.66699 14.667 -8.66699 28 -18 40s-27.333 16.667 -54 14z" />
    <glyph glyph-name="N" unicode="N" horiz-adv-x="489" 
d="M-16 726c8 12 15.001 24.498 21.001 37.498s14 25.833 24 38.5s23.167 25 39.5 37s38.5 23.333 66.5 34c25.333 -22.667 43.333 -48.667 54 -78c14.667 10.667 28.5 22.667 41.5 36l41.5 42c16 -20 35.667 -36.667 59 -50s46.333 -22 69 -26
c9.33301 -1.33301 18.666 -2 27.999 -2c13.333 0 26.666 1.66699 39.999 5c22 6 40.333 18.333 55 37c-2.66699 -17.333 -10 -33.5 -22 -48.5s-27.333 -29.167 -46 -42.5v-649c0.666992 -66 -21 -121.667 -65 -167c-42.667 -44.667 -106 -67 -190 -67h-7
c28 9.33301 49.5 23.833 64.5 43.5s26.5 41.5 34.5 65.5s12.667 47.333 14 70s2 41.667 2 57v219c-1.33301 20 -5.33301 37.333 -12 52s-18.667 24.667 -36 30c14.667 6.66699 30.667 10 48 10v296c-34.667 2.66699 -66.334 15.334 -95.001 38.001l-10 -8v-611
c16 1.33301 28.667 -3 38 -13s16.333 -28 21 -54c-9.33301 8 -22.166 10.667 -38.499 8s-34.166 -7.66699 -53.499 -15l-56 -22c-18 -7.33301 -32.667 -11 -44 -11c-18.667 5.33301 -35.667 17.666 -51 36.999c-8.66699 10.667 -13 23.667 -13 39c0 12 2.66699 25.667 8 41
c6.66699 -13.333 17 -20.666 31 -21.999s34 0 60 4c-14.667 2.66699 -26.5 8 -35.5 16s-13.5 20.667 -13.5 38v149c-2.66699 18.667 -7 35.334 -13 50.001s-17.667 24.667 -35 30c14.667 6.66699 30.667 10 48 10v230c0 24 -3.66699 44.667 -11 62
c-6.66699 16 -24.667 24 -54 24h-7z" />
    <glyph glyph-name="O" unicode="O" horiz-adv-x="542" 
d="M-4 398c10.667 4 19.998 6.66602 27.998 7.99902s15.333 2 22 2v175c-2.66699 51.333 -12.334 77 -29.001 77h-1c18.667 12 35.5 24.667 50.5 38l44.5 38c-21.333 13.333 -39.166 28.5 -53.499 45.5s-22.833 34.833 -25.5 53.5c12 -18.667 29.333 -31 52 -37
c13.333 -3.33301 27 -5 41 -5c9.33301 0 19.333 0.666992 30 2c25.333 4 49.5 12.667 72.5 26s41.833 30 56.5 50c74 -91.333 157.667 -139.666 251 -144.999c-18.667 -6.66699 -30.667 -14 -36 -22c-2.66699 -5.33301 -4 -18 -4 -38v-535c6.66699 2.66699 13 5 19 7
s12.333 5.66699 19 11l-27 -39c-8.66699 -12.667 -18.667 -25.5 -30 -38.5s-24.5 -25.5 -39.5 -37.5s-33.833 -23.333 -56.5 -34c-40 13.333 -83.5 30 -130.5 50s-91.167 34.333 -132.5 43c-29.333 -2.66699 -51.166 -8.16699 -65.499 -16.5s-30.166 -18.5 -47.499 -30.5
c6.66699 16 15.334 32.167 26.001 48.5s24 31.833 40 46.5c-16 24 -24 56 -24 96v79c-2.66699 20 -7.33398 37.333 -14.001 52s-18.667 24.667 -36 30zM192.998 214.999c0 -8 0.667969 -15.999 2.00098 -23.999c22.667 -4 47.167 -10 73.5 -18l79.5 -24v167
c-2.66699 18.667 -7 35.667 -13 51s-18.333 25.666 -37 30.999c10.667 4 20 6.66699 28 8s15.333 2 22 2v262v64l-10 8c-22.667 -18.667 -46 -30.667 -70 -36c-12 -2.66699 -24.333 -4 -37 -4s-25.334 1.33301 -38.001 4v-467v-24z" />
    <glyph glyph-name="P" unicode="P" horiz-adv-x="516" 
d="M-78 -272c28 9.33301 49.6689 23.8359 65.002 43.5029s26.666 41.5 33.999 65.5s11.666 47.5 12.999 70.5s2 42.5 2 58.5v108c-6.66699 -2.66699 -14 -6 -22 -10s-16 -9.33301 -24 -16c13.333 28 28.666 47.667 45.999 59v213c-1.33301 18.667 -5.33301 35 -12 49
s-18.667 23.667 -36 29c14.667 6.66699 30.667 10 48 10v258c0 18.667 -1.33301 32 -4 40c-5.33301 6.66699 -18.666 13.334 -39.999 20.001c52 2.66699 98.5 16.167 139.5 40.5s82.167 59.833 123.5 106.5c16 -21.333 35.167 -38.666 57.5 -51.999s45.5 -22 69.5 -26
c9.33301 -1.33301 18.666 -2 27.999 -2c14.667 0 28 1.66699 40 5c21.333 6 39 18.333 53 37c-4 -24 -17.333 -47 -40 -69v-494c0 -56.667 -16.5 -99.334 -49.5 -128.001s-87.167 -46.334 -162.5 -53.001c30 -8.66699 57.667 -14.334 83 -17.001
c2.66699 0 5.33398 -0.333008 8.00098 -1c22 0 42 8 60 24c-17.333 -32 -34 -54.5 -50 -67.5s-33.333 -20.167 -52 -21.5c-22.667 -2.66699 -43.167 -0.333984 -61.5 6.99902s-36.833 15.666 -55.5 24.999v-78c0.666992 -66.667 -21 -122.667 -65 -168
c-42.667 -44.667 -105.667 -66.667 -189 -66h-7zM183.002 111.003c4 -1.33301 8.33203 -2.66602 12.999 -3.99902s9 -2.66602 13 -3.99902c45.333 21.333 74.833 48.666 88.5 81.999s20.5 63 20.5 89v40c-2.66699 20 -7 37.667 -13 53s-18.333 25.666 -37 30.999
c9.33301 4 18.333 6.66699 27 8s16.334 2 23.001 2v294c-21.333 0 -42.5 3 -63.5 9s-40.833 16.333 -59.5 31l-12 -8v-623z" />
    <glyph glyph-name="Q" unicode="Q" horiz-adv-x="582" 
d="M4 396c17.333 8 33.3291 12.0049 47.9961 12.0049v175c0 50 -8.33301 75 -25 75h-3c18.667 13.333 35.834 26.666 51.501 39.999l45.5 40c-22.667 12 -41.167 26.5 -55.5 43.5s-22.833 34.833 -25.5 53.5c12 -18.667 30 -31 54 -37c14.667 -3.33301 30 -5 46 -5
c10 0 20.333 0.666992 31 2c26.667 4 52.5 12.667 77.5 26s44.833 30 59.5 50c72.667 -90 156.334 -138.333 251.001 -145c-18.667 -6.66699 -30.667 -14 -36 -22c-2.66699 -5.33301 -4 -18 -4 -38v-537c8 2.66699 15.333 5 22 7s14 6.33301 22 13l-31 -42.5
c-10 -13.667 -21.667 -27.834 -35 -42.501c9.33301 -13.333 18 -28.666 26 -45.999c4.66699 -11.333 7 -23.333 7 -36c0 -10 -1.33301 -20 -4 -30c-6 -24.667 -21.667 -54.334 -47 -89.001c2.66699 10 4 19.667 4 29c0 16 -3.66699 31.333 -11 46
c-11.333 24 -26.666 48 -45.999 72c-2.66699 -2.66699 -5.33398 -4.33398 -8.00098 -5.00098s-5.33398 -2.33398 -8.00098 -5.00098l-67 23l-74.5 27c-25 9.33301 -50.167 17.833 -75.5 25.5s-48 13.5 -68 17.5c-29.333 -2.66699 -51.166 -8.16699 -65.499 -16.5
s-30.166 -18.5 -47.499 -30.5c6.66699 16 15.334 31.833 26.001 47.5s23.334 30.834 38.001 45.501c-6.66699 13.333 -12.334 27.666 -17.001 42.999s-7 33 -7 53v77c-1.33301 20 -5 37.667 -11 53s-18.333 25.666 -37 30.999zM198.996 239.005
c0 -8 0.334961 -16.002 1.00195 -24.002s1.66699 -16 3 -24c24 -4 53.667 -11.333 89 -22c-10.667 21.333 -16 44 -16 68v7c1.33301 26.667 14.666 55.334 39.999 86.001c-2.66699 -14 -4 -27.333 -4 -40c0 -22 4 -40.667 12 -56c12 -23.333 28 -43.666 48 -60.999v147
c-2.66699 18.667 -7.33398 35 -14.001 49s-18 23 -34 27c17.333 8 33.333 12 48 12v262v64l-10 8c-22.667 -20 -48.667 -32.333 -78 -37c-11.333 -2 -23 -3 -35 -3c-16 0 -32 2 -48 6z" />
    <glyph glyph-name="R" unicode="R" horiz-adv-x="403" 
d="M2 398c14.667 6.66699 30.666 10 47.999 10v260c0 20 -2 33.333 -6 40s-16 13.334 -36 20.001c95.333 8 179.333 57 252 147c8 -17.333 16.333 -30 25 -38s18 -12.667 28 -14s22.333 -0.666016 37 2.00098s32 6.66699 52 12c-4 -22.667 -11 -44.834 -21 -66.501
s-23.333 -38.5 -40 -50.5s-36.167 -17 -58.5 -15s-48.166 15 -77.499 39l-8 -8v-613c8 0 20.167 2 36.5 6s33.5 5 51.5 3s34 -8.66699 48 -20s22.333 -30.666 25 -57.999c-8 8 -26 10.667 -54 8s-57.833 -7.33398 -89.5 -14.001s-61.667 -13.667 -90 -21
s-48.5 -11 -60.5 -11c-18.667 5.33301 -35.667 17.666 -51 36.999c-8.66699 10.667 -13 23.667 -13 39c0 12 2.66699 25.667 8 41c6.66699 -13.333 17 -20.666 31 -21.999s34 0 60 4c-14.667 2.66699 -26.5 8 -35.5 16s-13.5 20.667 -13.5 38v145
c-2.66699 20 -7 37.667 -13 53s-17.667 25.666 -35 30.999z" />
    <glyph glyph-name="S" unicode="S" horiz-adv-x="572" 
d="M-21 88c-0.666992 6.66699 -0.995117 13.3359 -0.995117 20.0029c0 26.667 5.66699 51.667 17 75c14 29.333 35.167 54.5 63.5 75.5s62.5 33.5 102.5 37.5c8.66699 0.666992 17.334 1 26.001 1c48.667 -0.666992 91.667 -13.667 129 -39c44 -30.667 77.333 -71 100 -121
l23.5 -55.5c6.33301 -15.667 9.5 -36.834 9.5 -63.501c9.33301 13.333 16.666 26.666 21.999 39.999c14 30.667 21 59.667 21 87v9c-2 29.333 -10 56.333 -24 81s-31.833 46.667 -53.5 66s-44.5 36.333 -68.5 51c-2.66699 2.66699 -5.33398 4 -8.00098 4
c-16 9.33301 -31.333 14.666 -46 15.999s-27.667 -3.33398 -39 -14.001c1.33301 16 5.66602 29.333 12.999 40l-58.5 31.5c-19 10.333 -37.167 20.833 -54.5 31.5c-38 34 -59.667 69.667 -65 107c-4 30 -6 63.333 -6 100v30c-1.33301 1.33301 -2 2.33301 -2 3
s-0.666992 1.66699 -2 3c-4 9.33301 -16.667 16 -38 20c53.333 4 98.5 17.833 135.5 41.5s75.833 58.834 116.5 105.501c16 -20 35.667 -40 59 -60s47.166 -36.5 71.499 -49.5s47.166 -20.833 68.499 -23.5s38 2.66602 50 15.999c-5.33301 -8 -11.333 -15.333 -18 -22
l-20 -20c-12 -13.333 -22 -25 -30 -35s-13.667 -21 -17 -33s-4.66602 -25.167 -3.99902 -39.5s3.66699 -32.166 9 -53.499c-62 26 -105.333 49.667 -130 71c-17.333 14.667 -26 32 -26 52c0 8.66699 1.66699 17.334 5 26.001c-22.667 10.667 -45 24 -67 40l-12 -6v-66v-4
c4 -22.667 10.167 -40.834 18.5 -54.501s19.166 -25.167 32.499 -34.5s27.666 -17.666 42.999 -24.999l49 -23c40 -20 78.5 -41.833 115.5 -65.5s62.833 -54.834 77.5 -93.501c12 -32.667 18 -65 18 -97c0 -24.667 -3.66699 -49.334 -11 -74.001
c-16.667 -56 -42 -107.5 -76 -154.5s-71.5 -88 -112.5 -123s-75.5 -59.833 -103.5 -74.5c7.33301 36 11 72.667 11 110c0 11.333 -0.333008 22.333 -1 33c-2.66699 48 -19 90.333 -49 127c-12 14.667 -27 26.334 -45 35.001s-36.667 13.667 -56 15
s-37.833 -1.33398 -55.5 -8.00098s-33.167 -18 -46.5 -34c-13.333 -15.333 -21.333 -33.666 -24 -54.999c-1.33301 -8.66699 -2 -17.667 -2 -27c0 -14 1.33301 -29 4 -45c-22.667 28 -35.667 58.667 -39 92z" />
    <glyph glyph-name="T" unicode="T" horiz-adv-x="292" 
d="M-209 1042c32.667 -42.667 72.3359 -70.666 119.003 -83.999c32.667 -9.33301 67.667 -14 105 -14c16.667 0 33.667 0.666992 51 2c-5.33301 18.667 -13 36.667 -23 54s-26.333 29.333 -49 36h10c26.667 0 52 -4.66699 76 -14
c13.333 49.333 41.166 89.166 83.499 119.499s99.166 45.5 170.499 45.5c-24 -8 -43.5 -20.333 -58.5 -37s-26.5 -34.834 -34.5 -54.501s-13.667 -39.834 -17 -60.501s-5 -39.667 -5 -57c58 17.333 117.167 38 177.5 62l175 70.5c56.333 23 110 43.167 161 60.5
s95.833 28 134.5 32c45.333 -6.66699 93.166 -24 143.499 -52s96.5 -73.667 138.5 -137c-36.667 28 -77 46.333 -121 55c-27.333 5.33301 -56 8 -86 8c-18.667 0 -38 -1 -58 -3c-52 -5.33301 -105.667 -15 -161 -29s-111.5 -30.333 -168.5 -49l-171 -54.5
c-57 -17.667 -111.833 -32.5 -164.5 -44.5v-722v-52c16 0 28.5 -4.66699 37.5 -14s15.5 -27.666 19.5 -54.999c-8 8 -20.5 10.667 -37.5 8s-34.833 -7.66699 -53.5 -15l-55 -22c-18 -7.33301 -33 -11 -45 -11c-19.333 6.66699 -36.333 19.667 -51 39
c-8 10.667 -12 23.334 -12 38.001c0 12 2.66699 25.333 8 40c6.66699 -12 17 -18.667 31 -20s34 0 60 4c-14.667 2.66699 -26.5 7.66699 -35.5 15s-13.5 20.333 -13.5 39v143c-2.66699 21.333 -7 39.333 -13 54s-18.333 24.667 -37 30c21.333 8 38 11.333 50 10v469h-20
c-56.667 0.666992 -106.667 11 -150 31c-48.667 22.667 -85.667 68 -111 136z" />
    <glyph glyph-name="U" unicode="U" horiz-adv-x="526" 
d="M-64 855c87.333 0 152.999 -23.499 196.999 -70.499s66 -105.167 66 -174.5v-31v-386v-64l10 -8c30.667 26.667 64.334 40 101.001 40v6v4v151c-2.66699 18.667 -7.33398 35 -14.001 49s-18 23.667 -34 29c20 6.66699 36 10 48 10v397
c59.333 -49.333 122.333 -75.666 189 -78.999c-20 -6.66699 -32 -14 -36 -22c-4 -4 -6 -16.667 -6 -38v-463c2.66699 -14.667 8.33398 -27.667 17.001 -39s27 -16.333 55 -15c-8 -12 -15.333 -24.667 -22 -38s-14.667 -26.166 -24 -38.499s-22.166 -24.833 -38.499 -37.5
s-38.5 -24.334 -66.5 -35.001c-17.333 17.333 -31.333 34.666 -42 51.999c-28 -12 -52.667 -32.667 -74 -62c-74 91.333 -157.333 139.666 -250 144.999c20 6.66699 31.333 14 34 22c4 4 6 16.667 6 38v127c-2.66699 18.667 -7.33398 34.667 -14.001 48
s-18 22.666 -34 27.999c20 6.66699 36 10 48 10v169v27c0 16 -0.666992 36.333 -2 61s-6 49.167 -14 73.5s-19.667 46.833 -35 67.5s-37 36.334 -65 47.001z" />
    <glyph glyph-name="V" unicode="V" horiz-adv-x="509" 
d="M-4 394c20 6.66699 36.001 10 48.001 10v202c-2.66699 52 -12.334 78 -29.001 78h-1c36 22.667 66.833 46.834 92.5 72.501s53.834 43.834 84.501 54.501v-238v-386v-64l50 -8c20 16 40.333 27.333 61 34v165c-2.66699 18.667 -7 35.334 -13 50.001
s-17.333 24.667 -34 30c14.667 6.66699 30.334 10 47.001 10v354c0 16 -0.666992 35.5 -2 58.5s-6 46.167 -14 69.5s-19.5 45.166 -34.5 65.499s-36.5 35.166 -64.5 44.499c87.333 0 152.833 -22.5 196.5 -67.5s65.5 -101.167 65.5 -168.5v-639
c18.667 -13.333 34 -28.5 46 -45.5s19.333 -34.833 22 -53.5c-12 17.333 -27.667 29.333 -47 36s-39.5 8 -60.5 4s-41.833 -12.667 -62.5 -26s-38.334 -30 -53.001 -50c-18.667 22.667 -39.5 42.667 -62.5 60s-47.5 31.833 -73.5 43.5s-52.167 21.167 -78.5 28.5
s-51.5 11.666 -75.5 12.999c20 6.66699 31.333 14 34 22c4 4 6 14.667 6 32v131c-2.66699 18.667 -7.33398 35 -14.001 49s-18 23.667 -34 29z" />
    <glyph glyph-name="W" unicode="W" horiz-adv-x="709" 
d="M-4 392c21.333 8 38.001 11.335 50.001 10.002v262c0 18.667 -2 31.334 -6 38.001c-4 9.33301 -16 16 -36 20c70 6.66699 133 33.667 189 81v-682l10 -6c22.667 18.667 45 30 67 34l2 2c2.66699 8 4 21.333 4 40v113c-1.33301 21.333 -5 40 -11 56s-18 26.667 -36 32
c18.667 8 34.334 11.333 47.001 10v318c-17.333 8 -34.333 19.333 -51 34c2.66699 22.667 16.5 43.5 41.5 62.5s52.833 34.5 83.5 46.5c16 -28 35.167 -52.167 57.5 -72.5s53.5 -34.5 93.5 -42.5l-39 -19c-12.667 -6 -25.334 -11 -38.001 -15v-527v-66l9 -6
c13.333 10.667 27 19 41 25s28.333 10.333 43 13v155c-2.66699 20 -7 37.667 -13 53s-18.333 25.666 -37 30.999c20 8 36.667 11.333 50 10v356c0 16 -0.666992 35.5 -2 58.5s-6 46.167 -14 69.5s-19.667 45.166 -35 65.499s-36.666 35.166 -63.999 44.499
c86 0 151.167 -22.833 195.5 -68.5s66.5 -101.5 66.5 -167.5v-659c26.667 -26.667 42 -53 46 -79c-12 17.333 -28 29 -48 35s-40.167 7 -60.5 3s-40.833 -12.667 -61.5 -26s-38.334 -30 -53.001 -50c-24 29.333 -49.667 55.333 -77 78c-4 0.666992 -8.33301 1 -13 1
c-22.667 0 -46 -6 -70 -18c-28.667 -14 -52.334 -34.333 -71.001 -61c-32 38.667 -68.667 71.834 -110 99.501s-88.666 43.5 -141.999 47.5c18.667 4 30.667 10.667 36 20c4 5.33301 6 18.666 6 39.999v113c-1.33301 21.333 -5.33301 40 -12 56s-19.334 26.667 -38.001 32z
" />
    <glyph glyph-name="X" unicode="X" horiz-adv-x="548" 
d="M-20 781c44 21.333 86.334 51.334 127.001 90.001c52 -16 90.667 -50.333 116 -103c14.667 -22.667 38.334 -91.667 71.001 -207l24 75.5l34 101.5c2.66699 8 5.33398 15.5 8.00098 22.5l8 20.5c-16 -2.66699 -31.667 -4 -47 -4s-29 3.33301 -41 10
c-16 8 -26.333 29.333 -31 64c9.33301 -8 22.166 -10.667 38.499 -8s34.166 7.66699 53.499 15l56 22c18 7.33301 32.667 11 44 11c18.667 -6.66699 35.667 -19.667 51 -39c8.66699 -10.667 13 -23.667 13 -39c0 -12 -2.66699 -25.333 -8 -40v2h-2v2h-2
c-6.66699 9.33301 -15.334 13.666 -26.001 12.999s-20 -5 -28 -13c-2.66699 -4 -7.5 -14.5 -14.5 -31.5s-14.833 -37.167 -23.5 -60.5l-25 -70.5l-20 -59.5l-16 -48h125l-49 -42h-88l-6 -20c12 -34.667 24.333 -68 37 -100s26.334 -62.667 41.001 -92
c41.333 -83.333 89.666 -133.333 144.999 -150c-18.667 -13.333 -38.667 -28.5 -60 -45.5s-43.666 -36.833 -66.999 -59.5c-50.667 18.667 -93.334 57 -128.001 115c-6.66699 9.33301 -13.334 22.333 -20.001 39s-18.334 50.334 -35.001 101.001
c-4 -16 -8.33301 -34.667 -13 -56s-11.667 -45.333 -21 -72c5.33301 0 12 -2.66699 20 -8c16 -8 26.667 -28.333 32 -61c-9.33301 8 -22.333 10.667 -39 8s-34.667 -7.66699 -54 -15l-55.5 -22c-17.667 -7.33301 -32.5 -11 -44.5 -11
c-18.667 5.33301 -35.667 17.666 -51 36.999c-8.66699 10.667 -13 23.667 -13 39c0 12 2.66699 25.667 8 41c6.66699 -13.333 18 -20.666 34 -21.999c10.667 -1.33301 21.167 -1.33301 31.5 0s20.833 3.33301 31.5 6c4 1.33301 8 3 12 5s7.33301 4.33301 10 7
c4 5.33301 9 13.666 15 24.999s11.667 24 17 38s10.333 28 15 42s7.66699 26 9 36c0 2.66699 0.666992 4.66699 2 6c0 28 -2.66699 53.667 -8 77s-19.333 38.333 -42 45c9.33301 4 18.333 6.66699 27 8s16.334 2 23.001 2c-4 13.333 -8 32.333 -12 57h-145l38 42h95
c-17.333 56 -40.666 113 -69.999 171c-29.333 56.667 -65 91 -107 103z" />
    <glyph glyph-name="Y" unicode="Y" horiz-adv-x="507" 
d="M-66 851c44 0 82.166 -6 114.499 -18s59.5 -28.833 81.5 -50.5s38.667 -47.834 50 -78.501s17 -63.334 17 -98.001v-348v-38.5c0 -15 1.33301 -30.5 4 -46.5c22.667 -9.33301 42.167 -18.333 58.5 -27s32.5 -16.334 48.5 -23.001v201
c-2.66699 17.333 -7.33398 32.333 -14.001 45s-18 21 -34 25c18.667 8 34.667 11.333 48 10v407c30.667 -10.667 58.834 -28.5 84.501 -53.5s55.834 -48.833 90.501 -71.5c-17.333 0 -26.666 -26 -27.999 -78v-423v-68c6.66699 4 13.334 8.33301 20.001 13l22 15
c-10.667 -24 -24.667 -47.667 -42 -71v-124c0 -20.667 2 -33.667 6 -39c8 -9.33301 21.333 -16 40 -20c-53.333 -4 -100.5 -18 -141.5 -42s-81.833 -59 -122.5 -105c-16 21.333 -35.333 38.5 -58 51.5s-45.667 21.5 -69 25.5c-9.33301 1.33301 -18.333 2 -27 2
c-14 0 -28 -2 -42 -6c-22 -6.66699 -39.667 -18.667 -53 -36c4 22.667 16.333 45 37 67s45.667 38.667 75 50c26 10.667 54.333 16 85 16h13c35.333 -2 68.666 -15 99.999 -39l10 6v65v54c-38.667 6.66699 -77.167 18.334 -115.5 35.001s-72.833 27.667 -103.5 33
c-25.333 -2.66699 -43.5 -5 -54.5 -7s-22.5 -8.33301 -34.5 -19l33 47.5c11.333 15.667 25 31.5 41 47.5c-16 24 -24 63.333 -24 118v67c-2.66699 18.667 -7.33398 34.334 -14.001 47.001s-18 21 -34 25c18.667 8 34.667 11.333 48 10v200c0 16 -0.666992 36 -2 60
s-6 48.167 -14 72.5s-19.667 46.833 -35 67.5s-37 36.334 -65 47.001z" />
    <glyph glyph-name="Z" unicode="Z" horiz-adv-x="558" 
d="M-14 42l24.001 33.501c8 11.667 17.333 22.834 28 33.501l201 384c-16 6.66699 -32.333 9.66699 -49 9s-36.334 -7 -59.001 -19c18.667 30.667 39 49.334 61 56.001c12 4 24.667 6 38 6c10.667 0 21.334 -1.33301 32.001 -4l86 163
c-42.667 2.66699 -82.334 16 -119.001 40l-10 -8v-6c5.33301 -12 8 -25.667 8 -41s-4 -32 -12 -50s-21.667 -36.833 -41 -56.5s-46.333 -39.5 -81 -59.5c8.66699 28 13 52.333 13 73c0 16 -2.66699 30 -8 42c-13.333 26.667 -33.333 54 -60 82
c-6.66699 4 -14.667 6.66699 -24 8c59.333 2.66699 110 16.167 152 40.5s85.333 59.833 130 106.5c18.667 -21.333 40.667 -38.666 66 -51.999s51.333 -22 78 -26c10.667 -1.33301 21 -2 31 -2c15.333 0 30 1.66699 44 5c24 6 44 18.333 60 37
c-4 -22.667 -18 -45.334 -42 -68.001l-139 -266c16 -2.66699 31.167 -3.66699 45.5 -3s27.5 6.33398 39.5 17.001c-16 -26.667 -31.167 -48.334 -45.5 -65.001s-28.833 -25 -43.5 -25c-9.33301 0 -20.666 1.33301 -33.999 4l-137 -264
c22.667 -9.33301 42.5 -18.333 59.5 -27s34.833 -16.334 53.5 -23.001l37 42c12.667 14.667 23.667 29.667 33 45s15 30.5 17 45.5s-1.66699 30.5 -11 46.5l66.5 -55.5c17.667 -14.333 31.167 -27.5 40.5 -39.5s14.333 -23.333 15 -34s-3 -22.667 -11 -36
c-44 -74 -107.667 -118.333 -191 -133c-42.667 6.66699 -85.834 18.667 -129.501 36s-82.5 28.666 -116.5 33.999c-26.667 -2.66699 -46 -5.33398 -58 -8.00098s-24.667 -8.66699 -38 -18z" />
    <glyph glyph-name="asciicircum" unicode="^" horiz-adv-x="737" 
d="M151 1412c63.333 38.667 137 106.333 221 203c89.333 -99.333 162.333 -167 219 -203h-66c-32 0 -54 6.66699 -66 20c-25.333 28 -54.333 63 -87 105c-25.333 -32 -55.333 -67.667 -90 -107c-9.33301 -12 -30.333 -18 -63 -18h-68z" />
    <glyph glyph-name="underscore" unicode="_" horiz-adv-x="1105" 
d="M46 535c14.667 0 28.833 3.66699 42.5 11s25.834 16.666 36.501 27.999s18.667 23.833 24 37.5s6.66602 27.834 3.99902 42.501c-1.33301 10.667 -3.66602 20 -6.99902 28s-7 15.333 -11 22h92h35l10 34c4 8 15.333 15.833 34 23.5s32 12.834 40 15.501
c32 10.667 65.5 18 100.5 22s69.167 6 102.5 6s67.5 -2 102.5 -6s68.5 -11.333 100.5 -22c8 -2.66699 21.167 -7.83398 39.5 -15.501s29.5 -15.5 33.5 -23.5l10 -34h36h93c-12 -16 -18.667 -32.667 -20 -50c-2.66699 -14.667 -1.33398 -28.834 3.99902 -42.501
s13.333 -26.167 24 -37.5s23 -20.666 37 -27.999s28.333 -11 43 -11c1.33301 -28 -2.66699 -58.833 -12 -92.5s-18 -60.5 -26 -80.5c-5.33301 -12 -12 -25.333 -20 -40s-17 -29 -27 -43s-21.167 -26.5 -33.5 -37.5s-25.166 -17.833 -38.499 -20.5l-38 -8v-38
c-1.33301 -9.33301 -1.33301 -18 0 -26h-4h-2h-2c-26.667 -2.66699 -51.167 -7.66699 -73.5 -15s-43.5 -21 -63.5 -41c-4 -2.66699 -7.66699 -5.83398 -11 -9.50098s-7 -7.5 -11 -11.5c-20 -21.333 -41.5 -36.666 -64.5 -45.999s-48.5 -16.666 -76.5 -21.999
c-28 5.33301 -53.333 12.666 -76 21.999s-44.334 24.666 -65.001 45.999c-4 4 -7.66699 7.83301 -11 11.5s-7 6.83398 -11 9.50098c-20 20 -41.333 33.667 -64 41s-47 12.333 -73 15h-2h-2h-4c1.33301 5.33301 2 14 2 26l-2 38l-38 8c-13.333 2.66699 -26.333 9.5 -39 20.5
s-24 23.5 -34 37.5s-19 28.333 -27 43s-14.333 28 -19 40c-8 20 -16.667 46.833 -26 80.5s-13.333 64.5 -12 92.5zM57.999 525c0 -10.667 0.672852 -21 2.00586 -31s3.33301 -20.333 6 -31c2.66699 -16 6.5 -32.167 11.5 -48.5s10.833 -31.833 17.5 -46.5
c9.33301 -22.667 24 -49.167 44 -79.5s42.667 -48.833 68 -55.5l46 -10l2 -48v-14c26.667 -2.66699 51.5 -8 74.5 -16s44.5 -22 64.5 -42l24 -23c18.667 -20 38.5 -34 59.5 -42s44.833 -14.667 71.5 -20c26.667 5.33301 50.5 12 71.5 20s40.833 22 59.5 42l24 23
c21.333 20 43.166 34 65.499 42s46.833 13.333 73.5 16v14l2 48l46 10c25.333 6.66699 47.833 25.167 67.5 55.5s34.167 56.833 43.5 79.5c6.66699 14.667 12.667 30.167 18 46.5s9.33301 32.5 12 48.5c2.66699 10.667 4.66699 21 6 31s2 20.333 2 31
c-13.333 1.33301 -25.666 5 -36.999 11s-22.333 13.667 -33 23c-13.333 12 -23.5 26.5 -30.5 43.5s-9.16699 34.833 -6.5 53.5c1.33301 6.66699 2.66602 12.667 3.99902 18s3 11.333 5 18h-71h-44l-14 42c-2.66699 2.66699 -7.33398 5.66699 -14.001 9
s-11.334 6.33301 -14.001 9c-9.33301 5.33301 -21.666 10 -36.999 14c-30.667 10.667 -63.334 17.5 -98.001 20.5s-68.334 4.5 -101.001 4.5c-33.333 0 -67.166 -1.66699 -101.499 -5s-66.833 -10 -97.5 -20c-6.66699 -2.66699 -13 -5 -19 -7s-12.333 -4.33301 -19 -7
c-2.66699 -2.66699 -7.33398 -5.66699 -14.001 -9s-11.334 -6.33301 -14.001 -9l-14 -42h-43h-72c2.66699 -6.66699 4.66699 -12.667 6 -18s2.66602 -11.333 3.99902 -18c1.33301 -8 1.33301 -16 0 -24c-2.66699 -26.667 -14.667 -50.5 -36 -71.5s-45 -32.833 -71 -35.5z
M157.005 505c14.667 -18.667 26.332 -30 34.999 -34s20.334 -8 35.001 -12c-16 1.33301 -32.667 4.33301 -50 9s-24 17 -20 37zM158.003 546c0.666992 12.667 8.99902 24.333 24.999 35c-13.333 -22.667 -13.666 -45.667 -0.999023 -69s30.334 -40.333 53.001 -51
c-10.667 4 -22.334 10.333 -35.001 19s-23 18.667 -31 30s-11.667 23.333 -11 36zM199.002 568.999c5.33301 13.333 13.9844 22.9941 25.9844 28.9941c21.333 14.667 44.5 19.667 69.5 15s42.833 -19.334 53.5 -44.001c-13.333 14.667 -30 23.834 -50 27.501
s-39 1.83398 -57 -5.49902c-26.667 -12 -40.334 -29.333 -41.001 -52s9 -40.667 29 -54c8 -6.66699 16.5 -11 25.5 -13s18.833 -2.33301 29.5 -1c26.667 2.66699 48.334 13 65.001 31s30.334 37.667 41.001 59c10.667 18.667 18.667 36.834 24 54.501s4 29.167 -4 34.5
c5.33301 0 10.833 -1.33301 16.5 -4s9.83398 -7.33398 12.501 -14.001c6.66699 10.667 14.667 18 24 22s17.333 4.66699 24 2c-8 1.33301 -15 -1.33398 -21 -8.00098s-11.667 -15 -17 -25s-9.66602 -20.833 -12.999 -32.5s-6.33301 -22.834 -9 -33.501
c-4 -18.667 -1 -26 9 -22s20.667 12.667 32 26s19.666 27.166 24.999 41.499s0.666016 22.166 -14.001 23.499c9.33301 6.66699 17 7.66699 23 3s7.66699 -11 5 -19c-1.33301 -1.33301 -2 -2.66602 -2 -3.99902s-0.666992 -3.33301 -2 -6l10 2
c8 2.66699 12 3.33398 12 2.00098s-2 -5 -6 -11l-14 -29l-14 -29c-5.33301 -10.667 -6 -16.667 -2 -18c8 -4 15 0.333008 21 13s5.66699 23 -1 31c14.667 -4 19 -12 13 -24s-15.667 -21.333 -29 -28c13.333 -9.33301 16.666 -24 9.99902 -44
c-1.33301 -2.66699 -2 -4.66699 -2 -6s-1.33301 -3.33301 -4 -6c-1.33301 -2.66699 -2.66602 -5.66699 -3.99902 -9s-2.66602 -6.33301 -3.99902 -9c10.667 8 22 13.333 34 16c8 2.66699 13.333 2 16 -2s0.666992 -10.667 -6 -20c0 -4 -2 -5.66699 -6 -5l-13 -23
c-3.33301 -6 -6.33301 -13 -9 -21c-2.66699 -6.66699 -2 -9.66699 2 -9s9.33301 3.66699 16 9c9.33301 10.667 18 23.334 26 38.001v2c5.33301 13.333 4 23 -4 29c6.66699 2.66699 11.334 1.33398 14.001 -3.99902c1.33301 -1.33301 2 -4.66602 2 -9.99902
c6.66699 8 14 15.333 22 22s15.667 8.66699 23 6c5.33301 -1.33301 8.66602 -4.66602 9.99902 -9.99902s1.66602 -11 0.999023 -17s-2.33398 -11.833 -5.00098 -17.5s-5.33398 -10.5 -8.00098 -14.5c-13.333 -13.333 -25 -18 -35 -14c8 1.33301 16.667 8.66602 26 21.999
c2.66699 2.66699 4.16699 5.33398 4.5 8.00098s1.83301 5 4.5 7c2.66699 8 4 15 4 21s-5 3 -15 -9c-6.66699 -6.66699 -13 -15.5 -19 -26.5s-9.66699 -21.833 -11 -32.5c-2.66699 -10.667 -0.333984 -15.334 6.99902 -14.001s13 3.33301 17 6
c5.33301 2.66699 9.83301 6.33398 13.5 11.001l11.5 15c1.33301 5.33301 4.66602 13.333 9.99902 24c4 14.667 3.33301 27.667 -2 39c8 -1.33301 12.667 -4 14 -8c0 -2.66699 0.666992 -4.66699 2 -6c2.66699 6.66699 5 13.334 7 20.001s4.33301 13.334 7 20.001
c0 9.33301 -2 15.333 -6 18c13.333 -2.66699 22 -8 26 -16c2.66699 -6.66699 1.33398 -16 -3.99902 -28c-6.66699 -10.667 -12 -21.334 -16 -32.001c5.33301 0 9.33301 0.666992 12 2c6.66699 5.33301 12.334 10.666 17.001 15.999s7 11.333 7 18c0 4 -2 7.33301 -6 10
c4 0 8.66699 -0.666992 14 -2s8 -5.33301 8 -12s-2.66699 -12.334 -8 -17.001s-10.666 -8.33398 -15.999 -11.001c9.33301 0 17.333 -0.666992 24 -2c8 -2.66699 15.667 -5.5 23 -8.5s14.333 -6.5 21 -10.5c16 -9.33301 31.833 -18 47.5 -26s36.167 -10.667 61.5 -8
c20 2.66699 36 9.33398 48 20.001s20 22.834 24 36.501s4 27.5 0 41.5s-12.667 25 -26 33l-11 -19c-3.33301 -6 -5.66602 -10.333 -6.99902 -13l-8 -21l-8 -21c2.66699 0 4.66699 -0.333008 6 -1s3.33301 -1 6 -1c6.66699 0 13.334 2 20.001 6c-8 0 -10.667 4 -8 12
c2.66699 9.33301 7.33398 14 14.001 14c8 -2.66699 10.667 -7.33398 8 -14.001v-2c-2.66699 -8 -8.33398 -14.167 -17.001 -18.5s-17 -6.5 -25 -6.5c-1.33301 0 -2.66602 0.333008 -3.99902 1s-2.66602 1 -3.99902 1v-2c-2.66699 -9.33301 -2.66699 -16 0 -20
c2.66699 -2.66699 6.66699 -5.33398 12 -8.00098c-20 2.66699 -30 13.667 -30 33c-12 4 -23.333 4.66699 -34 2c-6.66699 -1.33301 -11.667 -3.16602 -15 -5.49902s-6.33301 -4.83301 -9 -7.5c-2.66699 9.33301 -2 17 2 23c5.33301 14.667 15 26.334 29 35.001
s26.333 15.667 37 21c5.33301 2.66699 10 6 14 10l10 10c-1.33301 1.33301 -3.33301 2 -6 2c-20 5.33301 -41 3.66602 -63 -5.00098s-38 -22.334 -48 -41.001c2.66699 13.333 7.5 24.333 14.5 33s15.167 16.334 24.5 23.001c-2.66699 -1.33301 -6 -2 -10 -2
c-12 0 -19.667 4 -23 12c-4 -4 -8.66699 -2 -14 6c1.33301 -1.33301 3.66602 -2 6.99902 -2s6 3.33301 8 10c1.33301 1.33301 2 2.66602 2 3.99902h2c0 2.66699 0.666992 4.66699 2 6c2.66699 6.66699 6.33398 12.334 11.001 17.001l11 11
c-12 -5.33301 -20 -4.66602 -24 2.00098c-1.33301 -16 -9.16602 -32.333 -23.499 -49s-30.166 -25 -47.499 -25h-4c-9.33301 1.33301 -14 9.33301 -14 24c0 -1.33301 -1.33301 -3.33301 -4 -6l-8 -8c-2.66699 -2.66699 -6 -4.66699 -10 -6c25.333 -9.33301 44 -22 56 -38
s12 -32 0 -48c5.33301 9.33301 6 18.666 2 27.999s-11.333 17.666 -22 24.999s-23.334 13.333 -38.001 18s-30 8.33398 -46 11.001c-2.66699 -10.667 -5.33398 -18 -8.00098 -22c-6.66699 -10.667 -15.834 -18.667 -27.501 -24s-23.5 -6.66602 -35.5 -3.99902
c-16 2.66699 -25 8 -27 16s2.33301 16 13 24c-1.33301 0 -2.66602 0.666992 -3.99902 2c-5.33301 1.33301 -7.66602 4.33301 -6.99902 9s2.33398 9.66699 5.00098 15c4 6.66699 8 13 12 19s8 12.333 12 19c-1.33301 0 -4.66602 -1.33301 -9.99902 -4
c-8 -2.66699 -13 -2 -15 2s-1 9.33301 3 16c2.66699 5.33301 7.33398 9 14.001 11c-4 -9.33301 -4.66699 -14.333 -2 -15c2.66699 -4 7.66699 -5 15 -3s13 3.66699 17 5h7c2 0 1.66699 -2 -1 -6c-2.66699 -2.66699 -5.33398 -6 -8.00098 -10s-4.66699 -8 -6 -12
c-5.33301 -8 -9 -15.333 -11 -22s-1 -10 3 -10c8 0 16.333 8 25 24s12.334 28 11.001 36c0 2.66699 -2 5.33398 -6 8.00098c5.33301 0 9.33301 -1.33301 12 -4c6.66699 10.667 15.834 16.167 27.501 16.5s18.167 -7.16699 19.5 -22.5c-5.33301 6.66699 -12.666 8 -21.999 4
c-4 -2.66699 -6.66699 -7.33398 -8 -14.001s-1.33301 -12.667 0 -18c0 -4 0.333008 -7.66699 1 -11s1 -7 1 -11c2.66699 0 4.66699 -0.333008 6 -1s3.33301 -1 6 -1c0 4 1.33301 8.66699 4 14c-1.33301 1.33301 -2.66602 2.33301 -3.99902 3
s-2.66602 2.33398 -3.99902 5.00098c1.33301 0 3 -0.333008 5 -1s4.33301 0.333008 7 3c4 9.33301 8.66699 18.833 14 28.5l16 30.5c-16 -1.33301 -30.667 1 -44 7s-18 17.667 -14 35c0 -14.667 6.66699 -23.667 20 -27s27.333 -3.66602 42 -0.999023
c2.66699 8 4 13.333 4 16c2.66699 10.667 2 18.667 -2 24c12 -8 20 -15.333 24 -22c0 -2.66699 0.333008 -4.33398 1 -5.00098s1 -2.33398 1 -5.00098c22.667 9.33301 46.5 18 71.5 26s51.5 8 79.5 0c28 -9.33301 45.333 -23.333 52 -42c-13.333 22.667 -36 34 -68 34
c-26.667 1.33301 -51.167 -2.66699 -73.5 -12s-44.833 -17.333 -67.5 -24l-2 -2c-5.33301 -10.667 -10 -20.834 -14 -30.501s-8.66699 -19.834 -14 -30.501c-2.66699 -6.66699 -4.66699 -12.667 -6 -18s-0.666016 -8 2.00098 -8c5.33301 0 11 3.33301 17 10s11 14 15 22
c0 2.66699 0.666992 5.33398 2 8.00098l4 8v12c-1.33301 2.66699 -3.33301 5.33398 -6 8.00098c6.66699 0 11.334 -2 14.001 -6c6.66699 9.33301 14.334 18.166 23.001 26.499s17.667 11.166 27 8.49902s13 -11.5 11 -26.5s-6.33301 -25.833 -13 -32.5
c-10.667 -12 -22.667 -16 -36 -12c8 0 16.667 6.66699 26 20c4 4 7.33301 9.33301 10 16c2.66699 8 4.33398 14.833 5.00098 20.5s-4.33301 2.5 -15 -9.5c-6.66699 -6.66699 -13 -15.167 -19 -25.5s-10.333 -20.833 -13 -31.5c-1.33301 -10.667 1.33398 -15 8.00098 -13
s12 4.33301 16 7s9.33301 7.33398 16 14.001c8 9.33301 14.5 20.5 19.5 33.5s4.5 24.833 -1.5 35.5c5.33301 0 9 -1.33301 11 -4c10.667 10.667 23.334 14.667 38.001 12c-6.66699 -2.66699 -12.334 -7 -17.001 -13s-5.66699 -10.333 -3 -13s7.66699 -3.33398 15 -2.00098
s18.333 8.66602 33 21.999c4 0 5.33301 -1.33301 4 -4c-2.66699 -2.66699 -8.66699 -9.16699 -18 -19.5s-15.333 -17.5 -18 -21.5c-4 -6.66699 -8 -15 -12 -25s-2.66699 -15.667 4 -17c6.66699 -2.66699 13.667 -1.33398 21 3.99902l19 14c16 16 22.667 30 20 42
c-1.33301 5.33301 -6.66602 7.66602 -15.999 6.99902c10.667 6.66699 18.667 8.33398 24 5.00098s6.66602 -9.33301 3.99902 -18c-2.66699 -10.667 -8.66699 -20.334 -18 -29.001s-19.333 -16.334 -30 -23.001c20 4 40 2 60 -6c1.33301 1.33301 2 4 2 8
c1.33301 6.66699 0 11.334 -4 14.001c8 1.33301 14.667 -1 20 -7s6 -14.333 2 -25l18 -18c8 -13.333 12.333 -27 13 -41s-2 -27.167 -8 -39.5s-15.333 -23.166 -28 -32.499s-27.667 -16 -45 -20c-6.66699 -2.66699 -15.334 -3.66699 -26.001 -3s-21.334 1.66699 -32.001 3
c-17.333 2.66699 -33.5 8 -48.5 16s-30.5 15.333 -46.5 22c-9.33301 4 -19 7.66699 -29 11s-20.333 1.66602 -31 -5.00098c0 -1.33301 -0.333008 -2 -1 -2s-1 -0.666992 -1 -2c-2.66699 -10.667 -5.33398 -18.667 -8.00098 -24c-2.66699 -8 -2 -15.333 2 -22
c0 -1.33301 0.666992 -2.66602 2 -3.99902c46.667 5.33301 89.167 4.66602 127.5 -2.00098s64.166 -26 77.499 -58c-10.667 18.667 -27.834 31.667 -51.501 39s-50.5 10.333 -80.5 9s-61.167 -5 -93.5 -11s-63.833 -12.667 -94.5 -20s-58.5 -14.333 -83.5 -21
s-44.167 -10 -57.5 -10c-38.667 0 -71.5 7.66699 -98.5 23s-41.833 44.333 -44.5 87c5.33301 -36 21.166 -60 47.499 -72s57.5 -16.667 93.5 -14c21.333 1.33301 55.833 8 103.5 20s97.167 21.333 148.5 28c-5.33301 2.66699 -12 6.66699 -20 12
c-2.66699 2.66699 -4 6.66699 -4 12c-6.66699 -8 -14.5 -15 -23.5 -21s-18.167 -9 -27.5 -9h-6c-12 5.33301 -16 16.666 -12 33.999l-14 -14l-10 -10c-10.667 -8 -18.334 -12 -23.001 -12s-8.33398 1.33301 -11.001 4c-5.33301 6.66699 -4.66602 16 2.00098 28
c4 10.667 9.33301 20.667 16 30c-1.33301 0 -3.33301 1.33301 -6 4c0 2.66699 0.666992 5.66699 2 9c0 -2.66699 2 -3.66699 6 -3c2.66699 0 4.66699 1 6 3c1.33301 2.66699 2 5.33398 2 8.00098c-2.66699 2.66699 -6.33398 2.33398 -11.001 -0.999023
s-7.66699 -5.66602 -9 -6.99902c-1.33301 0 -2 -0.333008 -2 -1c-2.66699 -1.33301 -5.33398 -3.33301 -8.00098 -6l-10 -20c-4 -8 -6.66699 -14.667 -8 -20c-2.66699 -6.66699 -4.66699 -13.667 -6 -21s0.666992 -13 6 -17c-4 2.66699 -7 4 -9 4s-4.33301 0.666992 -7 2
s-6 4 -10 8c-2.66699 4 -2.66699 10.667 0 20c-6.66699 -9.33301 -14.334 -16.666 -23.001 -21.999c-5.33301 -4 -13.666 -8.66699 -24.999 -14s-23.333 -9.33301 -36 -12s-24 -2.66699 -34 0s-16.333 10 -19 22c-1.33301 1.33301 -2 3.33301 -2 6
c-5.33301 -2.66699 -10 0 -14 8c1.33301 -1.33301 4 -1.66602 8 -0.999023s8 5 12 13c2.66699 8 6.33398 15.333 11.001 22l13 18l4 4c-13.333 2.66699 -22 5.66699 -26 9c-10.667 12 -11 21.667 -1 29s19.667 7.66602 29 0.999023
c-6.66699 -1.33301 -12 -4.66602 -16 -9.99902s-4 -10.666 0 -15.999c2.66699 -4 9.33398 -6.33301 20.001 -7c13.333 14.667 28.666 28.167 45.999 40.5s36.333 19.833 57 22.5c6.66699 1.33301 12.667 0.666016 18 -2.00098s5.33301 -9.33398 0 -20.001
c-6.66699 -16 -21.834 -27.833 -45.501 -35.5s-42.834 -11.5 -57.501 -11.5l-11 -17c-4.66699 -7.33301 -8.66699 -14.666 -12 -21.999s-5.33301 -14.666 -6 -21.999s1.66602 -13 6.99902 -17c6.66699 -5.33301 14.334 -7 23.001 -5s17.667 5.66699 27 11
s17.333 11.666 24 18.999s11.334 13 14.001 17c2.66699 6.66699 4.33398 13.334 5.00098 20.001s-4.33301 11.334 -15 14.001c6.66699 5.33301 13.834 7 21.501 5s12.167 -6.33301 13.5 -13c0 -1.33301 0.666992 -2.66602 2 -3.99902
c2.66699 6.66699 5.33398 12.5 8.00098 17.5s5.33398 8.83301 8.00098 11.5s4.33398 5.66699 5.00098 9s2.33398 6.33301 5.00098 9c-2.66699 0 -6 2 -10 6h9c3.33301 0 7 4.66699 11 14c0 2.66699 0.666992 4 2 4c2.66699 5.33301 4 10 4 14
c2.66699 6.66699 2.66699 12 0 16c-13.333 -5.33301 -23.333 -8 -30 -8c-6.66699 2.66699 -9 7.66699 -7 15s4.33301 13 7 17c2.66699 2.66699 4.33398 5.66699 5.00098 9s2.33398 6.33301 5.00098 9c-10.667 -12 -20.667 -22 -30 -30c-16 -12 -24.5 -12.667 -25.5 -2
s-0.166992 24 2.5 40c-4 -10.667 -10 -20.667 -18 -30c-21.333 -32 -49.333 -52 -84 -60c-12 -4 -23.333 -6 -34 -6c-33.333 0 -57.833 11.333 -73.5 34s-18.167 47.334 -7.5 74.001zM275.986 238.993h12l4 -20l6 20h10l6 -20l6 20h8v-4l-8 -28h-10l-6 20l-6 -20h-10z
M327.986 234.993l2 4h8l4 -20l8 20h8l8 -20l4 20h8l2 -4l-10 -28h-10l-6 20l-6 -20h-10zM357.986 425.993c14.667 2.66699 29.333 6.16602 44 10.499s25.667 13.833 33 28.5c4 10.667 4.5 16.334 1.5 17.001s-7.83301 -0.333008 -14.5 -3
c-12 -6.66699 -23.333 -14.667 -34 -24s-20.667 -19 -30 -29zM379.985 234.992v4h8l6 -20l6 20h10l6 -20l4 20h11l-11 -32h-10l-6 20l-6 -20h-10zM425.985 206.992v12h11v-12h-11zM440.985 206.992v31.999h12v-4l4 4h6h4l4 -4c2.66699 2.66699 4.66699 4 6 4h4
c4 0 6.66699 -0.666992 8 -2s2 -4.66602 2 -9.99902v-20h-10v18c0 1.33301 -0.333008 2 -1 2s-1 0.666992 -1 2l-2 2c-1.33301 0 -2 -0.333008 -2 -1s-0.666992 -1 -2 -1v-6v-16h-12v18v2c0 1.33301 -0.666992 2 -2 2c0 1.33301 -0.666992 2 -2 2s-2 -0.666992 -2 -2
c-1.33301 -1.33301 -2 -3.33301 -2 -6v-16h-12zM492.985 126.991c0 17.333 8.66699 26.001 26 26.001c12 0 22 -7.33301 30 -22c0 14.667 -3.66699 26.667 -11 36s-19 13.333 -35 12v6h92v-6c-32 0 -46.667 -16 -44 -48c6.66699 14.667 16.667 22 30 22
c16 0 23.667 -8.66699 23 -26c0 -8 -2 -14.667 -6 -20l-1 2v24l-14 -20l-24 8l14 -20l-14 -19l22 7h2l-2 -2c-8 -6.66699 -14.667 -13.167 -20 -19.5s-9.33301 -14.833 -12 -25.5c-2.66699 10.667 -7 20 -13 28s-13 15 -21 21c-6.66699 5.33301 -12 10.666 -16 15.999
s-6 12 -6 20zM494.985 206.992v32h12v-32h-12zM494.985 242.992v8h12v-8h-12zM508.985 216.992l12 -0.00195312c0 -1.33301 0.666992 -2 2 -2c0 -1.33301 0.666992 -2 2 -2c2.66699 0 4 0.666992 4 2l2 2l-2 2h-6c-2.66699 1.33301 -5.33398 2 -8.00098 2l-4 4v4v6
c2.66699 2.66699 4.66699 4 6 4h8h8l4 -2c0 -1.33301 0.333008 -2.33301 1 -3s1 -1.66699 1 -3h-10l-2 2h-4h-2v-2v-2h6c2.66699 -1.33301 5.33398 -2 8.00098 -2l4 -4c0 -1.33301 0.333008 -2.33301 1 -3s1 -1.66699 1 -3s-0.666992 -2.66602 -2 -3.99902
c-2.66699 -2.66699 -4.66699 -4 -6 -4c-1.33301 -1.33301 -4 -2 -8 -2c-6.66699 0 -10.667 0.666992 -12 2c-2.66699 2.66699 -4 5.33398 -4 8.00098zM522.985 480.99c13.333 -8 27.3311 -7.66895 41.998 0.998047s23.334 18.334 26.001 29.001c1.33301 2.66699 2 6 2 10
c-25.333 -1.33301 -44.666 -7.66602 -57.999 -18.999s-17.333 -18.333 -12 -21zM540.983 230.988v8h4v6l12 6v-12h6v-8h-6v-12v-2c0 -1.33301 0.666992 -2 2 -2h2l2 -8h-8h-6l-4 4v8v12h-4zM548.983 594.988c2.66699 6.66699 4 13.501 4 20.501s0.666992 14.5 2 22.5
c1.33301 -5.33301 2.33301 -10 3 -14s1.66699 -8.66699 3 -14c6.66699 9.33301 12.667 18.666 18 27.999s10.666 19.333 15.999 30l-7 -29l-7 -29l8 4l8 4c-2.66699 -2.66699 -5 -6 -7 -10s-4.33301 -7.33301 -7 -10c-1.33301 -2.66699 -3.33301 -3.66699 -6 -3
c-4 0 -7.66699 -0.333008 -11 -1s-7.66602 -1 -12.999 -1c-2.66699 0 -4 0.666992 -4 2zM548.983 645.989c0 4 1.33301 6 4 6s4 -2 4 -6s-1.33301 -6 -4 -6s-4 2 -4 6zM562.983 222.989c0 5.33301 1.33203 9.33203 3.99902 11.999s6.66699 4 12 4
s8.66602 -0.666992 9.99902 -2c1.33301 0 3.33301 -2 6 -6c1.33301 -1.33301 2 -4.66602 2 -9.99902v-2h-22l2 -4l4 -2l2 2c1.33301 0 2 0.666992 2 2l12 -2l-6 -6c-1.33301 -1.33301 -4.66602 -2 -9.99902 -2s-8.66602 0.666992 -9.99902 2c-2.66699 0 -4.66699 2 -6 6
c-1.33301 1.33301 -2 4 -2 8zM570.982 528.988c2.66699 1.33301 6.00098 2 10.001 2s8 0.666992 12 2c0 2.66699 -0.333008 6 -1 10s-1 8 -1 12c-2.66699 -2.66699 -4.33398 -4.66699 -5.00098 -6s-2.33398 -3.33301 -5.00098 -6
c-1.33301 -4 -4.66602 -8.66699 -9.99902 -14zM574.983 226.988h10v4c-1.33301 0 -2 0.333008 -2 1s-0.666992 1 -2 1s-2.33301 -0.333008 -3 -1s-1.66699 -1 -3 -1v-4zM596.983 619.988c-4 0 -3.99902 2.00098 0.000976562 6.00098c2 2.66699 3.66699 4 5 4
c1.33301 -1.33301 1.33301 -4 0 -8c-2.66699 -2.66699 -4.33398 -3.33398 -5.00098 -2.00098zM596.984 671.989c-4 2.66699 -4 6 0 10c0 5.33301 1.66699 8 5 8c1.33301 -2.66699 1.33301 -6.66699 0 -12c0.666992 -4 -1 -6 -5 -6zM597.984 206.989l-0.000976562 32h12v-6
c0 2.66699 0.333008 4 1 4s1 0.666992 1 2h4h6l-4 -10l-2 2c-1.33301 0 -2.66602 -0.666992 -3.99902 -2s-2 -5.33301 -2 -12v-10h-12zM619.983 222.989c0 4 0.667969 6.66895 2.00098 8.00195c0 1.33301 0.666992 2.66602 2 3.99902l4 4h10
c5.33301 0 8.66602 -0.666992 9.99902 -2c2.66699 -2.66699 4.66699 -5.33398 6 -8.00098l-12 -2v4h-4c-2.66699 0 -4.66699 -0.666992 -6 -2v-6v-6c1.33301 -1.33301 3.33301 -2 6 -2h4c0 1.33301 0.666992 2.66602 2 3.99902h10
c0 -1.33301 -0.666992 -2.66602 -2 -3.99902v-2c-2.66699 -2.66699 -4.66699 -4 -6 -4c-1.33301 -1.33301 -4 -2 -8 -2h-8l-4 4l-4 4c-1.33301 1.33301 -2 4 -2 8zM655.984 206.991l-0.000976562 43.999h10v-16c2.66699 2.66699 4.66699 4 6 4h4c4 0 6.66699 -0.666992 8 -2
s2 -4.66602 2 -9.99902v-20h-12v18v4l-2 2c-1.33301 0 -2.66602 -0.666992 -3.99902 -2c0 -1.33301 -0.333008 -2.33301 -1 -3s-1 -1.66699 -1 -3v-16h-10zM687.983 222.99c0 5.33301 1.99805 9.33105 5.99805 11.998c1.33301 2.66699 5.33301 4 12 4
c4 0 7.33301 -0.666992 10 -2c2.66699 0 4 -2 4 -6c1.33301 -1.33301 2 -4.66602 2 -9.99902v-2h-22l2 -4l4 -2c1.33301 0 2 0.666992 2 2c1.33301 0 2 0.666992 2 2l12 -2l-6 -6c-1.33301 -1.33301 -4.66602 -2 -9.99902 -2s-8.66602 0.666992 -9.99902 2
c-2.66699 0 -4 2 -4 6c-2.66699 2.66699 -4 5.33398 -4 8.00098zM699.981 226.988h11.999c-1.33301 1.33301 -2 2.66602 -2 3.99902c-1.33301 0 -2 0.333008 -2 1s-0.666992 1 -2 1s-2.66602 -0.666992 -3.99902 -2s-2 -2.66602 -2 -3.99902zM723.98 206.988v44h12v-22l8 10
h14l-10 -12l12 -20h-14l-6 12l-4 -4v-8h-12zM759.98 206.988v12h11v-12h-11zM774.98 206.988v32h10v-6c1.33301 2.66699 2.66602 4.66699 3.99902 6h4h4l-2 -10c-1.33301 1.33301 -2.66602 2 -3.99902 2s-2 -0.333008 -2 -1s-0.666992 -1 -2 -1
c0 -1.33301 -0.333008 -3 -1 -5s-1 -4.33301 -1 -7v-10h-10zM798.98 218.988v20h10v-18c0 -1.33301 0.666992 -2.66602 2 -3.99902h2h4c0 1.33301 0.333008 2.33301 1 3s1 1.66699 1 3v16h10v-32h-10v6l-4 -4c-1.33301 -1.33301 -3.33301 -2 -6 -2
c-4 0 -6.66699 0.666992 -8 2s-2 4.66602 -2 9.99902zM816.98 440.988c5.33301 2.66699 10.668 4 16.001 4c2.66699 0 5 -0.333008 7 -1s4.33301 -1 7 -1c1.33301 2.66699 2.66602 6 3.99902 10s3.33301 8 6 12l10 20c4 8 8 16.667 12 26
c-10.667 -10.667 -23 -20.667 -37 -30s-22.333 -22 -25 -38v-2zM910.982 377.988c21.333 14.667 35.498 34.5 42.498 59.5s2.5 47.5 -13.5 67.5c17.333 -8 27.333 -18.333 30 -31s1.33398 -25.167 -3.99902 -37.5s-13.166 -23.833 -23.499 -34.5s-20.833 -18.667 -31.5 -24z
M918.98 375.988c14.667 6.66699 25.5 13.002 32.5 19.002s16.5 18.667 28.5 38c4 -9.33301 4.33301 -16.833 1 -22.5s-8.33301 -10.834 -15 -15.501s-14.167 -8.33398 -22.5 -11.001z" />
    <glyph glyph-name="grave" unicode="`" horiz-adv-x="314" 
d="M12 1394c40 4 87.667 9.33301 143 16c38 -47.333 83 -99 135 -155c-41.333 -6.66699 -69 -10 -83 -10c-41.333 33.333 -106.333 83 -195 149z" />
    <glyph glyph-name="a" unicode="a" horiz-adv-x="532" 
d="M-16 48l36.002 60.502c12 20.333 28.667 39.833 50 58.5c-14.667 21.333 -22 45.333 -22 72v73c-1.33301 21.333 -5 40 -11 56s-18.333 26.667 -37 32c18.667 8 34.667 11.333 48 10v260c0 20 -2 32 -6 36c-5.33301 9.33301 -18.666 16.666 -39.999 21.999
c53.333 2.66699 100.5 16.167 141.5 40.5s81.833 59.166 122.5 104.499c16 -20 35.333 -36.667 58 -50s46 -22 70 -26c9.33301 -1.33301 18.333 -2 27 -2c13.333 0 26.666 1.66699 39.999 5c21.333 6 39.333 18.333 54 37c-2.66699 -18.667 -11 -36.167 -25 -52.5
s-31 -31.166 -51 -44.499c21.333 -18.667 42.666 -35.334 63.999 -50.001h-1c-15.333 0 -24.333 -26 -27 -78v-415c2.66699 -13.333 8.66699 -24.666 18 -33.999s26.666 -13.333 51.999 -12c-8 -12 -15.333 -24.667 -22 -38s-14.667 -26.166 -24 -38.499
s-22.333 -24.833 -39 -37.5s-38.667 -24.334 -66 -35.001c-10.667 10.667 -19.667 20.667 -27 30s-13 19.333 -17 30c-12 -13.333 -26.333 -25 -43 -35s-36 -18.333 -58 -25c-33.333 6.66699 -67 18.667 -101 36s-64 28.666 -90 33.999c-20 -2.66699 -34.667 -5 -44 -7
s-19.333 -7.66699 -30 -17zM195.002 241.002c0 -16 0.664062 -32.333 1.99707 -49s6 -32.334 14 -47.001c14.667 -9.33301 28.834 -17.333 42.501 -24s29.834 -12.667 48.501 -18c6.66699 1.33301 12.334 2.33301 17.001 3s9.66699 1.66699 15 3
c-2.66699 14.667 -4.33398 29.334 -5.00098 44.001s-1 30 -1 46v119c-2.66699 20 -7 37.333 -13 52s-18.333 24.667 -37 30c21.333 8 38 11.333 50 10v294c-21.333 0 -42.166 3 -62.499 9s-40.5 16.333 -60.5 31l-10 -8v-495z" />
    <glyph glyph-name="b" unicode="b" horiz-adv-x="516" 
d="M-34 1036c30.667 0 60.001 -5.32812 88.001 -15.9951c13.333 49.333 40.666 89.333 81.999 120c40 30 93.667 45 161 45h9c-28 -9.33301 -49.5 -24 -64.5 -44s-26.5 -41.833 -34.5 -65.5s-12.667 -46.834 -14 -69.501s-2 -42 -2 -58v-139c20 17.333 40 37.333 60 60
c16 -20 35.5 -36.667 58.5 -50s46.167 -22 69.5 -26c9.33301 -1.33301 18.666 -2 27.999 -2c12.667 0 25.667 1.66699 39 5c21.333 6 39.666 18.333 54.999 37c-4 -21.333 -14 -40.666 -30 -57.999v-540c0 -46.667 -11.333 -83.334 -34 -110.001
c14.667 1.33301 26.334 3.66602 35.001 6.99902s18.334 8.33301 29.001 15l-27 -39c-8.66699 -12.667 -18.667 -25.5 -30 -38.5s-24.5 -25.5 -39.5 -37.5s-33.833 -23.333 -56.5 -34c-28 9.33301 -51.833 18.666 -71.5 27.999l-54.5 26c-16.667 8 -33.334 15.5 -50.001 22.5
s-35.667 12.5 -57 16.5c-29.333 -2.66699 -50.833 -8.16699 -64.5 -16.5l-48.5 -30.5c9.33301 24 23.333 47.667 42 71v201c-2.66699 18.667 -7 35.334 -13 50.001s-17.667 24.667 -35 30c18.667 8 34.667 11.333 48 10v258c0 21.333 -2 34 -6 38
c-5.33301 9.33301 -18.666 16.666 -39.999 21.999c16 0 31.333 2 46 6v133v32c0 12 -1.33301 24.833 -4 38.5s-6.66699 27.167 -12 40.5s-13 25.666 -23 36.999s-23 19.666 -39 24.999zM191.001 191.005c20 -4 40.1699 -9.66797 60.5029 -17.001s40.5 -15 60.5 -23
c5.33301 14.667 8.66602 29 9.99902 43s2 28.333 2 43v79c-2.66699 18.667 -7 35.334 -13 50.001s-17.667 24.667 -35 30c18.667 8 34.667 11.333 48 10v294h-12c-18.667 0 -37.334 2.33301 -56.001 7c-22.667 6 -44.334 17 -65.001 33v-549z" />
    <glyph glyph-name="c" unicode="c" horiz-adv-x="441" 
d="M-14 46c6.66699 16 14.0049 31.8291 22.0049 47.4961s18.667 30.834 32 45.501v187c-2.66699 18.667 -7.66699 34.334 -15 47.001s-18.333 21 -33 25c18.667 8 34.667 11.333 48 10v202c-2.66699 52 -12.334 78 -29.001 78h-1c29.333 18.667 54.833 38.167 76.5 58.5
s43.834 37.166 66.501 50.499c-4.66699 14.667 -7 29 -7 43c0 24 6.33301 48 19 72c20 38.667 59 75.334 117 110.001c-19.333 -22 -29 -44.667 -29 -68c-0.666992 -21.333 3.66602 -42 12.999 -62c9.33301 -20.667 21 -39.667 35 -57s26.333 -31.333 37 -42
c32 -32 53.333 -58.167 64 -78.5s12 -39.166 4 -56.499s-24.667 -36.166 -50 -56.499l-98 -78.5c12 17.333 18.333 34.5 19 51.5s-2.33301 33.833 -9 50.5s-15.834 33 -27.501 49s-24.167 30.667 -37.5 44c-2.66699 4 -5.33398 7.66699 -8.00098 11
s-5.33398 6.33301 -8.00098 9v-557l96.5 -34c33.667 -12 61.167 -19.333 82.5 -22c21.333 2.66699 36.666 5 45.999 7s19 7.66699 29 17l-47.5 -77.5c-15.667 -25 -42.167 -48.833 -79.5 -71.5c-46.667 18.667 -88.5 36.667 -125.5 54s-73.167 30.333 -108.5 39
c-24 -2.66699 -42 -8.16699 -54 -16.5s-25.333 -18.5 -40 -30.5z" />
    <glyph glyph-name="d" unicode="d" horiz-adv-x="499" 
d="M-6 396c21.333 8 37.9951 11.3291 49.9951 9.99609v306c-9.33301 4 -20 8 -32 12c34.667 2.66699 65.167 9.66699 91.5 21s52.833 27.333 79.5 48c-30.667 14.667 -55.167 36.334 -73.5 65.001s-27.5 64 -27.5 106c0 36 6.5 68 19.5 96s31.5 51.5 55.5 70.5
s51.833 33.167 83.5 42.5s65.5 14 101.5 14c-36 -12 -63.5 -29.5 -82.5 -52.5s-31.5 -49.167 -37.5 -78.5c-2.66699 -12.667 -4 -25.334 -4 -38.001c0 -17.333 2.33301 -34.666 7 -51.999c8 -30.667 20.833 -58.5 38.5 -83.5s40.834 -45.833 69.501 -62.5
s60.667 -25.667 96 -27c34.667 2.66699 61.334 16 80.001 40c-4 -24 -17.333 -47 -40 -69v-633c12 4 22 9.33301 30 16l-56.5 -76.5c-19 -25.667 -51.167 -49.167 -96.5 -70.5c-46.667 14.667 -83.167 29.334 -109.5 44.001s-54.833 27.334 -85.5 38.001
c-1.33301 1.33301 -4 2 -8 2c-5.33301 2.66699 -14.666 5 -27.999 7c-29.333 -2.66699 -51.166 -8.16699 -65.499 -16.5l-47.5 -28.5c6.66699 16 15.334 31.833 26.001 47.5s24 30.834 40 45.501c-16 24 -24 56 -24 96v79c-2.66699 20 -7 37.333 -13 52
s-18.333 24.667 -37 30zM190.995 212.996c0 -8 0.668945 -15.332 2.00195 -21.999c22.667 -4 44.5 -10.333 65.5 -19s42.167 -16.334 63.5 -23.001v177c-2.66699 17.333 -7.33398 32.333 -14.001 45s-17.334 21 -32.001 25c16 8 31.333 12 46 12v294
c-20 -1.33301 -40.5 1 -61.5 7s-40.833 16.333 -59.5 31l-10 -6v-497v-24z" />
    <glyph glyph-name="e" unicode="e" horiz-adv-x="455" 
d="M2 48c6.66699 16 14.001 31.833 22.001 47.5s18.667 30.834 32 45.501v181c-1.33301 18.667 -5.33301 35 -12 49s-18.667 23.667 -36 29c18.667 8 34.667 11.333 48 10v202c-2.66699 52 -12.667 78 -30 78c30.667 20 57.5 40.833 80.5 62.5s47.167 39.167 72.5 52.5
c-2.66699 11.333 -4 23 -4 35c0 26.667 7 52.667 21 78c20.667 37.333 59.334 72 116.001 104c-20 -21.333 -30 -42.833 -30 -64.5s4.33301 -42.834 13 -63.501s20.334 -39.667 35.001 -57s27.334 -31.333 38.001 -42l48 -53c15.333 -22.667 23 -43.334 23 -62.001
c0.666992 -20 -6.33301 -39 -21 -57c-13.333 -16.667 -31 -31.5 -53 -44.5s-45.667 -25.5 -71 -37.5c12 -5.33301 23.667 -15.333 35 -30s23.666 -32.667 36.999 -54c-16.667 12.667 -34.334 19 -53.001 19c-7.33301 0 -15 -1 -23 -3c-28 -6.66699 -57 -15.334 -87 -26.001
v-264l98.5 -34c33.667 -12 61.167 -20 82.5 -24c20 2.66699 34.5 5.33398 43.5 8.00098s18.833 8.66699 29.5 18c-14.667 -26.667 -29.834 -52.5 -45.501 -77.5s-42.834 -48.833 -81.501 -71.5c-46.667 18.667 -88.167 36.334 -124.5 53.001s-72.5 29.334 -108.5 38.001
c-24 -2.66699 -42.167 -7.83398 -54.5 -15.501s-25.833 -17.5 -40.5 -29.5zM201.001 527c16 5.33301 30.833 11.3311 44.5 17.998s25.167 14.334 34.5 23.001s15.333 18.167 18 28.5s0 22.833 -8 37.5c-6.66699 14.667 -15.5 29.334 -26.5 44.001s-22.5 28 -34.5 40l-15 18
c-4.66699 5.33301 -9 11.333 -13 18v-227z" />
    <glyph glyph-name="f" unicode="f" horiz-adv-x="294" 
d="M-40 -141c28 9.33301 49.6689 24.1689 65.002 44.502s27 42.166 35 65.499s12.667 46.666 14 69.999s2 42.666 2 57.999v219c-2.66699 18.667 -7.33398 35.334 -14.001 50.001s-18 24.667 -34 30c14.667 6.66699 30.667 10 48 10v395
c-14.667 2.66699 -28.334 9 -41.001 19s-24.334 24.333 -35.001 43c14.667 -9.33301 28.334 -15.333 41.001 -18s24.334 -3.33398 35.001 -2.00098v139c0 17.333 -2.33301 30.333 -7 39s-16.334 15 -35.001 19c94 8 178 57 252 147c14.667 -20 32 -36.667 52 -50
s40.5 -21.833 61.5 -25.5s41.167 -2.66699 60.5 3s35.666 17.834 48.999 36.501c-4 -24 -15.333 -46.5 -34 -67.5s-41 -37.5 -67 -49.5c-22.667 -10 -47.334 -15 -74.001 -15h-13c-31.333 2 -60.666 15 -87.999 39l-10 -8v-64v-73c13.333 2.66699 24.333 4 33 4
c14.667 0 29.334 -8.33301 44.001 -25s30.667 -38.334 48 -65.001c-16.667 12.667 -34 19 -52 19h-8c-21.333 -2 -43 -7 -65 -15v-738c0 -67.333 -22 -123.166 -66 -167.499s-109.667 -66.5 -197 -66.5z" />
    <glyph glyph-name="g" unicode="g" horiz-adv-x="509" 
d="M-8 400c20 6.66699 35.998 10.002 47.998 10.002v258c0 10.667 -0.666992 19 -2 25s-2.66602 10.333 -3.99902 13c-6.66699 9.33301 -20 16 -40 20c53.333 4 100.166 18.167 140.499 42.5s80.833 59.166 121.5 104.499c16 -20 35.333 -36.667 58 -50s46 -22 70 -26
c9.33301 -1.33301 18.666 -2 27.999 -2c14 0 27.333 1.66699 40 5c20.667 6 38.334 18.333 53.001 37c-2.66699 -18.667 -10.667 -36.5 -24 -53.5s-30.666 -31.5 -51.999 -43.5c17.333 -16 39.333 -32.667 66 -50c-18.667 0 -28.667 -26 -30 -78v-483
c5.33301 2.66699 10.333 5.66699 15 9s10.334 7 17.001 11c-4 -9.33301 -8.66699 -18.666 -14 -27.999s-11.333 -18.666 -18 -27.999v-139c0 -20.667 2 -33.667 6 -39c8 -9.33301 21.333 -16 40 -20c-53.333 -4 -100.166 -18 -140.499 -42s-80.833 -59.333 -121.5 -106
c-16 21.333 -35.667 38.666 -59 51.999s-46.666 22 -69.999 26c-8.66699 1.33301 -17.334 2 -26.001 2c-14 0 -28 -2 -42 -6c-21.333 -6.66699 -39.333 -18.667 -54 -36c4 22.667 16.667 45 38 67s46.666 38.667 75.999 50c26 10.667 54 16 84 16h12
c34.667 -2 68 -15 100 -39l10 6v65v52h-2c-40 6.66699 -79.833 18.667 -119.5 36s-76.167 28.666 -109.5 33.999c-24 -2.66699 -41.833 -5.33398 -53.5 -8.00098s-23.5 -8.66699 -35.5 -18l38 53.5c12 17 27.333 33.5 46 49.5c-28 25.333 -42 64.333 -42 117v66
c-2.66699 16 -7.66699 30 -15 42s-18.333 20.667 -33 26zM184.998 268.002c0 -14.667 1 -29.834 3 -45.501s6.33301 -30.834 13 -45.501c25.333 -10.667 46.5 -20.667 63.5 -30s34.833 -17.333 53.5 -24v199c-2.66699 18.667 -7 35 -13 49s-17.667 23.667 -35 29
c20 6.66699 36 10 48 10v294c-20 -1.33301 -40.5 1.33398 -61.5 8.00098s-40.833 17.334 -59.5 32.001l-12 -8v-468z" />
    <glyph glyph-name="h" unicode="h" horiz-adv-x="503" 
d="M-28 1036c32 0 60.667 -5.33008 86 -15.9971c14.667 49.333 42.667 89.333 84 120c40 30 93.667 45 161 45h9c-28 -9.33301 -49.5 -24 -64.5 -44s-26.5 -41.833 -34.5 -65.5s-12.667 -46.834 -14 -69.501s-2 -42 -2 -58v-147l36 32c12 10.667 23.667 23.334 35 38.001
c16 -21.333 35.333 -38.666 58 -51.999s46 -22 70 -26c9.33301 -1.33301 18.333 -2 27 -2c13.333 0 26.666 1.66699 39.999 5c21.333 6 39.333 18.333 54 37c-4 -20 -14.333 -39.5 -31 -58.5s-36.667 -35.167 -60 -48.5l24.5 -20
c8.33301 -6.66699 17.833 -13.334 28.5 -20.001h-3c-16.667 0 -25 -26 -25 -78v-515c-0.666992 -66 -23 -121.667 -67 -167c-43.333 -44.667 -106 -67 -188 -67h-7c28 9.33301 49.5 23.833 64.5 43.5s26.167 41.5 33.5 65.5s11.666 47.333 12.999 70s2 41.667 2 57v225
c-1.33301 18.667 -5.33301 34.667 -12 48s-18 22.666 -34 27.999c18.667 8 34 11.333 46 10v296c-33.333 4 -65 16.667 -95 38l-10 -8v-64v-125v-422c17.333 1.33301 30.666 -3 39.999 -13s15.666 -28 18.999 -54c-9.33301 8 -22.166 10.667 -38.499 8
s-34.166 -7.66699 -53.499 -15l-55.5 -22c-17.667 -7.33301 -32.5 -11 -44.5 -11c-18.667 5.33301 -35.667 17.666 -51 36.999c-8.66699 10.667 -13 23.667 -13 39c0 12 2.66699 25.667 8 41c6.66699 -13.333 17.334 -20.333 32.001 -21s34.334 0.333008 59.001 3
c-14.667 2.66699 -26.5 8 -35.5 16s-13.5 21.333 -13.5 40v155c-2.66699 17.333 -7.33398 32.666 -14.001 45.999s-18 22 -34 26c18.667 8 34.667 11.333 48 10v137v121c0 20 -2 33.333 -6 40c-5.33301 8 -18.666 14.667 -39.999 20c16 0 31.333 2 46 6v147v12
c0 12 -1 25.167 -3 39.5s-5.66699 28.5 -11 42.5s-13 26.667 -23 38s-23.667 20.333 -41 27z" />
    <glyph glyph-name="i" unicode="i" horiz-adv-x="296" 
d="M22 758c8 14.667 15.333 26.832 22 36.499l19 26.5l17.5 23l18.5 25c14.667 -28 42 -52.5 82 -73.5s79.667 -36.167 119 -45.5l-37.5 -18c-11.667 -5.33301 -24.167 -10 -37.5 -14v-597c17.333 1.33301 30.5 -3 39.5 -13s15.5 -28 19.5 -54c-8 8 -20.5 10.667 -37.5 8
s-34.833 -7.66699 -53.5 -15l-56 -22c-18.667 -7.33301 -34 -11 -46 -11c-18 5.33301 -34.333 17.666 -49 36.999c-8.66699 11.333 -13 25 -13 41c0 11.333 2.33301 24.333 7 39c8 -13.333 18.833 -20.666 32.5 -21.999s33.167 0 58.5 4c-14.667 2.66699 -26.5 8 -35.5 16
s-13.5 20.667 -13.5 38v149c-1.33301 18.667 -5.33301 35.334 -12 50.001s-18.667 24.667 -36 30c18.667 8 34.667 11.333 48 10v316c-16 6.66699 -34.667 18.667 -56 36zM48 991.998c1.33301 16 5.66797 33.668 13.001 53.001s15.5 39.5 24.5 60.5s17.5 44.833 25.5 71.5
c6 22 9 42.333 9 61v6c-0.666992 20.667 -8.33398 36 -23.001 46c18.667 -8 36 -16.833 52 -26.5s28 -21.167 36 -34.5c13.333 -24 20 -49 20 -75c0 -6.66699 -0.333008 -13.334 -1 -20.001c-4.66699 -33.333 -10 -66 -16 -98c-3.33301 -16.667 -5 -32.667 -5 -48
c0.666992 -14.667 2.33398 -28.667 5.00098 -42c5.33301 -28 28 -51 68 -69c-34.667 2.66699 -63.834 6.66699 -87.501 12s-43.167 11.333 -58.5 18s-26.833 13.667 -34.5 21s-13.5 14 -17.5 20c-8 13.333 -11.333 28 -10 44z" />
    <glyph glyph-name="j" unicode="j" horiz-adv-x="296" 
d="M-109 -274c41.333 9.33301 74.502 28.8311 99.502 58.498s44.5 62 58.5 97s23 68.833 27 101.5s6 57 6 73v264c-2.66699 18.667 -7.33398 34.667 -14.001 48s-18 22.666 -34 27.999c18.667 8 34.667 11.333 48 10v316c-21.333 9.33301 -40 21.333 -56 36
c8 14.667 15 26.834 21 36.501s12 18.5 18 26.5l17.5 23l18.5 25c16 -28 43.667 -52.5 83 -73.5s78.666 -36.167 117.999 -45.5c-12 -6.66699 -24.167 -12.667 -36.5 -18s-24.5 -10 -36.5 -14v-664c0 -33.333 -6.33301 -69.166 -19 -107.499s-32.667 -74.166 -60 -107.499
s-62.5 -60.5 -105.5 -81.5s-94.167 -31.5 -153.5 -31.5zM61.002 1042c2 22.667 6.33301 47.167 13 73.5s14.5 54.833 23.5 85.5s17.5 63.667 25.5 99c6.66699 34.667 10 66 10 94s-7.33301 49.667 -22 65c18.667 -12 36 -24.833 52 -38.5s27.333 -29.834 34 -48.501
c14.667 -32 22 -66 22 -102c0 -10 -0.666992 -20 -2 -30l-16 -138c-2.66699 -21.333 -4 -42 -4 -62c0 -21.333 1.66699 -42 5 -62c5.33301 -39.333 28 -72.333 68 -99c-34.667 4 -63.834 9.33301 -87.501 16s-43.167 14.667 -58.5 24s-27.166 18.833 -35.499 28.5
s-14.5 19.834 -18.5 30.501c-6.66699 16 -10 33 -10 51c0 4 0.333008 8.33301 1 13z" />
    <glyph glyph-name="k" unicode="k" horiz-adv-x="497" 
d="M-32 1038c33.333 0 62.6689 -5.33105 88.002 -15.998c13.333 49.333 41.333 89.333 84 120c40.667 30 94.334 45 161.001 45h9c-28 -9.33301 -49.5 -24 -64.5 -44s-26.5 -41.833 -34.5 -65.5s-12.667 -46.834 -14 -69.501s-2 -42 -2 -58v-276l33 30
c11.333 10.667 22.666 22.667 33.999 36c34.667 41.333 57.667 80.666 69 117.999c4 13.333 6 25 6 35c0 18 -6.33301 31.333 -19 40c28 -8 45.667 -22.333 53 -43c4.66699 -13.333 7 -27.333 7 -42c0 -8 -0.666992 -16.333 -2 -25c-4 -24 -11.667 -47.5 -23 -70.5
s-23 -41.833 -35 -56.5c34.667 -21.333 70.5 -32 107.5 -32s66.167 14 87.5 42c-2.66699 -21.333 -12.667 -41.666 -30 -60.999s-38.333 -35.333 -63 -48l26.5 -22c9.66699 -8 19.834 -15.333 30.501 -22h-1c-16.667 0 -26.334 -26 -29.001 -78v-380
c0.666992 -66 -21 -121.667 -65 -167c-42.667 -44.667 -106 -67 -190 -67h-7c28 9.33301 49.5 23.833 64.5 43.5s26.5 41.5 34.5 65.5s12.667 47.333 14 70s2 41.667 2 57v225c-2.66699 18.667 -7.33398 34.667 -14.001 48s-17.667 22.666 -33 27.999
c20 6.66699 35.667 10 47 10v167c-16 2.66699 -32.167 7 -48.5 13s-31.833 14 -46.5 24l-10 -8v-63v-125v-293c16 1.33301 28.667 -3 38 -13s16 -28 20 -54c-8 8 -20.667 10.667 -38 8s-35.333 -7.66699 -54 -15l-54.5 -22c-17.667 -7.33301 -32.5 -11 -44.5 -11
c-18.667 5.33301 -35.667 17.666 -51 36.999c-8.66699 10.667 -13 23.667 -13 39c0 12 2.66699 25.667 8 41c6.66699 -13.333 17 -20.666 31 -21.999s34 0 60 4c-16 2.66699 -28.167 8 -36.5 16s-12.5 20.667 -12.5 38v157c-2.66699 18.667 -7.33398 34 -14.001 46
s-18 20.667 -34 26c20 6.66699 36 10 48 10v8v121c0 20 -2 33.333 -6 40c-6.66699 9.33301 -20 16 -40 20c14.667 0 30 1.66699 46 5v277v12c0 12 -1 25.167 -3 39.5s-6 28.5 -12 42.5s-14 26.667 -24 38s-23.667 20.333 -41 27z" />
    <glyph glyph-name="l" unicode="l" horiz-adv-x="246" 
d="M-28 1038c33.333 0 62.667 -5.33203 88 -15.999c13.333 49.333 41.333 89.333 84 120c40.667 30 94.334 45 161.001 45h9c-28 -9.33301 -49.5 -24 -64.5 -44s-26.5 -41.833 -34.5 -65.5s-12.667 -46.834 -14 -69.501s-2 -42 -2 -58v-853c0 -16 0.666992 -35.167 2 -57.5
s6 -45.5 14 -69.5s19.5 -45.833 34.5 -65.5s36.5 -34.167 64.5 -43.5h-7c-83.333 0.666992 -146.333 23 -189 67c-44 45.333 -66 101 -66 167v227c-2.66699 18.667 -7.33398 34.667 -14.001 48s-18 22.666 -34 27.999c20 6.66699 36 10 48 10v471v4
c0 10.667 -0.666992 23.5 -2 38.5s-4.66602 30.167 -9.99902 45.5s-13.333 29.333 -24 42s-25.334 22.334 -44.001 29.001z" />
    <glyph glyph-name="m" unicode="m" horiz-adv-x="715" 
d="M-20 712c8 12 14.998 24.502 20.998 37.502s14 26.167 24 39.5s23.167 26 39.5 38s38.5 23.333 66.5 34c12 -10.667 22 -22 30 -34s14.667 -23.333 20 -34c14.667 10.667 28.667 22.667 42 36s26.333 27.333 39 42c18.667 -26.667 42.334 -47 71.001 -61
c22 -10.667 43.667 -16 65 -16c6 0 12 0.333008 18 1c26 18.667 51.667 44 77 76c14.667 -20 32.334 -36.667 53.001 -50s41.167 -22 61.5 -26s40.5 -3 60.5 3s36 18.333 48 37c-4 -28 -19.333 -55 -46 -81v-659c0 -66 -22 -121.667 -66 -167
c-43.333 -44.667 -106.333 -67 -189 -67h-7c28 9.33301 49.5 23.833 64.5 43.5s26.5 41.5 34.5 65.5s12.667 47.333 14 70s2 41.667 2 57v225c-2.66699 18.667 -7.33398 34.667 -14.001 48s-18 22.666 -34 27.999c20 6.66699 36 10 48 10v296c-14.667 2.66699 -29 7 -43 13
s-27.667 14.333 -41 25l-10 -8v-64v-505c25.333 -8 49.333 -22 72 -42l-21 -37.5c-6 -10.333 -12 -19.5 -18 -27.5s-12 -15.333 -18 -22s-12 -14.667 -18 -24c-16 28 -43.667 52.5 -83 73.5s-78.666 36.167 -117.999 45.5c10.667 5.33301 20.5 10 29.5 14l27.5 12v163
c-2.66699 18.667 -7.33398 35 -14.001 49s-17.667 23.667 -33 29c20 6.66699 35.667 10 47 10v258c0 20 -1.33301 32.667 -4 38l-2 2c-22.667 5.33301 -45 17.333 -67 36l-10 -8v-64v-547c16 1.33301 28.667 -3 38 -13s16.333 -28 21 -54
c-9.33301 8 -22.166 10.667 -38.499 8s-34.166 -7.66699 -53.499 -15l-55.5 -22c-17.667 -7.33301 -32.5 -11 -44.5 -11c-18.667 5.33301 -35.667 17.666 -51 36.999c-8.66699 10.667 -13 23.667 -13 39c0 12 2.66699 25.667 8 41c6.66699 -13.333 17 -20.666 31 -21.999
s34 0 60 4c-14.667 2.66699 -26.5 8 -35.5 16s-13.5 20.667 -13.5 38v153c-2.66699 18.667 -7.33398 34.667 -14.001 48s-18 22.666 -34 27.999c20 6.66699 36 10 48 10v250c-2.66699 14.667 -8.66699 28 -18 40s-27.333 16.667 -54 14z" />
    <glyph glyph-name="n" unicode="n" horiz-adv-x="489" 
d="M-16 726c8 12 15.001 24.498 21.001 37.498s14 25.833 24 38.5s23.167 25 39.5 37s38.5 23.333 66.5 34c25.333 -22.667 43.333 -48.667 54 -78c14.667 10.667 28.5 22.667 41.5 36l41.5 42c16 -20 35.667 -36.667 59 -50s46.333 -22 69 -26
c9.33301 -1.33301 18.666 -2 27.999 -2c13.333 0 26.666 1.66699 39.999 5c22 6 40.333 18.333 55 37c-2.66699 -17.333 -10 -33.5 -22 -48.5s-27.333 -29.167 -46 -42.5v-649c0.666992 -66 -21 -121.667 -65 -167c-42.667 -44.667 -106 -67 -190 -67h-7
c28 9.33301 49.5 23.833 64.5 43.5s26.5 41.5 34.5 65.5s12.667 47.333 14 70s2 41.667 2 57v219c-1.33301 20 -5.33301 37.333 -12 52s-18.667 24.667 -36 30c14.667 6.66699 30.667 10 48 10v296c-34.667 2.66699 -66.334 15.334 -95.001 38.001l-10 -8v-611
c16 1.33301 28.667 -3 38 -13s16.333 -28 21 -54c-9.33301 8 -22.166 10.667 -38.499 8s-34.166 -7.66699 -53.499 -15l-56 -22c-18 -7.33301 -32.667 -11 -44 -11c-18.667 5.33301 -35.667 17.666 -51 36.999c-8.66699 10.667 -13 23.667 -13 39c0 12 2.66699 25.667 8 41
c6.66699 -13.333 17 -20.666 31 -21.999s34 0 60 4c-14.667 2.66699 -26.5 8 -35.5 16s-13.5 20.667 -13.5 38v149c-2.66699 18.667 -7 35.334 -13 50.001s-17.667 24.667 -35 30c14.667 6.66699 30.667 10 48 10v230c0 24 -3.66699 44.667 -11 62
c-6.66699 16 -24.667 24 -54 24h-7z" />
    <glyph glyph-name="o" unicode="o" horiz-adv-x="514" 
d="M-4 398c10.667 4 19.998 6.66602 27.998 7.99902s15.333 2 22 2v175c-2.66699 51.333 -12.334 77 -29.001 77h-1c18.667 12 35.5 24.667 50.5 38l44.5 38c-21.333 13.333 -39.166 28.5 -53.499 45.5s-22.833 34.833 -25.5 53.5c12 -18.667 29.333 -31 52 -37
c13.333 -3.33301 27 -5 41 -5c9.33301 0 19.333 0.666992 30 2c25.333 4 49.5 12.667 72.5 26s41.833 30 56.5 50c74 -91.333 157.667 -139.666 251 -144.999c-18.667 -6.66699 -30.667 -14 -36 -22c-2.66699 -5.33301 -4 -18 -4 -38v-535c6.66699 2.66699 13 5 19 7
s12.333 5.66699 19 11l-27 -39c-8.66699 -12.667 -18.667 -25.5 -30 -38.5s-24.5 -25.5 -39.5 -37.5s-33.833 -23.333 -56.5 -34c-40 13.333 -83.5 30 -130.5 50s-91.167 34.333 -132.5 43c-29.333 -2.66699 -51.166 -8.16699 -65.499 -16.5s-30.166 -18.5 -47.499 -30.5
c6.66699 16 15.334 32.167 26.001 48.5s24 31.833 40 46.5c-16 24 -24 56 -24 96v79c-2.66699 20 -7.33398 37.333 -14.001 52s-18.667 24.667 -36 30zM192.998 214.999c0 -8 0.667969 -15.999 2.00098 -23.999c22.667 -4 47.167 -10 73.5 -18l79.5 -24v167
c-2.66699 18.667 -7 35.667 -13 51s-18.333 25.666 -37 30.999c10.667 4 20 6.66699 28 8s15.333 2 22 2v262v64l-10 8c-22.667 -18.667 -46 -30.667 -70 -36c-12 -2.66699 -24.333 -4 -37 -4s-25.334 1.33301 -38.001 4v-467v-24z" />
    <glyph glyph-name="p" unicode="p" horiz-adv-x="514" 
d="M-76 -272c28 9.33301 49.668 23.835 65.001 43.502s26.666 41.5 33.999 65.5s11.666 47.5 12.999 70.5s2 42.5 2 58.5v108c-6.66699 -2.66699 -14 -6 -22 -10s-16 -9.33301 -24 -16c13.333 28 28.666 47.667 45.999 59v213c-1.33301 18.667 -5.33301 35 -12 49
s-18.667 23.667 -36 29c14.667 6.66699 30.667 10 48 10v258c0 18.667 -1.33301 32 -4 40c-5.33301 6.66699 -18.666 13.334 -39.999 20.001c52 2.66699 98.333 16.167 139 40.5s81.667 59.833 123 106.5c16 -21.333 35.333 -38.666 58 -51.999s46 -22 70 -26
c9.33301 -1.33301 18.666 -2 27.999 -2c14 0 27.333 1.66699 40 5c20.667 6 38.334 18.333 53.001 37c-4 -24 -17.333 -47 -40 -69v-494c0 -56.667 -16.5 -99.334 -49.5 -128.001s-87.167 -46.334 -162.5 -53.001c29.333 -9.33301 57 -15 83 -17
c2.66699 -0.666992 5.33398 -1 8.00098 -1c22 0 42 8 60 24c-17.333 -32 -34 -54.5 -50 -67.5s-33.333 -20.167 -52 -21.5c-22.667 -2.66699 -43.167 -0.333984 -61.5 6.99902s-36.833 15.666 -55.5 24.999v-78c0 -66 -21.667 -122 -65 -168
c-42.667 -44 -105.667 -66 -189 -66h-7zM185.001 111.002c4 -1.33301 8.33203 -2.66602 12.999 -3.99902s9 -2.66602 13 -3.99902c45.333 21.333 74.833 48.666 88.5 81.999s20.5 63 20.5 89v40c-2.66699 20 -7 37.667 -13 53s-18.333 25.666 -37 30.999
c9.33301 4 18.333 6.66699 27 8s16.334 2 23.001 2v294c-21.333 0 -42.5 3 -63.5 9s-40.833 16.333 -59.5 31l-12 -8v-623z" />
    <glyph glyph-name="q" unicode="q" horiz-adv-x="580" 
d="M4 396c17.333 8 33.3291 12.0049 47.9961 12.0049v175c0 50 -8.33301 75 -25 75h-3c18.667 13.333 35.834 26.666 51.501 39.999l45.5 40c-22.667 12 -41.167 26.5 -55.5 43.5s-22.833 34.833 -25.5 53.5c12 -18.667 30 -31 54 -37c14.667 -3.33301 30 -5 46 -5
c10 0 20.333 0.666992 31 2c26.667 4 52.5 12.667 77.5 26s44.833 30 59.5 50c72.667 -90 156.334 -138.333 251.001 -145c-18.667 -6.66699 -30.667 -14 -36 -22c-2.66699 -5.33301 -4 -18 -4 -38v-537c8 2.66699 15.333 5 22 7s14 6.33301 22 13l-31 -42.5
c-10 -13.667 -21.667 -27.834 -35 -42.501c9.33301 -13.333 18 -28.666 26 -45.999c4.66699 -11.333 7 -23.333 7 -36c0 -10 -1.33301 -20 -4 -30c-6 -24.667 -21.667 -54.334 -47 -89.001c2.66699 10 4 19.667 4 29c0 16 -3.66699 31.333 -11 46
c-11.333 24 -26.666 48 -45.999 72c-2.66699 -2.66699 -5.33398 -4.33398 -8.00098 -5.00098s-5.33398 -2.33398 -8.00098 -5.00098l-67 23l-74.5 27c-25 9.33301 -50.167 17.833 -75.5 25.5s-48 13.5 -68 17.5c-29.333 -2.66699 -51.166 -8.16699 -65.499 -16.5
s-30.166 -18.5 -47.499 -30.5c6.66699 16 15.334 31.833 26.001 47.5s23.334 30.834 38.001 45.501c-6.66699 13.333 -12.334 27.666 -17.001 42.999s-7 33 -7 53v77c-1.33301 20 -5 37.667 -11 53s-18.333 25.666 -37 30.999zM198.996 239.005
c0 -8 0.334961 -16.002 1.00195 -24.002s1.66699 -16 3 -24c24 -4 53.667 -11.333 89 -22c-10.667 21.333 -16 44 -16 68v7c1.33301 26.667 14.666 55.334 39.999 86.001c-2.66699 -14 -4 -27.333 -4 -40c0 -22 4 -40.667 12 -56c12 -23.333 28 -43.666 48 -60.999v147
c-2.66699 18.667 -7.33398 35 -14.001 49s-18 23 -34 27c17.333 8 33.333 12 48 12v262v64l-10 8c-22.667 -20 -48.667 -32.333 -78 -37c-11.333 -2 -23 -3 -35 -3c-16 0 -32 2 -48 6z" />
    <glyph glyph-name="r" unicode="r" horiz-adv-x="417" 
d="M-4 722c8 12 14.999 24.502 20.999 37.502s14 25.833 24 38.5s22.833 25.334 38.5 38.001s37.5 24.334 65.5 35.001c28 -25.333 46.667 -52 56 -80c14.667 10.667 28.5 22.667 41.5 36l41.5 44c10.667 -17.333 21 -30.333 31 -39s20.333 -14.334 31 -17.001s22 -3 34 -1
s25.333 5.66699 40 11c-4 -24 -10.667 -46.167 -20 -66.5s-21.666 -35.833 -36.999 -46.5s-34.333 -14.667 -57 -12s-49.667 16 -81 40l-10 -6v-611c8 0 18.5 1 31.5 3s25.833 1.33301 38.5 -2s24.667 -10.333 36 -21s19 -28.334 23 -53.001c-8 8 -24.333 10.667 -49 8
s-50.834 -7.33398 -78.501 -14.001l-79.5 -20c-25.333 -6.66699 -43.666 -10 -54.999 -10c-18.667 5.33301 -35.667 18 -51 38c-9.33301 12 -14 26 -14 42c0 11.333 2.33301 23.666 7 36.999c8 -12 19 -18.667 33 -20s34 -0.666016 60 2.00098
c-14.667 2.66699 -26.5 8 -35.5 16s-13.5 21.333 -13.5 40v143c-2.66699 20 -7 37.667 -13 53s-18.333 25.666 -37 30.999c20 8 36.667 11.333 50 10v232c0 22.667 -3.66699 42.667 -11 60c-6.66699 16 -24.667 24 -54 24h-7z" />
    <glyph glyph-name="s" unicode="s" horiz-adv-x="495" 
d="M-48 44c10.667 13.333 24.3379 28.5088 41.0049 45.5088s32.667 34.833 48 53.5s27.833 37.667 37.5 57s13.167 38 10.5 56c-2.66699 13.333 -8.83398 25.666 -18.501 36.999s-20.834 20.666 -33.501 27.999s-26.667 12 -42 14s-29 0.333008 -41 -5
c16 21.333 36 35 60 41c13.333 3.33301 26.666 5 39.999 5c10.667 0 21.334 -1 32.001 -3c24 -4.66699 46.5 -13.334 67.5 -26.001s36.833 -27 47.5 -43c17.333 -25.333 26.666 -52 27.999 -80v-8c0 -25.333 -6.66699 -47.666 -20 -66.999l61.5 -29
c18.333 -8.66699 40.166 -15.667 65.499 -21c17.333 1.33301 31.666 3.66602 42.999 6.99902s21.666 7.66602 30.999 12.999c-4 17.333 -12.333 35.666 -25 54.999s-28.334 39.166 -47.001 59.499s-39.167 41.166 -61.5 62.499l-69.5 66
c-14.667 10.667 -29.334 18.334 -44.001 23.001s-29.334 2.33398 -44.001 -6.99902c6.66699 22.667 15.334 37.334 26.001 44.001c-38.667 40 -72.5 81 -101.5 123s-45.5 85 -49.5 129c-1.33301 6.66699 -2 16 -2 28c-5.33301 9.33301 -18.666 16.666 -39.999 21.999
c53.333 2.66699 98.5 16.167 135.5 40.5s76.167 59.166 117.5 104.499c16 -20 35.833 -40 59.5 -60s47.5 -36.5 71.5 -49.5s46.833 -20.833 68.5 -23.5s38.5 3.33301 50.5 18c-5.33301 -9.33301 -11.333 -17.333 -18 -24s-13 -13.334 -19 -20.001
c-24 -26.667 -42.333 -58 -55 -94c-6.66699 -18.667 -10 -38.667 -10 -60c0 -19.333 3 -39.666 9 -60.999c-53.333 30 -92 61.667 -116 95c-16 22.667 -24.333 46.334 -25 71.001c0 12 2 24.333 6 37l-35 18c-12.667 6.66699 -25 14.667 -37 24l-10 -8
c0 -10.667 0.333008 -21.334 1 -32.001s2.33398 -21.334 5.00098 -32.001c12 -34.667 31 -66.167 57 -94.5s53.833 -55.5 83.5 -81.5l89.5 -76.5c30 -25 55.167 -50.833 75.5 -77.5s32.833 -54.667 37.5 -84c0.666992 -6 1 -11.667 1 -17c0 -24 -7.33301 -50 -22 -78
c-21.333 -38.667 -49.5 -72.834 -84.5 -102.501s-74.5 -49.167 -118.5 -58.5c-38.667 6.66699 -78.167 18.667 -118.5 36s-76.833 28.666 -109.5 33.999c-24 -2.66699 -41.667 -5 -53 -7s-23.666 -7.66699 -36.999 -17z" />
    <glyph glyph-name="t" unicode="t" horiz-adv-x="264" 
d="M-123 972c32.667 -26.667 62.334 -39.999 89.001 -39.999h3c25.333 0 51 4 77 12c-2.66699 20 -9.66699 39 -21 57s-28.333 31 -51 39c30.667 0 60 -5.33301 88 -16c13.333 50.667 40.833 91.167 82.5 121.5s98.167 45.5 169.5 45.5c-22.667 -8 -40.834 -19 -54.501 -33
s-24.834 -29.833 -33.501 -47.5s-14.667 -36.167 -18 -55.5s-5.66602 -37.666 -6.99902 -54.999c14.667 4 32 4.66699 52 2c21.333 -2.66699 41.166 -12.5 59.499 -29.5s36.833 -45.5 55.5 -85.5c-21.333 22.667 -46.5 34 -75.5 34s-60.167 -4 -93.5 -12v-782
c17.333 0 30.666 -5 39.999 -15s15.666 -28 18.999 -54c-9.33301 8 -22.166 10.667 -38.499 8s-34.166 -7.66699 -53.499 -15l-55.5 -22c-17.667 -7.33301 -32.5 -11 -44.5 -11c-18.667 5.33301 -35.667 18 -51 38c-8.66699 11.333 -13 24.333 -13 39
c0 12 2.66699 25.333 8 40c6.66699 -13.333 17 -20.333 31 -21s34 0.333008 60 3c-14.667 2.66699 -26.5 8 -35.5 16s-13.5 21.333 -13.5 40v141c-1.33301 21.333 -5.33301 39.666 -12 54.999s-18.667 25.666 -36 30.999c18.667 8 34.667 11.333 48 10v465
c-11.333 -1.33301 -22.333 -2 -33 -2c-23.333 0 -45.666 4 -66.999 12c-30.667 12 -55.667 41 -75 87z" />
    <glyph glyph-name="u" unicode="u" horiz-adv-x="509" 
d="M-2 408c10.667 4 20.001 6.66699 28.001 8s15.333 2 22 2v153v139c0 18.667 4.66699 32 14 40s21 13.333 35 16c-26.667 2.66699 -46.834 3.33398 -60.501 2.00098s-23.834 -8 -30.501 -20c-5.33301 14.667 -8 28 -8 40c0 14.667 4.33301 27.334 13 38.001
c15.333 18.667 32.333 31.667 51 39c12 0 26.833 -3.66699 44.5 -11l55.5 -22c19.333 -7.33301 37.333 -12.333 54 -15s29.667 0 39 8c-5.33301 -26.667 -12.333 -44.834 -21 -54.501s-21.667 -14.5 -39 -14.5v-185v-370v-64l10 -8c30.667 26.667 64.334 40 101.001 40v6v4
v141c-1.33301 21.333 -5.33301 40 -12 56s-18.667 26.667 -36 32c14.667 6.66699 30.667 10 48 10v397c59.333 -49.333 122.333 -75.666 189 -78.999c-20 -6.66699 -32 -14 -36 -22c-4 -4 -6 -16.667 -6 -38v-463c2.66699 -14.667 8.33398 -27.667 17.001 -39
s27 -16.333 55 -15c-8 -12 -15.333 -24.667 -22 -38s-14.667 -26.166 -24 -38.499s-22.166 -24.833 -38.499 -37.5s-38.5 -24.334 -66.5 -35.001c-17.333 17.333 -31.333 34.666 -42 51.999c-30.667 -16 -55.334 -36.667 -74.001 -62
c-74 91.333 -157.333 139.666 -250 144.999c20 6.66699 31.333 14 34 22c4 4 6 16.667 6 38v115c-1.33301 21.333 -5.33301 40 -12 56s-19.334 26.667 -38.001 32z" />
    <glyph glyph-name="v" unicode="v" horiz-adv-x="503" 
d="M-4 394c20 6.66699 36.001 10 48.001 10v202c-2.66699 52 -12.334 78 -29.001 78h-1c36 22.667 66.833 46.834 92.5 72.501s53.834 43.834 84.501 54.501v-238v-386v-64l50 -8c20 16 40.333 27.333 61 34v165c-2.66699 18.667 -7 35.334 -13 50.001
s-17.333 24.667 -34 30c14.667 6.66699 30.334 10 47.001 10v354c0 16 -0.666992 35.5 -2 58.5s-6 46.167 -14 69.5s-19.5 45.166 -34.5 65.499s-36.5 35.166 -64.5 44.499c87.333 0 152.833 -22.5 196.5 -67.5s65.5 -101.167 65.5 -168.5v-639
c18.667 -13.333 34 -28.5 46 -45.5s19.333 -34.833 22 -53.5c-12 17.333 -27.667 29.333 -47 36s-39.5 8 -60.5 4s-41.833 -12.667 -62.5 -26s-38.334 -30 -53.001 -50c-18.667 22.667 -39.5 42.667 -62.5 60s-47.5 31.833 -73.5 43.5s-52.167 21.167 -78.5 28.5
s-51.5 11.666 -75.5 12.999c20 6.66699 31.333 14 34 22c4 4 6 14.667 6 32v131c-2.66699 18.667 -7.33398 35 -14.001 49s-18 23.667 -34 29z" />
    <glyph glyph-name="w" unicode="w" horiz-adv-x="713" 
d="M-4 392c21.333 8 38.001 11.335 50.001 10.002v262c0 18.667 -2 31.334 -6 38.001c-4 9.33301 -16 16 -36 20c70 6.66699 133 33.667 189 81v-682l10 -6c22.667 18.667 45 30 67 34l2 2c2.66699 8 4 21.333 4 40v113c-1.33301 21.333 -5 40 -11 56s-18 26.667 -36 32
c18.667 8 34.334 11.333 47.001 10v318c-17.333 8 -34.333 19.333 -51 34c2.66699 22.667 16.5 43.5 41.5 62.5s52.833 34.5 83.5 46.5c16 -28 35.167 -52.167 57.5 -72.5s53.5 -34.5 93.5 -42.5l-39 -19c-12.667 -6 -25.334 -11 -38.001 -15v-527v-66l9 -6
c13.333 10.667 27 19 41 25s28.333 10.333 43 13v155c-2.66699 20 -7 37.667 -13 53s-18.333 25.666 -37 30.999c20 8 36.667 11.333 50 10v356c0 16 -0.666992 35.5 -2 58.5s-6 46.167 -14 69.5s-19.667 45.166 -35 65.499s-36.666 35.166 -63.999 44.499
c86 0 151.167 -22.833 195.5 -68.5s66.5 -101.5 66.5 -167.5v-659c26.667 -26.667 42 -53 46 -79c-12 17.333 -28 29 -48 35s-40.167 7 -60.5 3s-40.833 -12.667 -61.5 -26s-38.334 -30 -53.001 -50c-24 29.333 -49.667 55.333 -77 78c-4 0.666992 -8.33301 1 -13 1
c-22.667 0 -46 -6 -70 -18c-28.667 -14 -52.334 -34.333 -71.001 -61c-32 38.667 -68.667 71.834 -110 99.501s-88.666 43.5 -141.999 47.5c18.667 4 30.667 10.667 36 20c4 5.33301 6 18.666 6 39.999v113c-1.33301 21.333 -5.33301 40 -12 56s-19.334 26.667 -38.001 32z
" />
    <glyph glyph-name="x" unicode="x" horiz-adv-x="560" 
d="M-20 781c44 21.333 86.334 51.334 127.001 90.001c52 -16 90.667 -50.333 116 -103c14.667 -22.667 38.334 -91.667 71.001 -207l24 75.5l34 101.5c2.66699 8 5.33398 15.5 8.00098 22.5l8 20.5c-16 -2.66699 -31.667 -4 -47 -4s-29 3.33301 -41 10
c-16 8 -26.333 29.333 -31 64c9.33301 -8 22.166 -10.667 38.499 -8s34.166 7.66699 53.499 15l56 22c18 7.33301 32.667 11 44 11c18.667 -6.66699 35.667 -19.667 51 -39c8.66699 -10.667 13 -23.667 13 -39c0 -12 -2.66699 -25.333 -8 -40v2h-2v2h-2
c-6.66699 9.33301 -15.334 13.666 -26.001 12.999s-20 -5 -28 -13c-2.66699 -4 -7.5 -14.5 -14.5 -31.5s-14.833 -37.167 -23.5 -60.5l-25 -70.5l-20 -59.5l-16 -48h125l-49 -42h-88l-6 -20c12 -34.667 24.333 -68 37 -100s26.334 -62.667 41.001 -92
c41.333 -83.333 89.666 -133.333 144.999 -150c-18.667 -13.333 -38.667 -28.5 -60 -45.5s-43.666 -36.833 -66.999 -59.5c-50.667 18.667 -93.334 57 -128.001 115c-6.66699 9.33301 -13.334 22.333 -20.001 39s-18.334 50.334 -35.001 101.001
c-4 -16 -8.33301 -34.667 -13 -56s-11.667 -45.333 -21 -72c5.33301 0 12 -2.66699 20 -8c16 -8 26.667 -28.333 32 -61c-9.33301 8 -22.333 10.667 -39 8s-34.667 -7.66699 -54 -15l-55.5 -22c-17.667 -7.33301 -32.5 -11 -44.5 -11
c-18.667 5.33301 -35.667 17.666 -51 36.999c-8.66699 10.667 -13 23.667 -13 39c0 12 2.66699 25.667 8 41c6.66699 -13.333 18 -20.666 34 -21.999c10.667 -1.33301 21.167 -1.33301 31.5 0s20.833 3.33301 31.5 6c4 1.33301 8 3 12 5s7.33301 4.33301 10 7
c4 5.33301 9 13.666 15 24.999s11.667 24 17 38s10.333 28 15 42s7.66699 26 9 36c0 2.66699 0.666992 4.66699 2 6c0 28 -2.66699 53.667 -8 77s-19.333 38.333 -42 45c9.33301 4 18.333 6.66699 27 8s16.334 2 23.001 2c-4 13.333 -8 32.333 -12 57h-145l38 42h95
c-17.333 56 -40.666 113 -69.999 171c-29.333 56.667 -65 91 -107 103z" />
    <glyph glyph-name="y" unicode="y" horiz-adv-x="501" 
d="M-10 -219c4 22.667 16.668 44.667 38.001 66s46.666 38 75.999 50c26 10 53.333 15 82 15h15c34.667 -2 67.667 -15 99 -39l10 8v63v56c-38.667 6.66699 -77.167 18.334 -115.5 35.001s-72.833 27 -103.5 31c-24 -2.66699 -41.833 -5 -53.5 -7s-23.5 -7.66699 -35.5 -17
c12 16 23.333 31.833 34 47.5s24 30.834 40 45.501c-16 24 -24 64 -24 120v67c-2.66699 17.333 -7.33398 32.333 -14.001 45s-18 21.667 -34 27c14.667 6.66699 30.667 10 48 10v91v201c0 18.667 4.66699 32 14 40s21 13.333 35 16
c-26.667 2.66699 -46.834 3.66699 -60.501 3s-23.834 -7.66699 -30.501 -21c-5.33301 14.667 -8 28 -8 40c0 15.333 4.33301 28.666 13 39.999c15.333 19.333 32.333 31.666 51 36.999c12 0 26.833 -3.66699 44.5 -11l55.5 -22c19.333 -7.33301 37.333 -12.333 54 -15
s29.334 0 38.001 8c-4 -26.667 -10.833 -44.834 -20.5 -54.501s-22.5 -14.5 -38.5 -14.5v-207v-279c0 -10.667 0.333008 -23.167 1 -37.5s2.33398 -30.166 5.00098 -47.499c22.667 -8 41.834 -16.333 57.501 -25s31.5 -16.334 47.5 -23.001v197
c-2.66699 18.667 -7.33398 34.334 -14.001 47.001s-18 21.667 -34 27c14.667 6.66699 30.667 10 48 10v407c30.667 -10.667 58.834 -28.5 84.501 -53.5s56.5 -49.5 92.5 -73.5h-1c-16.667 0 -26.334 -25.333 -29.001 -76v-423v-68l21 13l23 15
c-6.66699 -12 -13 -24.333 -19 -37s-14.333 -24 -25 -34v-126c0 -19.333 2 -31.666 6 -36.999c8 -9.33301 21.333 -16 40 -20c-53.333 -4 -100.5 -18.333 -141.5 -43s-81.833 -59.334 -122.5 -104.001c-16 20 -35.333 36.5 -58 49.5s-45.667 21.5 -69 25.5
c-8.66699 1.33301 -17.667 2 -27 2c-13.333 0 -26.666 -1.66699 -39.999 -5c-22 -6 -40.333 -17.667 -55 -35z" />
    <glyph glyph-name="z" unicode="z" horiz-adv-x="538" 
d="M-14 42l24.001 33.501c8 11.667 17.333 22.834 28 33.501l201 384c-16 6.66699 -32.333 9.66699 -49 9s-36.334 -7 -59.001 -19c18.667 30.667 39 49.334 61 56.001c12 4 24.667 6 38 6c10.667 0 21.334 -1.33301 32.001 -4l86 163
c-42.667 2.66699 -82.334 16 -119.001 40l-10 -8v-6c5.33301 -12 8 -25.667 8 -41s-4 -32 -12 -50s-21.667 -36.833 -41 -56.5s-46.333 -39.5 -81 -59.5c8.66699 28 13 52.333 13 73c0 16 -2.66699 30 -8 42c-13.333 26.667 -33.333 54 -60 82
c-6.66699 4 -14.667 6.66699 -24 8c59.333 2.66699 110 16.167 152 40.5s85.333 59.833 130 106.5c18.667 -21.333 40.667 -38.666 66 -51.999s51.333 -22 78 -26c10.667 -1.33301 21 -2 31 -2c15.333 0 30 1.66699 44 5c24 6 44 18.333 60 37
c-4 -22.667 -18 -45.334 -42 -68.001l-139 -266c16 -2.66699 31.167 -3.66699 45.5 -3s27.5 6.33398 39.5 17.001c-16 -26.667 -31.167 -48.334 -45.5 -65.001s-28.833 -25 -43.5 -25c-9.33301 0 -20.666 1.33301 -33.999 4l-137 -264
c22.667 -9.33301 42.5 -18.333 59.5 -27s34.833 -16.334 53.5 -23.001l37 42c12.667 14.667 23.667 29.667 33 45s15 30.5 17 45.5s-1.66699 30.5 -11 46.5l66.5 -55.5c17.667 -14.333 31.167 -27.5 40.5 -39.5s14.333 -23.333 15 -34s-3 -22.667 -11 -36
c-44 -74 -107.667 -118.333 -191 -133c-42.667 6.66699 -85.834 18.667 -129.501 36s-82.5 28.666 -116.5 33.999c-26.667 -2.66699 -46 -5.33398 -58 -8.00098s-24.667 -8.66699 -38 -18z" />
    <glyph glyph-name="braceleft" unicode="{" horiz-adv-x="367" 
d="M14 618c54.667 24 83.667 70.668 87 140.001c1.33301 9.33301 5.33301 103.333 12 282c5.33301 127.333 13.333 216.666 24 267.999c5.33301 26.667 21 49.667 47 69s57.333 29 94 29c21.333 0 43.333 -3.33301 66 -10v-6c-67.333 0 -104.333 -28.667 -111 -86
c0 -126 -1.33301 -301.667 -4 -527c0 -32 -9.33301 -63 -28 -93c-22.667 -36 -52 -58 -88 -66c36 -8 65.333 -29.667 88 -65c18.667 -29.333 28 -60 28 -92c-1.33301 -148.667 0 -323 4 -523c6.66699 -58 43.667 -87.667 111 -89v-4c-22.667 -6.66699 -44.667 -10 -66 -10
c-37.333 0 -68.833 9.66699 -94.5 29s-41.167 42 -46.5 68c-10.667 52 -18.667 141.667 -24 269c-6.66699 178.667 -10.667 273.334 -12 284.001c-4 59.333 -33 103.666 -87 132.999z" />
    <glyph glyph-name="bar" unicode="|" horiz-adv-x="125" 
d="M4 1366l93 -58l10 -1437l-91 63z" />
    <glyph glyph-name="braceright" unicode="}" horiz-adv-x="367" 
d="M14 -153c67.333 0 104.332 29.002 110.999 87.002c-1.33301 126 -0.666016 300.333 2.00098 523c1.33301 32 11.333 63.333 30 94c22.667 36 52 57.667 88 65c-36 8 -65.333 30 -88 66c-18.667 30.667 -28.667 61 -30 91c2.66699 150 2 326.333 -2 529
c-6.66699 56.667 -43.667 85.334 -111 86.001v4c22.667 8 44.667 12 66 12c37.333 0 68.833 -10 94.5 -30s41.167 -43.333 46.5 -70c10.667 -52 18.667 -140.667 24 -266c6.66699 -178.667 10 -273.334 10 -284.001c4.66699 -69.333 34.334 -115.333 89.001 -138
c-54.667 -30.667 -84.334 -75 -89.001 -133c0 -10.667 -3.33301 -105.334 -10 -284.001c-5.33301 -127.333 -13.333 -217 -24 -269c-5.33301 -26.667 -21 -49.834 -47 -69.501s-58 -29.5 -96 -29.5c-20 0 -41.333 3.33301 -64 10v6z" />
    <glyph glyph-name="asciitilde" unicode="~" horiz-adv-x="749" 
d="M121 1398c-1.33301 37.333 9.33203 66.833 31.999 88.5s49.334 32.5 80.001 32.5c20 0 67 -5.66699 141 -17s123 -17 147 -17c46 0 73.667 16 83 48c0 -37.333 -10.167 -67.5 -30.5 -90.5s-46.5 -34.5 -78.5 -34.5c-20 0 -68.333 6 -145 18s-127 18 -151 18
c-41.333 0 -67.333 -15.333 -78 -46z" />
    <glyph glyph-name="uni00A0" unicode="&#xa0;" horiz-adv-x="433" 
 />
    <glyph glyph-name="guillemotleft" unicode="&#xab;" horiz-adv-x="522" 
d="M20 593l173 332.001h73c-32 -80.667 -71.667 -191.334 -119 -332.001l119 -338h-73zM251 593.001l173 332.001h73c-32 -80.667 -71 -191.334 -117 -332.001l117 -338h-73z" />
    <glyph glyph-name="uni00AD" unicode="&#xad;" 
d="M44 595c-1.33301 52 9.5 93.5 32.5 124.5s49.833 44.5 80.5 40.5c20 1.33301 67.167 -6.66699 141.5 -24s123.166 -27.333 146.499 -30c46.667 -1.33301 74.667 19.334 84 62.001c-1.33301 -50.667 -12.333 -91.834 -33 -123.501s-46.667 -47.5 -78 -47.5
c-20 2.66699 -68.167 13.167 -144.5 31.5s-126.5 27.5 -150.5 27.5c-41.333 1.33301 -67.666 -19 -78.999 -61z" />
    <glyph glyph-name="guillemotright" unicode="&#xbb;" horiz-adv-x="524" 
d="M48 255l117 338c-46.667 140.667 -85.667 252.667 -117 336h73l171 -336l-171 -338h-73zM278 255l118 338c-46.667 140.667 -86 252.667 -118 336h74l173 -336l-173 -338h-74z" />
    <glyph glyph-name="uni2000" unicode="&#x2000;" horiz-adv-x="847" 
 />
    <glyph glyph-name="uni2001" unicode="&#x2001;" horiz-adv-x="1694" 
 />
    <glyph glyph-name="uni2002" unicode="&#x2002;" horiz-adv-x="847" 
 />
    <glyph glyph-name="uni2003" unicode="&#x2003;" horiz-adv-x="1694" 
 />
    <glyph glyph-name="uni2004" unicode="&#x2004;" horiz-adv-x="564" 
 />
    <glyph glyph-name="uni2005" unicode="&#x2005;" horiz-adv-x="423" 
 />
    <glyph glyph-name="uni2006" unicode="&#x2006;" horiz-adv-x="282" 
 />
    <glyph glyph-name="uni2007" unicode="&#x2007;" horiz-adv-x="282" 
 />
    <glyph glyph-name="uni2008" unicode="&#x2008;" horiz-adv-x="211" 
 />
    <glyph glyph-name="uni2009" unicode="&#x2009;" horiz-adv-x="338" 
 />
    <glyph glyph-name="uni200A" unicode="&#x200a;" horiz-adv-x="94" 
 />
    <glyph glyph-name="uni2010" unicode="&#x2010;" 
d="M44 595c-1.33301 52 9.5 93.5 32.5 124.5s49.833 44.5 80.5 40.5c20 1.33301 67.167 -6.66699 141.5 -24s123.166 -27.333 146.499 -30c46.667 -1.33301 74.667 19.334 84 62.001c-1.33301 -50.667 -12.333 -91.834 -33 -123.501s-46.667 -47.5 -78 -47.5
c-20 2.66699 -68.167 13.167 -144.5 31.5s-126.5 27.5 -150.5 27.5c-41.333 1.33301 -67.666 -19 -78.999 -61z" />
    <glyph glyph-name="uni2011" unicode="&#x2011;" 
d="M44 595c-1.33301 52 9.5 93.5 32.5 124.5s49.833 44.5 80.5 40.5c20 1.33301 67.167 -6.66699 141.5 -24s123.166 -27.333 146.499 -30c46.667 -1.33301 74.667 19.334 84 62.001c-1.33301 -50.667 -12.333 -91.834 -33 -123.501s-46.667 -47.5 -78 -47.5
c-20 2.66699 -68.167 13.167 -144.5 31.5s-126.5 27.5 -150.5 27.5c-41.333 1.33301 -67.666 -19 -78.999 -61z" />
    <glyph glyph-name="figuredash" unicode="&#x2012;" 
d="M44 595c-1.33301 52 9.5 93.5 32.5 124.5s49.833 44.5 80.5 40.5c20 1.33301 67.167 -6.66699 141.5 -24s123.166 -27.333 146.499 -30c46.667 -1.33301 74.667 19.334 84 62.001c-1.33301 -50.667 -12.333 -91.834 -33 -123.501s-46.667 -47.5 -78 -47.5
c-20 2.66699 -68.167 13.167 -144.5 31.5s-126.5 27.5 -150.5 27.5c-41.333 1.33301 -67.666 -19 -78.999 -61z" />
    <glyph glyph-name="endash" unicode="&#x2013;" horiz-adv-x="1092" 
d="M43 595c-2.66699 52 20.333 93.5 69 124.5s105.334 44.5 170.001 40.5c42 1.33301 141.5 -6.66699 298.5 -24s260.167 -27.333 309.5 -30c98 -1.33301 157 19.334 177 62.001c-2.66699 -50.667 -25.834 -91.834 -69.501 -123.501s-98.5 -47.5 -164.5 -47.5
c-42.667 2.66699 -144.5 13.167 -305.5 31.5s-266.833 27.5 -317.5 27.5c-87.333 1.33301 -143 -19 -167 -61z" />
    <glyph glyph-name="emdash" unicode="&#x2014;" horiz-adv-x="2116" 
d="M43 595c-5.33301 52 40.499 93.5 137.499 124.5s210.5 44.5 340.5 40.5c84 1.33301 283 -6.66699 597 -24s520 -27.333 618 -30c197.333 -1.33301 315.666 19.334 354.999 62.001c-5.33301 -50.667 -51.666 -91.834 -138.999 -123.501s-197.333 -47.5 -330 -47.5
c-84 2.66699 -287.167 13.167 -609.5 31.5s-534.166 27.5 -635.499 27.5c-174.667 1.33301 -286 -19 -334 -61z" />
    <glyph glyph-name="quoteleft" unicode="&#x2018;" horiz-adv-x="115" 
d="M4 1185c4 14.667 14.667 35.5 32 62.5s30 39.167 38 36.5c-12 -24 -14.667 -43 -8 -57c12 -6.66699 21.5 -14.667 28.5 -24s10.5 -20 10.5 -32c0 -8 -7.66699 -25.333 -23 -52c-16 -10.667 -32 -12.667 -48 -6c-28 20 -38 44 -30 72z" />
    <glyph glyph-name="quoteright" unicode="&#x2019;" horiz-adv-x="113" 
d="M4 1211c0 9.33301 7.33301 27.333 22 54c17.333 13.333 34 15.333 50 6c27.333 -20 37 -44 29 -72c-4 -14.667 -13.667 -34.667 -29 -60c-18.667 -29.333 -32 -42.333 -40 -39c12 22.667 14.667 41.667 8 57c-12 6.66699 -21.667 14.667 -29 24s-11 19.333 -11 30z" />
    <glyph glyph-name="quotesinglbase" unicode="&#x201a;" horiz-adv-x="119" 
d="M4 4c0 8 7.33301 26.001 22 54.001c17.333 13.333 34 14.666 50 3.99902c27.333 -18.667 37 -42.667 29 -72c-4 -13.333 -14.5 -33.833 -31.5 -61.5s-29.5 -40.167 -37.5 -37.5c12 24 14.667 43.667 8 59c-12 6.66699 -21.667 14.667 -29 24s-11 19.333 -11 30z" />
    <glyph glyph-name="quotedblleft" unicode="&#x201c;" horiz-adv-x="413" 
d="M70 1290c2.66699 20 13.834 67.5 33.501 142.5s30.167 124.5 31.5 148.5c5.33301 41.333 -7.33398 69 -38.001 83c37.333 -2.66699 66 -16.167 86 -40.5s28 -51.833 24 -82.5c-1.33301 -20 -11.333 -66.5 -30 -139.5s-29.334 -121.167 -32.001 -144.5
c-5.33301 -46.667 7.33398 -76 38.001 -88c-36 4 -64.5 17.333 -85.5 40s-30.167 49.667 -27.5 81zM225 1290c2.66699 20 13.833 67.5 33.5 142.5s30.167 124.5 31.5 148.5c5.33301 41.333 -7 69 -37 83c37.333 -2.66699 65.833 -16.167 85.5 -40.5s27.5 -51.833 23.5 -82.5
c-1.33301 -20 -11.333 -66.5 -30 -139.5s-29.334 -121.167 -32.001 -144.5c-5.33301 -46.667 7.33398 -76 38.001 -88c-36 4 -64.5 17.333 -85.5 40s-30.167 49.667 -27.5 81z" />
    <glyph glyph-name="quotedblright" unicode="&#x201d;" horiz-adv-x="413" 
d="M60 1322c1.33301 20 11.8311 66.499 31.498 139.499s30.834 121.5 33.501 145.5c6.66699 46 -5.33301 75 -36 87c36 -4 64.333 -17.5 85 -40.5s29.667 -50.5 27 -82.5c-2.66699 -20 -14.667 -67.167 -36 -141.5s-32.666 -123.5 -33.999 -147.5
c-6.66699 -41.333 5.33301 -69.666 36 -84.999c-37.333 4 -65.5 18.333 -84.5 43s-26.5 52 -22.5 82zM214.998 1320c1.33301 20 11.833 66.499 31.5 139.499s30.834 121.5 33.501 145.5c7.33301 44.667 -4.33398 73.667 -35.001 87c36 -5.33301 64.167 -19.166 84.5 -41.499
s29.166 -49.5 26.499 -81.5c-2.66699 -20 -14.667 -67.5 -36 -142.5s-32.666 -124.167 -33.999 -147.5c-6.66699 -40 5.33301 -68 36 -84c-37.333 4 -65.5 18.333 -84.5 43s-26.5 52 -22.5 82z" />
    <glyph glyph-name="quotedblbase" unicode="&#x201e;" horiz-adv-x="218" 
d="M22 4c0 8 7.33203 32.667 21.999 74c21.333 0 42.333 -8.66699 63 -26c2.66699 9.33301 8 24.333 16 45c17.333 0 34 -5 50 -15c28 -20 38 -44 30 -72c-4 -13.333 -14.667 -33.833 -32 -61.5s-30 -40.167 -38 -37.5c12 24 14.667 43.667 8 59
c-6.66699 2.66699 -14 7.33398 -22 14.001c-6.66699 -17.333 -16.667 -37.333 -30 -60c-17.333 -25.333 -29 -36.333 -35 -33c10.667 24 13.334 43.667 8.00098 59c-12 5.33301 -21.667 12.666 -29 21.999s-11 20 -11 32z" />
    <glyph glyph-name="uni202F" unicode="&#x202f;" horiz-adv-x="338" 
 />
    <glyph glyph-name="uni205F" unicode="&#x205f;" horiz-adv-x="423" 
 />
    <glyph glyph-name="uni25FC" unicode="&#x25fc;" horiz-adv-x="894" 
d="M0 0v895h895v-895h-895z" />
    <glyph glyph-name="glyph1" horiz-adv-x="0" 
 />
    <glyph glyph-name="glyph2" horiz-adv-x="682" 
 />
    </font>
</defs>
</svg>
